M48
;GenerationSoftware,Autodesk,EAGLE,9.6.2*%
;CreationDate,2023-01-31T17:05:05Z*%
FMAT,2
ICI,OFF
METRIC,TZ,000.000
T3C0.305
T2C1.016
T1C3.302
%
G90
M71
T1
X54356Y80264
X132080Y80264
X2540Y2540
X22860Y2540
X28448Y2540
X48768Y2540
X54356Y2540
X74676Y2540
X80264Y2540
X100584Y2540
X106172Y2540
X126492Y2540
X132080Y2540
X152400Y2540
X2540Y28448
X22860Y28448
X28448Y28448
X48768Y28448
X54356Y28448
X74676Y28448
X80264Y28448
X100584Y28448
X106172Y28448
X126492Y28448
X132080Y28448
X152400Y28448
X2540Y54356
X22860Y54356
X28448Y54356
X48768Y54356
X54356Y54356
X74676Y54356
X80264Y54356
X100584Y54356
X106172Y54356
X126492Y54356
X132080Y54356
X152400Y54356
X2540Y80264
X22860Y80264
X28448Y80264
X48768Y80264
X152400Y80264
X74676Y80264
X80264Y80264
X100584Y80264
X106172Y80264
X126492Y80264
T2
X75946Y37338
X130810Y84074
X24130Y6350
X24130Y8890
X24130Y11430
X24130Y13970
X24130Y16510
X24130Y19050
X1270Y19050
X1270Y16510
X1270Y13970
X1270Y11430
X1270Y8890
X1270Y6350
X50038Y6350
X50038Y8890
X50038Y11430
X50038Y13970
X50038Y16510
X50038Y19050
X27178Y19050
X27178Y16510
X27178Y13970
X27178Y11430
X27178Y8890
X27178Y6350
X75946Y6350
X75946Y8890
X75946Y11430
X75946Y13970
X75946Y16510
X75946Y19050
X53086Y19050
X53086Y16510
X53086Y13970
X53086Y11430
X53086Y8890
X53086Y6350
X101854Y6350
X101854Y8890
X101854Y11430
X101854Y13970
X101854Y16510
X101854Y19050
X78994Y19050
X78994Y16510
X78994Y13970
X78994Y11430
X78994Y8890
X78994Y6350
X127762Y6350
X127762Y8890
X127762Y11430
X127762Y13970
X127762Y16510
X127762Y19050
X104902Y19050
X104902Y16510
X104902Y13970
X104902Y11430
X104902Y8890
X104902Y6350
X153670Y6350
X153670Y8890
X153670Y11430
X153670Y13970
X153670Y16510
X153670Y19050
X130810Y19050
X130810Y16510
X130810Y13970
X130810Y11430
X130810Y8890
X130810Y6350
X24130Y32258
X24130Y34798
X24130Y37338
X24130Y39878
X24130Y42418
X24130Y44958
X1270Y44958
X1270Y42418
X1270Y39878
X1270Y37338
X1270Y34798
X1270Y32258
X50038Y32258
X50038Y34798
X50038Y37338
X50038Y39878
X50038Y42418
X50038Y44958
X27178Y44958
X27178Y42418
X27178Y39878
X27178Y37338
X27178Y34798
X27178Y32258
X75946Y32258
X75946Y34798
X75946Y39878
X75946Y42418
X75946Y44958
X53086Y44958
X53086Y42418
X53086Y39878
X53086Y37338
X53086Y34798
X53086Y32258
X101854Y32258
X101854Y34798
X101854Y37338
X101854Y39878
X101854Y42418
X101854Y44958
X78994Y44958
X78994Y42418
X78994Y39878
X78994Y37338
X78994Y34798
X78994Y32258
X127762Y32258
X127762Y34798
X127762Y37338
X127762Y39878
X127762Y42418
X127762Y44958
X104902Y44958
X104902Y42418
X104902Y39878
X104902Y37338
X104902Y34798
X104902Y32258
X153670Y32258
X153670Y34798
X153670Y37338
X153670Y39878
X153670Y42418
X153670Y44958
X130810Y44958
X130810Y42418
X130810Y39878
X130810Y37338
X130810Y34798
X130810Y32258
X24130Y58166
X24130Y60706
X24130Y63246
X24130Y65786
X24130Y68326
X24130Y70866
X1270Y70866
X1270Y68326
X1270Y65786
X1270Y63246
X1270Y60706
X1270Y58166
X50038Y58166
X50038Y60706
X50038Y63246
X50038Y65786
X50038Y68326
X50038Y70866
X27178Y70866
X27178Y68326
X27178Y65786
X27178Y63246
X27178Y60706
X27178Y58166
X75946Y58166
X75946Y60706
X75946Y63246
X75946Y65786
X75946Y68326
X75946Y70866
X53086Y70866
X53086Y68326
X53086Y65786
X53086Y63246
X53086Y60706
X53086Y58166
X101854Y58166
X101854Y60706
X101854Y63246
X101854Y65786
X101854Y68326
X101854Y70866
X78994Y70866
X78994Y68326
X78994Y65786
X78994Y63246
X78994Y60706
X78994Y58166
X127762Y58166
X127762Y60706
X127762Y63246
X127762Y65786
X127762Y68326
X127762Y70866
X104902Y70866
X104902Y68326
X104902Y65786
X104902Y63246
X104902Y60706
X104902Y58166
X153670Y58166
X153670Y60706
X153670Y63246
X153670Y65786
X153670Y68326
X153670Y70866
X130810Y70866
X130810Y68326
X130810Y65786
X130810Y63246
X130810Y60706
X130810Y58166
X24130Y84074
X24130Y86614
X24130Y89154
X24130Y91694
X24130Y94234
X24130Y96774
X1270Y96774
X1270Y94234
X1270Y91694
X1270Y89154
X1270Y86614
X1270Y84074
X50038Y84074
X50038Y86614
X50038Y89154
X50038Y91694
X50038Y94234
X50038Y96774
X27178Y96774
X27178Y94234
X27178Y91694
X27178Y89154
X27178Y86614
X27178Y84074
X75946Y84074
X75946Y86614
X75946Y89154
X75946Y91694
X75946Y94234
X75946Y96774
X53086Y96774
X53086Y94234
X53086Y91694
X53086Y89154
X53086Y86614
X53086Y84074
X101854Y84074
X101854Y86614
X101854Y89154
X101854Y91694
X101854Y94234
X101854Y96774
X78994Y96774
X78994Y94234
X78994Y91694
X78994Y89154
X78994Y86614
X78994Y84074
X127762Y84074
X127762Y86614
X127762Y89154
X127762Y91694
X127762Y94234
X127762Y96774
X104902Y96774
X104902Y94234
X104902Y91694
X104902Y89154
X104902Y86614
X104902Y84074
X153670Y84074
X153670Y86614
X153670Y89154
X153670Y91694
X153670Y94234
X153670Y96774
X130810Y96774
X130810Y94234
X130810Y91694
X130810Y89154
X130810Y86614
T3
X17272Y43053
X20193Y41656
X17272Y39243
X12192Y44196
X10109Y40437
X6350Y41783
X6604Y36957
X41453Y42901
X42164Y45720
X44958Y45720
X43612Y44552
X40132Y44120
X37160Y43612
X37998Y38786
X36068Y45720
X30988Y45720
X40513Y39243
X47549Y41834
X32766Y34925
X30353Y26543
X46863Y26543
X41783Y26797
X35433Y26543
X46228Y37211
X38608Y37338
X45720Y35179
X47498Y35179
X45593Y30353
X31623Y30353
X26543Y30353
X50673Y30353
X35839Y43459
X33274Y41783
X30988Y38100
X29718Y36703
X35052Y38100
X29083Y43688
X40914Y42177
X39116Y44196
X39218Y38786
X38583Y39429
X36348Y39218
X37084Y38811
X41084Y41339
X35281Y40843
X35585Y41631
X36170Y42240
X46863Y39878
X46863Y42418
X43180Y43053
X46101Y41656
X43180Y39243
X38100Y44196
X36017Y40437
X32258Y41783
X32512Y36957
X67361Y42901
X68072Y45720
X70866Y45720
X69520Y44552
X66040Y44120
X63068Y43612
X63906Y38786
X61976Y45720
X56896Y45720
X66421Y39243
X73457Y41834
X58674Y34925
X56261Y26543
X72771Y26543
X67691Y26797
X61341Y26543
X72136Y37211
X64516Y37338
X71628Y35179
X73406Y35179
X71501Y30353
X57531Y30353
X52451Y30353
X76581Y30353
X61747Y43459
X59182Y41783
X56896Y38100
X55626Y36703
X60960Y38100
X54991Y43688
X66822Y42177
X65024Y44196
X65126Y38786
X64491Y39429
X62256Y39218
X62992Y38811
X66992Y41339
X61189Y40843
X61493Y41631
X62078Y42240
X72771Y39878
X72771Y42418
X69088Y43053
X72009Y41656
X69088Y39243
X64008Y44196
X61925Y40437
X58166Y41783
X58420Y36957
X93269Y42901
X93980Y45720
X96774Y45720
X95428Y44552
X91948Y44120
X88976Y43612
X89814Y38786
X87884Y45720
X82804Y45720
X92329Y39243
X99365Y41834
X84582Y34925
X82169Y26543
X98679Y26543
X93599Y26797
X87249Y26543
X98044Y37211
X90424Y37338
X97536Y35179
X99314Y35179
X97409Y30353
X83439Y30353
X78359Y30353
X102489Y30353
X87655Y43459
X85090Y41783
X82804Y38100
X81534Y36703
X86868Y38100
X80899Y43688
X92730Y42177
X90932Y44196
X91034Y38786
X90399Y39429
X88164Y39218
X88900Y38811
X92900Y41339
X87097Y40843
X87401Y41631
X87986Y42240
X98679Y39878
X98679Y42418
X94996Y43053
X97917Y41656
X94996Y39243
X89916Y44196
X87833Y40437
X84074Y41783
X84328Y36957
X119177Y42901
X119888Y45720
X122682Y45720
X121336Y44552
X117856Y44120
X114884Y43612
X115722Y38786
X113792Y45720
X108712Y45720
X118237Y39243
X125273Y41834
X110490Y34925
X108077Y26543
X124587Y26543
X119507Y26797
X113157Y26543
X123952Y37211
X116332Y37338
X123444Y35179
X125222Y35179
X123317Y30353
X109347Y30353
X104267Y30353
X128397Y30353
X113563Y43459
X110998Y41783
X108712Y38100
X107442Y36703
X112776Y38100
X106807Y43688
X118638Y42177
X116840Y44196
X116942Y38786
X116307Y39429
X114072Y39218
X114808Y38811
X118808Y41339
X113005Y40843
X113309Y41631
X113894Y42240
X124587Y39878
X124587Y42418
X120904Y43053
X123825Y41656
X120904Y39243
X115824Y44196
X113741Y40437
X109982Y41783
X110236Y36957
X145085Y42901
X145796Y45720
X148590Y45720
X147244Y44552
X143764Y44120
X140792Y43612
X141630Y38786
X139700Y45720
X134620Y45720
X144145Y39243
X151181Y41834
X136398Y34925
X133985Y26543
X150495Y26543
X145415Y26797
X139065Y26543
X149860Y37211
X142240Y37338
X149352Y35179
X151130Y35179
X149225Y30353
X135255Y30353
X130175Y30353
X154305Y30353
X139471Y43459
X136906Y41783
X134620Y38100
X133350Y36703
X138684Y38100
X132715Y43688
X144546Y42177
X142748Y44196
X142850Y38786
X142215Y39429
X139980Y39218
X140716Y38811
X144716Y41339
X138913Y40843
X139217Y41631
X139802Y42240
X150495Y39878
X150495Y42418
X146812Y43053
X149733Y41656
X146812Y39243
X141732Y44196
X139649Y40437
X135890Y41783
X136144Y36957
X15545Y68809
X16256Y71628
X19050Y71628
X17704Y70460
X14224Y70028
X11252Y69520
X12090Y64694
X10160Y71628
X5080Y71628
X14605Y65151
X21641Y67742
X6858Y60833
X4445Y52451
X20955Y52451
X15875Y52705
X9525Y52451
X20320Y63119
X12700Y63246
X19812Y61087
X21590Y61087
X19685Y56261
X5715Y56261
X635Y56261
X24765Y56261
X9931Y69367
X7366Y67691
X5080Y64008
X3810Y62611
X9144Y64008
X3175Y69596
X15006Y68085
X13208Y70104
X13310Y64694
X12675Y65337
X10440Y65126
X11176Y64719
X15176Y67247
X9373Y66751
X9677Y67539
X10262Y68148
X20955Y65786
X20955Y68326
X17272Y68961
X20193Y67564
X17272Y65151
X12192Y70104
X10109Y66345
X6350Y67691
X6604Y62865
X41453Y68809
X42164Y71628
X44958Y71628
X43612Y70460
X40132Y70028
X37160Y69520
X37998Y64694
X36068Y71628
X30988Y71628
X40513Y65151
X47549Y67742
X32766Y60833
X30353Y52451
X46863Y52451
X41783Y52705
X35433Y52451
X46228Y63119
X38608Y63246
X45720Y61087
X47498Y61087
X45593Y56261
X31623Y56261
X26543Y56261
X50673Y56261
X35839Y69367
X33274Y67691
X30988Y64008
X29718Y62611
X35052Y64008
X29083Y69596
X40914Y68085
X39116Y70104
X39218Y64694
X38583Y65337
X36348Y65126
X37084Y64719
X41084Y67247
X35281Y66751
X35585Y67539
X36170Y68148
X46863Y65786
X46863Y68326
X43180Y68961
X46101Y67564
X43180Y65151
X38100Y70104
X36017Y66345
X32258Y67691
X32512Y62865
X67361Y68809
X68072Y71628
X70866Y71628
X69520Y70460
X66040Y70028
X63068Y69520
X63906Y64694
X61976Y71628
X56896Y71628
X66421Y65151
X73457Y67742
X58674Y60833
X56261Y52451
X72771Y52451
X67691Y52705
X61341Y52451
X72136Y63119
X64516Y63246
X71628Y61087
X73406Y61087
X71501Y56261
X57531Y56261
X52451Y56261
X76581Y56261
X61747Y69367
X59182Y67691
X56896Y64008
X55626Y62611
X60960Y64008
X54991Y69596
X66822Y68085
X65024Y70104
X65126Y64694
X64491Y65337
X62256Y65126
X62992Y64719
X66992Y67247
X61189Y66751
X61493Y67539
X62078Y68148
X72771Y65786
X72771Y68326
X69088Y68961
X72009Y67564
X69088Y65151
X64008Y70104
X61925Y66345
X58166Y67691
X58420Y62865
X93269Y68809
X93980Y71628
X96774Y71628
X95428Y70460
X91948Y70028
X88976Y69520
X89814Y64694
X87884Y71628
X82804Y71628
X92329Y65151
X99365Y67742
X84582Y60833
X82169Y52451
X98679Y52451
X93599Y52705
X87249Y52451
X98044Y63119
X90424Y63246
X97536Y61087
X99314Y61087
X97409Y56261
X94996Y17145
X78359Y56261
X102489Y56261
X87655Y69367
X85090Y67691
X82804Y64008
X81534Y62611
X86868Y64008
X80899Y69596
X92730Y68085
X90932Y70104
X91034Y64694
X90399Y65337
X88164Y65126
X88900Y64719
X92900Y67247
X87097Y66751
X87401Y67539
X87986Y68148
X98679Y65786
X98679Y68326
X94996Y68961
X97917Y67564
X94996Y65151
X89916Y70104
X87833Y66345
X84074Y67691
X84328Y62865
X119177Y68809
X119888Y71628
X122682Y71628
X121336Y70460
X117856Y70028
X114884Y69520
X115722Y64694
X113792Y71628
X108712Y71628
X118237Y65151
X125273Y67742
X110490Y60833
X108077Y52451
X124587Y52451
X119507Y52705
X113157Y52451
X123952Y63119
X116332Y63246
X123444Y61087
X125222Y61087
X123317Y56261
X109347Y56261
X104267Y56261
X128397Y56261
X113563Y69367
X110998Y67691
X108712Y64008
X107442Y62611
X112776Y64008
X106807Y69596
X118638Y68085
X116840Y70104
X116942Y64694
X116307Y65337
X114072Y65126
X114808Y64719
X118808Y67247
X113005Y66751
X113309Y67539
X113894Y68148
X124587Y65786
X124587Y68326
X120904Y68961
X123825Y67564
X120904Y65151
X115824Y70104
X113741Y66345
X109982Y67691
X110236Y62865
X145085Y68809
X145796Y71628
X148590Y71628
X147244Y70460
X143764Y70028
X140792Y69520
X141630Y64694
X139700Y71628
X134620Y71628
X144145Y65151
X151181Y67742
X136398Y60833
X133985Y52451
X150495Y52451
X145415Y52705
X139065Y52451
X149860Y63119
X142240Y63246
X149352Y61087
X151130Y61087
X149225Y56261
X135255Y56261
X130175Y56261
X154305Y56261
X139471Y69367
X136906Y67691
X134620Y64008
X133350Y62611
X138684Y64008
X132715Y69596
X144546Y68085
X142748Y70104
X142850Y64694
X142215Y65337
X139980Y65126
X140716Y64719
X144716Y67247
X138913Y66751
X139217Y67539
X139802Y68148
X150495Y65786
X150495Y68326
X146812Y68961
X149733Y67564
X146812Y65151
X141732Y70104
X139649Y66345
X135890Y67691
X136144Y62865
X15545Y94717
X16256Y97536
X19050Y97536
X17704Y96368
X14224Y95936
X11252Y95428
X12090Y90602
X10160Y97536
X5080Y97536
X14605Y91059
X21641Y93650
X6858Y86741
X4445Y78359
X20955Y78359
X15875Y78613
X9525Y78359
X20320Y89027
X12700Y89154
X19812Y86995
X21590Y86995
X19685Y82169
X5715Y82169
X635Y82169
X24765Y82169
X9931Y95275
X7366Y93599
X5080Y89916
X3810Y88519
X9144Y89916
X3175Y95504
X15006Y93993
X13208Y96012
X13310Y90602
X12675Y91245
X10440Y91034
X11176Y90627
X15176Y93155
X9373Y92659
X9677Y93447
X10262Y94056
X20955Y91694
X20955Y94234
X17272Y94869
X20193Y93472
X17272Y91059
X12192Y96012
X10109Y92253
X6350Y93599
X6604Y88773
X41453Y94717
X42164Y97536
X44958Y97536
X43612Y96368
X40132Y95936
X37160Y95428
X37998Y90602
X36068Y97536
X30988Y97536
X40513Y91059
X47549Y93650
X32766Y86741
X30353Y78359
X46863Y78359
X41783Y78613
X35433Y78359
X46228Y89027
X38608Y89154
X45720Y86995
X47498Y86995
X45593Y82169
X31623Y82169
X26543Y82169
X50673Y82169
X35839Y95275
X33274Y93599
X30988Y89916
X29718Y88519
X35052Y89916
X29083Y95504
X40914Y93993
X39116Y96012
X39218Y90602
X38583Y91245
X36348Y91034
X37084Y90627
X41084Y93155
X35281Y92659
X35585Y93447
X36170Y94056
X46863Y91694
X46863Y94234
X43180Y94869
X46101Y93472
X43180Y91059
X38100Y96012
X36017Y92253
X32258Y93599
X32512Y88773
X67361Y94717
X68072Y97536
X70866Y97536
X69520Y96368
X66040Y95936
X63068Y95428
X63906Y90602
X61976Y97536
X56896Y97536
X66421Y91059
X73457Y93650
X58674Y86741
X56261Y78359
X72771Y78359
X67691Y78613
X61341Y78359
X72136Y89027
X64516Y89154
X71628Y86995
X73406Y86995
X71501Y82169
X57531Y82169
X52451Y82169
X76581Y82169
X61747Y95275
X59182Y93599
X56896Y89916
X55626Y88519
X60960Y89916
X54991Y95504
X66822Y93993
X65024Y96012
X65126Y90602
X64491Y91245
X62256Y91034
X62992Y90627
X66992Y93155
X61189Y92659
X61493Y93447
X62078Y94056
X72771Y91694
X72771Y94234
X69088Y94869
X72009Y93472
X69088Y91059
X64008Y96012
X61925Y92253
X58166Y93599
X58420Y88773
X93269Y94717
X93980Y97536
X96774Y97536
X95428Y96368
X91948Y95936
X88976Y95428
X89814Y90602
X87884Y97536
X82804Y97536
X92329Y91059
X99365Y93650
X84582Y86741
X82169Y78359
X98679Y78359
X93599Y78613
X87249Y78359
X98044Y89027
X90424Y89154
X97536Y86995
X99314Y86995
X97409Y82169
X83439Y82169
X78359Y82169
X102489Y82169
X87655Y95275
X85090Y93599
X82804Y89916
X81534Y88519
X86868Y89916
X80899Y95504
X92730Y93993
X90932Y96012
X91034Y90602
X90399Y91245
X88164Y91034
X88900Y90627
X92900Y93155
X87097Y92659
X87401Y93447
X87986Y94056
X98679Y91694
X98679Y94234
X94996Y94869
X97917Y93472
X94996Y91059
X89916Y96012
X87833Y92253
X84074Y93599
X84328Y88773
X119177Y94717
X119888Y97536
X122682Y97536
X121336Y96368
X117856Y95936
X114884Y95428
X115722Y90602
X113792Y97536
X108712Y97536
X118237Y91059
X125273Y93650
X110490Y86741
X108077Y78359
X124587Y78359
X119507Y78613
X113157Y78359
X123952Y89027
X116332Y89154
X123444Y86995
X125222Y86995
X123317Y82169
X109347Y82169
X104267Y82169
X128397Y82169
X113563Y95275
X110998Y93599
X108712Y89916
X107442Y88519
X112776Y89916
X106807Y95504
X118638Y93993
X116840Y96012
X116942Y90602
X116307Y91245
X114072Y91034
X114808Y90627
X118808Y93155
X113005Y92659
X113309Y93447
X113894Y94056
X124587Y91694
X124587Y94234
X120904Y94869
X123825Y93472
X120904Y91059
X115824Y96012
X113741Y92253
X109982Y93599
X110236Y88773
X145085Y94717
X145796Y97536
X148590Y97536
X147244Y96368
X143764Y95936
X140792Y95428
X15545Y16993
X139700Y97536
X134620Y97536
X144145Y91059
X151181Y93650
X136398Y86741
X133985Y78359
X150495Y78359
X145415Y78613
X139065Y78359
X149860Y89027
X142240Y89154
X149352Y86995
X151130Y86995
X149225Y82169
X135255Y82169
X130175Y82169
X154305Y82169
X139471Y95275
X136906Y93599
X134620Y89916
X133350Y88519
X138684Y89916
X132715Y95504
X144546Y93993
X142748Y96012
X142850Y90602
X142215Y91245
X139980Y91034
X140716Y90627
X144716Y93155
X138913Y92659
X139217Y93447
X139802Y94056
X150495Y91694
X150495Y94234
X146812Y94869
X149733Y93472
X146812Y91059
X141732Y96012
X139649Y92253
X135890Y93599
X136144Y88773
X16256Y19812
X19050Y19812
X17704Y18644
X14224Y18212
X11252Y17704
X12090Y12878
X10160Y19812
X5080Y19812
X14605Y13335
X21641Y15926
X6858Y9017
X4445Y635
X20955Y635
X15875Y889
X9525Y635
X20320Y11303
X12700Y11430
X19812Y9271
X21590Y9271
X19685Y4445
X5715Y4445
X635Y4445
X24765Y4445
X9931Y17551
X7366Y15875
X5080Y12192
X3810Y10795
X9144Y12192
X3175Y17780
X15006Y16269
X13208Y18288
X13310Y12878
X12675Y13521
X10440Y13310
X11176Y12903
X15176Y15431
X9373Y14935
X9677Y15723
X10262Y16332
X20955Y13970
X20955Y16510
X17272Y17145
X20193Y15748
X17272Y13335
X12192Y18288
X10109Y14529
X6350Y15875
X6604Y11049
X41453Y16993
X42164Y19812
X44958Y19812
X43612Y18644
X40132Y18212
X37160Y17704
X37998Y12878
X36068Y19812
X30988Y19812
X40513Y13335
X47549Y15926
X32766Y9017
X30353Y635
X46863Y635
X41783Y889
X35433Y635
X46228Y11303
X38608Y11430
X45720Y9271
X47498Y9271
X45593Y4445
X31623Y4445
X26543Y4445
X50673Y4445
X35839Y17551
X33274Y15875
X30988Y12192
X29718Y10795
X35052Y12192
X29083Y17780
X40914Y16269
X39116Y18288
X39218Y12878
X38583Y13521
X36348Y13310
X37084Y12903
X41084Y15431
X35281Y14935
X35585Y15723
X36170Y16332
X46863Y13970
X46863Y16510
X43180Y17145
X46101Y15748
X43180Y13335
X38100Y18288
X36017Y14529
X32258Y15875
X32512Y11049
X67361Y16993
X68072Y19812
X70866Y19812
X69520Y18644
X66040Y18212
X63068Y17704
X63906Y12878
X61976Y19812
X56896Y19812
X66421Y13335
X73457Y15926
X58674Y9017
X56261Y635
X72771Y635
X67691Y889
X61341Y635
X72136Y11303
X64516Y11430
X71628Y9271
X73406Y9271
X71501Y4445
X57531Y4445
X52451Y4445
X76581Y4445
X61747Y17551
X59182Y15875
X56896Y12192
X55626Y10795
X60960Y12192
X54991Y17780
X66822Y16269
X65024Y18288
X65126Y12878
X64491Y13521
X62256Y13310
X62992Y12903
X66992Y15431
X61189Y14935
X61493Y15723
X62078Y16332
X72771Y13970
X72771Y16510
X69088Y17145
X72009Y15748
X69088Y13335
X64008Y18288
X61925Y14529
X58166Y15875
X58420Y11049
X83439Y56261
X93269Y16993
X93980Y19812
X96774Y19812
X95428Y18644
X91948Y18212
X88976Y17704
X89814Y12878
X87884Y19812
X82804Y19812
X92329Y13335
X99365Y15926
X84582Y9017
X82169Y635
X98679Y635
X93599Y889
X87249Y635
X98044Y11303
X90424Y11430
X97536Y9271
X99314Y9271
X97409Y4445
X83439Y4445
X78359Y4445
X102489Y4445
X87655Y17551
X85090Y15875
X82804Y12192
X81534Y10795
X86868Y12192
X80899Y17780
X92730Y16269
X90932Y18288
X91034Y12878
X90399Y13521
X88164Y13310
X88900Y12903
X92900Y15431
X87097Y14935
X87401Y15723
X87986Y16332
X98679Y13970
X98679Y16510
X97917Y15748
X94996Y13335
X89916Y18288
X87833Y14529
X84074Y15875
X84328Y11049
X119177Y16993
X119888Y19812
X122682Y19812
X121336Y18644
X117856Y18212
X114884Y17704
X115722Y12878
X113792Y19812
X108712Y19812
X118237Y13335
X125273Y15926
X110490Y9017
X108077Y635
X124587Y635
X119507Y889
X113157Y635
X123952Y11303
X116332Y11430
X123444Y9271
X125222Y9271
X123317Y4445
X109347Y4445
X104267Y4445
X128397Y4445
X113563Y17551
X110998Y15875
X108712Y12192
X107442Y10795
X112776Y12192
X106807Y17780
X118638Y16269
X116840Y18288
X116942Y12878
X116307Y13521
X114072Y13310
X114808Y12903
X118808Y15431
X113005Y14935
X113309Y15723
X113894Y16332
X124587Y13970
X124587Y16510
X120904Y17145
X123825Y15748
X120904Y13335
X115824Y18288
X113741Y14529
X109982Y15875
X110236Y11049
X145085Y16993
X145796Y19812
X148590Y19812
X147244Y18644
X143764Y18212
X140792Y17704
X141630Y12878
X139700Y19812
X134620Y19812
X144145Y13335
X151181Y15926
X136398Y9017
X133985Y635
X150495Y635
X145415Y889
X139065Y635
X149860Y11303
X142240Y11430
X149352Y9271
X151130Y9271
X149225Y4445
X135255Y4445
X130175Y4445
X154305Y4445
X139471Y17551
X136906Y15875
X134620Y12192
X133350Y10795
X138684Y12192
X132715Y17780
X144546Y16269
X142748Y18288
X142850Y12878
X142215Y13521
X139980Y13310
X140716Y12903
X144716Y15431
X138913Y14935
X139217Y15723
X139802Y16332
X150495Y13970
X150495Y16510
X146812Y17145
X149733Y15748
X146812Y13335
X141732Y18288
X139649Y14529
X135890Y15875
X136144Y11049
X15545Y42901
X16256Y45720
X19050Y45720
X17704Y44552
X14224Y44120
X11252Y43612
X12090Y38786
X10160Y45720
X5080Y45720
X14605Y39243
X21641Y41834
X6858Y34925
X4445Y26543
X20955Y26543
X15875Y26797
X9525Y26543
X20320Y37211
X12700Y37338
X19812Y35179
X21590Y35179
X19685Y30353
X5715Y30353
X635Y30353
X24765Y30353
X9931Y43459
X7366Y41783
X5080Y38100
X3810Y36703
X9144Y38100
X3175Y43688
X15006Y42177
X13208Y44196
X13310Y38786
X12675Y39429
X10440Y39218
X11176Y38811
X15176Y41339
X9373Y40843
X9677Y41631
X10262Y42240
X20955Y39878
X20955Y42418
X141630Y90602
M30