M48
;GenerationSoftware,Autodesk,EAGLE,9.6.2*%
;CreationDate,2022-11-15T22:46:01Z*%
FMAT,2
ICI,OFF
METRIC,TZ,000.000
T3C0.305
T2C1.016
T1C3.302
%
G90
M71
T1
X48768Y28448
X2540Y2540
X22860Y2540
X22860Y22860
X2540Y22860
X28448Y2540
X48768Y2540
X48768Y22860
X28448Y22860
X54356Y2540
X74676Y2540
X74676Y22860
X54356Y22860
X2540Y28448
X22860Y28448
X22860Y48768
X2540Y48768
X28448Y28448
X54356Y74676
X48768Y48768
X28448Y48768
X54356Y28448
X74676Y28448
X74676Y48768
X54356Y48768
X2540Y54356
X22860Y54356
X22860Y74676
X2540Y74676
X28448Y54356
X48768Y54356
X48768Y74676
X28448Y74676
X54356Y54356
X74676Y54356
X74676Y74676
T2
X50038Y39878
X24130Y6350
X24130Y8890
X24130Y11430
X24130Y13970
X24130Y16510
X24130Y19050
X1270Y19050
X1270Y16510
X1270Y13970
X1270Y11430
X1270Y8890
X1270Y6350
X50038Y6350
X50038Y8890
X50038Y11430
X50038Y13970
X50038Y16510
X50038Y19050
X27178Y19050
X27178Y16510
X27178Y13970
X27178Y11430
X27178Y8890
X27178Y6350
X75946Y6350
X75946Y8890
X75946Y11430
X75946Y13970
X75946Y16510
X75946Y19050
X53086Y19050
X53086Y16510
X53086Y13970
X53086Y11430
X53086Y8890
X53086Y6350
X24130Y32258
X24130Y34798
X24130Y37338
X24130Y39878
X24130Y42418
X24130Y44958
X1270Y44958
X1270Y42418
X1270Y39878
X1270Y37338
X1270Y34798
X1270Y32258
X50038Y32258
X50038Y34798
X50038Y37338
X50038Y42418
X50038Y44958
X27178Y44958
X27178Y42418
X27178Y39878
X27178Y37338
X27178Y34798
X27178Y32258
X75946Y32258
X75946Y34798
X75946Y37338
X75946Y39878
X75946Y42418
X75946Y44958
X53086Y44958
X53086Y42418
X53086Y39878
X53086Y37338
X53086Y34798
X53086Y32258
X24130Y58166
X24130Y60706
X24130Y63246
X24130Y65786
X24130Y68326
X24130Y70866
X1270Y70866
X1270Y68326
X1270Y65786
X1270Y63246
X1270Y60706
X1270Y58166
X50038Y58166
X50038Y60706
X50038Y63246
X50038Y65786
X50038Y68326
X50038Y70866
X27178Y70866
X27178Y68326
X27178Y65786
X27178Y63246
X27178Y60706
X27178Y58166
X75946Y58166
X75946Y60706
X75946Y63246
X75946Y65786
X75946Y68326
X75946Y70866
X53086Y70866
X53086Y68326
X53086Y65786
X53086Y63246
X53086Y60706
X53086Y58166
T3
X36068Y43688
X30353Y26543
X46863Y26543
X50673Y30353
X35433Y26543
X41783Y26543
X48768Y33528
X45212Y41529
X44069Y45720
X43942Y34544
X45212Y42926
X30353Y41148
X31623Y36068
X39243Y37719
X35433Y36703
X40640Y43942
X43180Y44196
X41529Y44831
X26543Y30353
X35433Y44323
X41656Y42291
X41148Y38608
X43688Y37973
X41910Y41402
X40767Y42037
X43066Y35192
X54991Y45593
X68326Y45720
X61341Y45593
X67945Y43053
X67691Y39243
X73787Y38735
X70231Y36703
X63246Y39243
X61976Y43688
X56261Y26543
X72771Y26543
X76581Y30353
X61341Y26543
X67691Y26543
X74676Y33528
X71120Y41529
X69977Y45720
X69850Y34544
X71120Y42926
X56261Y41148
X57531Y36068
X65151Y37719
X61341Y36703
X66548Y43942
X69088Y44196
X67437Y44831
X52451Y30353
X61341Y44323
X67564Y42291
X67056Y38608
X69596Y37973
X67818Y41402
X66675Y42037
X68974Y35192
X3175Y71501
X16510Y71628
X9525Y71501
X16129Y68961
X15875Y65151
X21971Y64643
X18415Y62611
X11430Y65151
X10160Y69596
X4445Y52451
X20955Y52451
X24765Y56261
X9525Y52451
X15875Y52451
X22860Y59436
X19304Y67437
X18161Y71628
X18034Y60452
X19304Y68834
X4445Y67056
X5715Y61976
X35433Y10795
X9525Y62611
X14732Y69850
X17272Y70104
X15621Y70739
X635Y56261
X9525Y70231
X15748Y68199
X15240Y64516
X17780Y63881
X16002Y67310
X14859Y67945
X17158Y61100
X29083Y71501
X42418Y71628
X35433Y71501
X42037Y68961
X41783Y65151
X47879Y64643
X44323Y62611
X37338Y65151
X36068Y69596
X30353Y52451
X46863Y52451
X50673Y56261
X35433Y52451
X41783Y52451
X48768Y59436
X45212Y67437
X44069Y71628
X43942Y60452
X45212Y68834
X30353Y67056
X31623Y61976
X39243Y63627
X35433Y62611
X40640Y69850
X43180Y70104
X41529Y70739
X26543Y56261
X35433Y70231
X41656Y68199
X41148Y64516
X43688Y63881
X41910Y67310
X40767Y67945
X43066Y61100
X54991Y71501
X68326Y71628
X61341Y71501
X67945Y68961
X67691Y65151
X73787Y64643
X70231Y62611
X63246Y65151
X61976Y69596
X56261Y52451
X72771Y52451
X76581Y56261
X61341Y52451
X67691Y52451
X74676Y59436
X71120Y67437
X69977Y71628
X69850Y60452
X71120Y68834
X56261Y67056
X57531Y61976
X65151Y63627
X61341Y62611
X66548Y69850
X69088Y70104
X67437Y70739
X52451Y56261
X61341Y70231
X67564Y68199
X67056Y64516
X69596Y63881
X67818Y67310
X66675Y67945
X68974Y61100
X3175Y19685
X16510Y19812
X9525Y19685
X16129Y17145
X15875Y13335
X21971Y12827
X18415Y10795
X11430Y13335
X10160Y17780
X4445Y635
X20955Y635
X24765Y4445
X9525Y635
X15875Y635
X22860Y7620
X19304Y15621
X18161Y19812
X18034Y8636
X19304Y17018
X4445Y15240
X5715Y10160
X13335Y11811
X9525Y10795
X14732Y18034
X17272Y18288
X15621Y18923
X635Y4445
X9525Y18415
X15748Y16383
X15240Y12700
X17780Y12065
X16002Y15494
X14859Y16129
X17158Y9284
X29083Y19685
X42418Y19812
X35433Y19685
X42037Y17145
X41783Y13335
X47879Y12827
X44323Y10795
X37338Y13335
X36068Y17780
X30353Y635
X46863Y635
X50673Y4445
X35433Y635
X41783Y635
X48768Y7620
X45212Y15621
X44069Y19812
X43942Y8636
X45212Y17018
X30353Y15240
X31623Y10160
X39243Y11811
X40640Y18034
X43180Y18288
X41529Y18923
X26543Y4445
X35433Y18415
X41656Y16383
X41148Y12700
X43688Y12065
X41910Y15494
X40767Y16129
X43066Y9284
X54991Y19685
X68326Y19812
X61341Y19685
X67945Y17145
X67691Y13335
X73787Y12827
X70231Y10795
X63246Y13335
X61976Y17780
X56261Y635
X72771Y635
X76581Y4445
X61341Y635
X67691Y635
X74676Y7620
X71120Y15621
X69977Y19812
X69850Y8636
X71120Y17018
X56261Y15240
X13335Y63627
X57531Y10160
X65151Y11811
X61341Y10795
X66548Y18034
X69088Y18288
X67437Y18923
X52451Y4445
X61341Y18415
X67564Y16383
X67056Y12700
X69596Y12065
X67818Y15494
X66675Y16129
X68974Y9284
X3175Y45593
X16510Y45720
X9525Y45593
X16129Y43053
X15875Y39243
X21971Y38735
X18415Y36703
X11430Y39243
X10160Y43688
X4445Y26543
X20955Y26543
X24765Y30353
X9525Y26543
X15875Y26543
X22860Y33528
X19304Y41529
X18161Y45720
X18034Y34544
X19304Y42926
X4445Y41148
X5715Y36068
X13335Y37719
X9525Y36703
X14732Y43942
X17272Y44196
X15621Y44831
X635Y30353
X9525Y44323
X15748Y42291
X15240Y38608
X17780Y37973
X16002Y41402
X14859Y42037
X17158Y35192
X29083Y45593
X42418Y45720
X35433Y45593
X42037Y43053
X41783Y39243
X47879Y38735
X44323Y36703
X37338Y39243
M30