G04 EAGLE Gerber RS-274X export*
G75*
%MOMM*%
%FSLAX34Y34*%
%LPD*%
%INSoldermask Bottom*%
%IPPOS*%
%AMOC8*
5,1,8,0,0,1.08239X$1,22.5*%
G01*
%ADD10C,2.032000*%
%ADD11C,3.454400*%
%ADD12C,1.152400*%
%ADD13C,0.251966*%
%ADD14C,1.270000*%
%ADD15C,1.652400*%

G36*
X647130Y675017D02*
X647130Y675017D01*
X647196Y675019D01*
X647239Y675037D01*
X647286Y675045D01*
X647343Y675079D01*
X647403Y675104D01*
X647438Y675135D01*
X647479Y675160D01*
X647521Y675211D01*
X647569Y675255D01*
X647591Y675297D01*
X647620Y675334D01*
X647641Y675396D01*
X647672Y675455D01*
X647680Y675509D01*
X647692Y675546D01*
X647691Y675586D01*
X647699Y675640D01*
X647699Y678180D01*
X647688Y678245D01*
X647686Y678311D01*
X647668Y678354D01*
X647660Y678401D01*
X647626Y678458D01*
X647601Y678518D01*
X647570Y678553D01*
X647545Y678594D01*
X647494Y678636D01*
X647450Y678684D01*
X647408Y678706D01*
X647371Y678735D01*
X647309Y678756D01*
X647250Y678787D01*
X647196Y678795D01*
X647159Y678807D01*
X647119Y678806D01*
X647065Y678814D01*
X643255Y678814D01*
X643190Y678803D01*
X643124Y678801D01*
X643081Y678783D01*
X643034Y678775D01*
X642977Y678741D01*
X642917Y678716D01*
X642882Y678685D01*
X642841Y678660D01*
X642800Y678609D01*
X642751Y678565D01*
X642729Y678523D01*
X642700Y678486D01*
X642679Y678424D01*
X642648Y678365D01*
X642640Y678311D01*
X642628Y678274D01*
X642628Y678271D01*
X642629Y678234D01*
X642621Y678180D01*
X642621Y675640D01*
X642632Y675575D01*
X642634Y675509D01*
X642652Y675466D01*
X642660Y675419D01*
X642694Y675362D01*
X642719Y675302D01*
X642750Y675267D01*
X642775Y675226D01*
X642826Y675185D01*
X642870Y675136D01*
X642912Y675114D01*
X642949Y675085D01*
X643011Y675064D01*
X643070Y675033D01*
X643124Y675025D01*
X643161Y675013D01*
X643201Y675014D01*
X643255Y675006D01*
X647065Y675006D01*
X647130Y675017D01*
G37*
G36*
X388050Y675017D02*
X388050Y675017D01*
X388116Y675019D01*
X388159Y675037D01*
X388206Y675045D01*
X388263Y675079D01*
X388323Y675104D01*
X388358Y675135D01*
X388399Y675160D01*
X388441Y675211D01*
X388489Y675255D01*
X388511Y675297D01*
X388540Y675334D01*
X388561Y675396D01*
X388592Y675455D01*
X388600Y675509D01*
X388612Y675546D01*
X388611Y675586D01*
X388619Y675640D01*
X388619Y678180D01*
X388608Y678245D01*
X388606Y678311D01*
X388588Y678354D01*
X388580Y678401D01*
X388546Y678458D01*
X388521Y678518D01*
X388490Y678553D01*
X388465Y678594D01*
X388414Y678636D01*
X388370Y678684D01*
X388328Y678706D01*
X388291Y678735D01*
X388229Y678756D01*
X388170Y678787D01*
X388116Y678795D01*
X388079Y678807D01*
X388039Y678806D01*
X387985Y678814D01*
X384175Y678814D01*
X384110Y678803D01*
X384044Y678801D01*
X384001Y678783D01*
X383954Y678775D01*
X383897Y678741D01*
X383837Y678716D01*
X383802Y678685D01*
X383761Y678660D01*
X383720Y678609D01*
X383671Y678565D01*
X383649Y678523D01*
X383620Y678486D01*
X383599Y678424D01*
X383568Y678365D01*
X383560Y678311D01*
X383548Y678274D01*
X383548Y678271D01*
X383549Y678234D01*
X383541Y678180D01*
X383541Y675640D01*
X383552Y675575D01*
X383554Y675509D01*
X383572Y675466D01*
X383580Y675419D01*
X383614Y675362D01*
X383639Y675302D01*
X383670Y675267D01*
X383695Y675226D01*
X383746Y675185D01*
X383790Y675136D01*
X383832Y675114D01*
X383869Y675085D01*
X383931Y675064D01*
X383990Y675033D01*
X384044Y675025D01*
X384081Y675013D01*
X384121Y675014D01*
X384175Y675006D01*
X387985Y675006D01*
X388050Y675017D01*
G37*
G36*
X128970Y675017D02*
X128970Y675017D01*
X129036Y675019D01*
X129079Y675037D01*
X129126Y675045D01*
X129183Y675079D01*
X129243Y675104D01*
X129278Y675135D01*
X129319Y675160D01*
X129361Y675211D01*
X129409Y675255D01*
X129431Y675297D01*
X129460Y675334D01*
X129481Y675396D01*
X129512Y675455D01*
X129520Y675509D01*
X129532Y675546D01*
X129531Y675586D01*
X129539Y675640D01*
X129539Y678180D01*
X129528Y678245D01*
X129526Y678311D01*
X129508Y678354D01*
X129500Y678401D01*
X129466Y678458D01*
X129441Y678518D01*
X129410Y678553D01*
X129385Y678594D01*
X129334Y678636D01*
X129290Y678684D01*
X129248Y678706D01*
X129211Y678735D01*
X129149Y678756D01*
X129090Y678787D01*
X129036Y678795D01*
X128999Y678807D01*
X128959Y678806D01*
X128905Y678814D01*
X125095Y678814D01*
X125030Y678803D01*
X124964Y678801D01*
X124921Y678783D01*
X124874Y678775D01*
X124817Y678741D01*
X124757Y678716D01*
X124722Y678685D01*
X124681Y678660D01*
X124640Y678609D01*
X124591Y678565D01*
X124569Y678523D01*
X124540Y678486D01*
X124519Y678424D01*
X124488Y678365D01*
X124480Y678311D01*
X124468Y678274D01*
X124468Y678271D01*
X124469Y678234D01*
X124461Y678180D01*
X124461Y675640D01*
X124472Y675575D01*
X124474Y675509D01*
X124492Y675466D01*
X124500Y675419D01*
X124534Y675362D01*
X124559Y675302D01*
X124590Y675267D01*
X124615Y675226D01*
X124666Y675185D01*
X124710Y675136D01*
X124752Y675114D01*
X124789Y675085D01*
X124851Y675064D01*
X124910Y675033D01*
X124964Y675025D01*
X125001Y675013D01*
X125041Y675014D01*
X125095Y675006D01*
X128905Y675006D01*
X128970Y675017D01*
G37*
G36*
X128970Y617867D02*
X128970Y617867D01*
X129036Y617869D01*
X129079Y617887D01*
X129126Y617895D01*
X129183Y617929D01*
X129243Y617954D01*
X129278Y617985D01*
X129319Y618010D01*
X129361Y618061D01*
X129409Y618105D01*
X129431Y618147D01*
X129460Y618184D01*
X129481Y618246D01*
X129512Y618305D01*
X129520Y618359D01*
X129532Y618396D01*
X129531Y618436D01*
X129539Y618490D01*
X129539Y621030D01*
X129528Y621095D01*
X129526Y621161D01*
X129508Y621204D01*
X129500Y621251D01*
X129466Y621308D01*
X129441Y621368D01*
X129410Y621403D01*
X129385Y621444D01*
X129334Y621486D01*
X129290Y621534D01*
X129248Y621556D01*
X129211Y621585D01*
X129149Y621606D01*
X129090Y621637D01*
X129036Y621645D01*
X128999Y621657D01*
X128959Y621656D01*
X128905Y621664D01*
X125095Y621664D01*
X125030Y621653D01*
X124964Y621651D01*
X124921Y621633D01*
X124874Y621625D01*
X124817Y621591D01*
X124757Y621566D01*
X124722Y621535D01*
X124681Y621510D01*
X124640Y621459D01*
X124591Y621415D01*
X124569Y621373D01*
X124540Y621336D01*
X124519Y621274D01*
X124488Y621215D01*
X124480Y621161D01*
X124468Y621124D01*
X124468Y621121D01*
X124469Y621084D01*
X124461Y621030D01*
X124461Y618490D01*
X124472Y618425D01*
X124474Y618359D01*
X124492Y618316D01*
X124500Y618269D01*
X124534Y618212D01*
X124559Y618152D01*
X124590Y618117D01*
X124615Y618076D01*
X124666Y618035D01*
X124710Y617986D01*
X124752Y617964D01*
X124789Y617935D01*
X124851Y617914D01*
X124910Y617883D01*
X124964Y617875D01*
X125001Y617863D01*
X125041Y617864D01*
X125095Y617856D01*
X128905Y617856D01*
X128970Y617867D01*
G37*
G36*
X647130Y617867D02*
X647130Y617867D01*
X647196Y617869D01*
X647239Y617887D01*
X647286Y617895D01*
X647343Y617929D01*
X647403Y617954D01*
X647438Y617985D01*
X647479Y618010D01*
X647521Y618061D01*
X647569Y618105D01*
X647591Y618147D01*
X647620Y618184D01*
X647641Y618246D01*
X647672Y618305D01*
X647680Y618359D01*
X647692Y618396D01*
X647691Y618436D01*
X647699Y618490D01*
X647699Y621030D01*
X647688Y621095D01*
X647686Y621161D01*
X647668Y621204D01*
X647660Y621251D01*
X647626Y621308D01*
X647601Y621368D01*
X647570Y621403D01*
X647545Y621444D01*
X647494Y621486D01*
X647450Y621534D01*
X647408Y621556D01*
X647371Y621585D01*
X647309Y621606D01*
X647250Y621637D01*
X647196Y621645D01*
X647159Y621657D01*
X647119Y621656D01*
X647065Y621664D01*
X643255Y621664D01*
X643190Y621653D01*
X643124Y621651D01*
X643081Y621633D01*
X643034Y621625D01*
X642977Y621591D01*
X642917Y621566D01*
X642882Y621535D01*
X642841Y621510D01*
X642800Y621459D01*
X642751Y621415D01*
X642729Y621373D01*
X642700Y621336D01*
X642679Y621274D01*
X642648Y621215D01*
X642640Y621161D01*
X642628Y621124D01*
X642628Y621121D01*
X642629Y621084D01*
X642621Y621030D01*
X642621Y618490D01*
X642632Y618425D01*
X642634Y618359D01*
X642652Y618316D01*
X642660Y618269D01*
X642694Y618212D01*
X642719Y618152D01*
X642750Y618117D01*
X642775Y618076D01*
X642826Y618035D01*
X642870Y617986D01*
X642912Y617964D01*
X642949Y617935D01*
X643011Y617914D01*
X643070Y617883D01*
X643124Y617875D01*
X643161Y617863D01*
X643201Y617864D01*
X643255Y617856D01*
X647065Y617856D01*
X647130Y617867D01*
G37*
G36*
X388050Y617867D02*
X388050Y617867D01*
X388116Y617869D01*
X388159Y617887D01*
X388206Y617895D01*
X388263Y617929D01*
X388323Y617954D01*
X388358Y617985D01*
X388399Y618010D01*
X388441Y618061D01*
X388489Y618105D01*
X388511Y618147D01*
X388540Y618184D01*
X388561Y618246D01*
X388592Y618305D01*
X388600Y618359D01*
X388612Y618396D01*
X388611Y618436D01*
X388619Y618490D01*
X388619Y621030D01*
X388608Y621095D01*
X388606Y621161D01*
X388588Y621204D01*
X388580Y621251D01*
X388546Y621308D01*
X388521Y621368D01*
X388490Y621403D01*
X388465Y621444D01*
X388414Y621486D01*
X388370Y621534D01*
X388328Y621556D01*
X388291Y621585D01*
X388229Y621606D01*
X388170Y621637D01*
X388116Y621645D01*
X388079Y621657D01*
X388039Y621656D01*
X387985Y621664D01*
X384175Y621664D01*
X384110Y621653D01*
X384044Y621651D01*
X384001Y621633D01*
X383954Y621625D01*
X383897Y621591D01*
X383837Y621566D01*
X383802Y621535D01*
X383761Y621510D01*
X383720Y621459D01*
X383671Y621415D01*
X383649Y621373D01*
X383620Y621336D01*
X383599Y621274D01*
X383568Y621215D01*
X383560Y621161D01*
X383548Y621124D01*
X383548Y621121D01*
X383549Y621084D01*
X383541Y621030D01*
X383541Y618490D01*
X383552Y618425D01*
X383554Y618359D01*
X383572Y618316D01*
X383580Y618269D01*
X383614Y618212D01*
X383639Y618152D01*
X383670Y618117D01*
X383695Y618076D01*
X383746Y618035D01*
X383790Y617986D01*
X383832Y617964D01*
X383869Y617935D01*
X383931Y617914D01*
X383990Y617883D01*
X384044Y617875D01*
X384081Y617863D01*
X384121Y617864D01*
X384175Y617856D01*
X387985Y617856D01*
X388050Y617867D01*
G37*
G36*
X647130Y415937D02*
X647130Y415937D01*
X647196Y415939D01*
X647239Y415957D01*
X647286Y415965D01*
X647343Y415999D01*
X647403Y416024D01*
X647438Y416055D01*
X647479Y416080D01*
X647521Y416131D01*
X647569Y416175D01*
X647591Y416217D01*
X647620Y416254D01*
X647641Y416316D01*
X647672Y416375D01*
X647680Y416429D01*
X647692Y416466D01*
X647691Y416506D01*
X647699Y416560D01*
X647699Y419100D01*
X647688Y419165D01*
X647686Y419231D01*
X647668Y419274D01*
X647660Y419321D01*
X647626Y419378D01*
X647601Y419438D01*
X647570Y419473D01*
X647545Y419514D01*
X647494Y419556D01*
X647450Y419604D01*
X647408Y419626D01*
X647371Y419655D01*
X647309Y419676D01*
X647250Y419707D01*
X647196Y419715D01*
X647159Y419727D01*
X647119Y419726D01*
X647065Y419734D01*
X643255Y419734D01*
X643190Y419723D01*
X643124Y419721D01*
X643081Y419703D01*
X643034Y419695D01*
X642977Y419661D01*
X642917Y419636D01*
X642882Y419605D01*
X642841Y419580D01*
X642800Y419529D01*
X642751Y419485D01*
X642729Y419443D01*
X642700Y419406D01*
X642679Y419344D01*
X642648Y419285D01*
X642640Y419231D01*
X642628Y419194D01*
X642628Y419191D01*
X642629Y419154D01*
X642621Y419100D01*
X642621Y416560D01*
X642632Y416495D01*
X642634Y416429D01*
X642652Y416386D01*
X642660Y416339D01*
X642694Y416282D01*
X642719Y416222D01*
X642750Y416187D01*
X642775Y416146D01*
X642826Y416105D01*
X642870Y416056D01*
X642912Y416034D01*
X642949Y416005D01*
X643011Y415984D01*
X643070Y415953D01*
X643124Y415945D01*
X643161Y415933D01*
X643201Y415934D01*
X643255Y415926D01*
X647065Y415926D01*
X647130Y415937D01*
G37*
G36*
X128970Y415937D02*
X128970Y415937D01*
X129036Y415939D01*
X129079Y415957D01*
X129126Y415965D01*
X129183Y415999D01*
X129243Y416024D01*
X129278Y416055D01*
X129319Y416080D01*
X129361Y416131D01*
X129409Y416175D01*
X129431Y416217D01*
X129460Y416254D01*
X129481Y416316D01*
X129512Y416375D01*
X129520Y416429D01*
X129532Y416466D01*
X129531Y416506D01*
X129539Y416560D01*
X129539Y419100D01*
X129528Y419165D01*
X129526Y419231D01*
X129508Y419274D01*
X129500Y419321D01*
X129466Y419378D01*
X129441Y419438D01*
X129410Y419473D01*
X129385Y419514D01*
X129334Y419556D01*
X129290Y419604D01*
X129248Y419626D01*
X129211Y419655D01*
X129149Y419676D01*
X129090Y419707D01*
X129036Y419715D01*
X128999Y419727D01*
X128959Y419726D01*
X128905Y419734D01*
X125095Y419734D01*
X125030Y419723D01*
X124964Y419721D01*
X124921Y419703D01*
X124874Y419695D01*
X124817Y419661D01*
X124757Y419636D01*
X124722Y419605D01*
X124681Y419580D01*
X124640Y419529D01*
X124591Y419485D01*
X124569Y419443D01*
X124540Y419406D01*
X124519Y419344D01*
X124488Y419285D01*
X124480Y419231D01*
X124468Y419194D01*
X124468Y419191D01*
X124469Y419154D01*
X124461Y419100D01*
X124461Y416560D01*
X124472Y416495D01*
X124474Y416429D01*
X124492Y416386D01*
X124500Y416339D01*
X124534Y416282D01*
X124559Y416222D01*
X124590Y416187D01*
X124615Y416146D01*
X124666Y416105D01*
X124710Y416056D01*
X124752Y416034D01*
X124789Y416005D01*
X124851Y415984D01*
X124910Y415953D01*
X124964Y415945D01*
X125001Y415933D01*
X125041Y415934D01*
X125095Y415926D01*
X128905Y415926D01*
X128970Y415937D01*
G37*
G36*
X388050Y415937D02*
X388050Y415937D01*
X388116Y415939D01*
X388159Y415957D01*
X388206Y415965D01*
X388263Y415999D01*
X388323Y416024D01*
X388358Y416055D01*
X388399Y416080D01*
X388441Y416131D01*
X388489Y416175D01*
X388511Y416217D01*
X388540Y416254D01*
X388561Y416316D01*
X388592Y416375D01*
X388600Y416429D01*
X388612Y416466D01*
X388611Y416506D01*
X388619Y416560D01*
X388619Y419100D01*
X388608Y419165D01*
X388606Y419231D01*
X388588Y419274D01*
X388580Y419321D01*
X388546Y419378D01*
X388521Y419438D01*
X388490Y419473D01*
X388465Y419514D01*
X388414Y419556D01*
X388370Y419604D01*
X388328Y419626D01*
X388291Y419655D01*
X388229Y419676D01*
X388170Y419707D01*
X388116Y419715D01*
X388079Y419727D01*
X388039Y419726D01*
X387985Y419734D01*
X384175Y419734D01*
X384110Y419723D01*
X384044Y419721D01*
X384001Y419703D01*
X383954Y419695D01*
X383897Y419661D01*
X383837Y419636D01*
X383802Y419605D01*
X383761Y419580D01*
X383720Y419529D01*
X383671Y419485D01*
X383649Y419443D01*
X383620Y419406D01*
X383599Y419344D01*
X383568Y419285D01*
X383560Y419231D01*
X383548Y419194D01*
X383548Y419191D01*
X383549Y419154D01*
X383541Y419100D01*
X383541Y416560D01*
X383552Y416495D01*
X383554Y416429D01*
X383572Y416386D01*
X383580Y416339D01*
X383614Y416282D01*
X383639Y416222D01*
X383670Y416187D01*
X383695Y416146D01*
X383746Y416105D01*
X383790Y416056D01*
X383832Y416034D01*
X383869Y416005D01*
X383931Y415984D01*
X383990Y415953D01*
X384044Y415945D01*
X384081Y415933D01*
X384121Y415934D01*
X384175Y415926D01*
X387985Y415926D01*
X388050Y415937D01*
G37*
G36*
X647130Y358787D02*
X647130Y358787D01*
X647196Y358789D01*
X647239Y358807D01*
X647286Y358815D01*
X647343Y358849D01*
X647403Y358874D01*
X647438Y358905D01*
X647479Y358930D01*
X647521Y358981D01*
X647569Y359025D01*
X647591Y359067D01*
X647620Y359104D01*
X647641Y359166D01*
X647672Y359225D01*
X647680Y359279D01*
X647692Y359316D01*
X647691Y359356D01*
X647699Y359410D01*
X647699Y361950D01*
X647688Y362015D01*
X647686Y362081D01*
X647668Y362124D01*
X647660Y362171D01*
X647626Y362228D01*
X647601Y362288D01*
X647570Y362323D01*
X647545Y362364D01*
X647494Y362406D01*
X647450Y362454D01*
X647408Y362476D01*
X647371Y362505D01*
X647309Y362526D01*
X647250Y362557D01*
X647196Y362565D01*
X647159Y362577D01*
X647119Y362576D01*
X647065Y362584D01*
X643255Y362584D01*
X643190Y362573D01*
X643124Y362571D01*
X643081Y362553D01*
X643034Y362545D01*
X642977Y362511D01*
X642917Y362486D01*
X642882Y362455D01*
X642841Y362430D01*
X642800Y362379D01*
X642751Y362335D01*
X642729Y362293D01*
X642700Y362256D01*
X642679Y362194D01*
X642648Y362135D01*
X642640Y362081D01*
X642628Y362044D01*
X642628Y362041D01*
X642629Y362004D01*
X642621Y361950D01*
X642621Y359410D01*
X642632Y359345D01*
X642634Y359279D01*
X642652Y359236D01*
X642660Y359189D01*
X642694Y359132D01*
X642719Y359072D01*
X642750Y359037D01*
X642775Y358996D01*
X642826Y358955D01*
X642870Y358906D01*
X642912Y358884D01*
X642949Y358855D01*
X643011Y358834D01*
X643070Y358803D01*
X643124Y358795D01*
X643161Y358783D01*
X643201Y358784D01*
X643255Y358776D01*
X647065Y358776D01*
X647130Y358787D01*
G37*
G36*
X388050Y358787D02*
X388050Y358787D01*
X388116Y358789D01*
X388159Y358807D01*
X388206Y358815D01*
X388263Y358849D01*
X388323Y358874D01*
X388358Y358905D01*
X388399Y358930D01*
X388441Y358981D01*
X388489Y359025D01*
X388511Y359067D01*
X388540Y359104D01*
X388561Y359166D01*
X388592Y359225D01*
X388600Y359279D01*
X388612Y359316D01*
X388611Y359356D01*
X388619Y359410D01*
X388619Y361950D01*
X388608Y362015D01*
X388606Y362081D01*
X388588Y362124D01*
X388580Y362171D01*
X388546Y362228D01*
X388521Y362288D01*
X388490Y362323D01*
X388465Y362364D01*
X388414Y362406D01*
X388370Y362454D01*
X388328Y362476D01*
X388291Y362505D01*
X388229Y362526D01*
X388170Y362557D01*
X388116Y362565D01*
X388079Y362577D01*
X388039Y362576D01*
X387985Y362584D01*
X384175Y362584D01*
X384110Y362573D01*
X384044Y362571D01*
X384001Y362553D01*
X383954Y362545D01*
X383897Y362511D01*
X383837Y362486D01*
X383802Y362455D01*
X383761Y362430D01*
X383720Y362379D01*
X383671Y362335D01*
X383649Y362293D01*
X383620Y362256D01*
X383599Y362194D01*
X383568Y362135D01*
X383560Y362081D01*
X383548Y362044D01*
X383548Y362041D01*
X383549Y362004D01*
X383541Y361950D01*
X383541Y359410D01*
X383552Y359345D01*
X383554Y359279D01*
X383572Y359236D01*
X383580Y359189D01*
X383614Y359132D01*
X383639Y359072D01*
X383670Y359037D01*
X383695Y358996D01*
X383746Y358955D01*
X383790Y358906D01*
X383832Y358884D01*
X383869Y358855D01*
X383931Y358834D01*
X383990Y358803D01*
X384044Y358795D01*
X384081Y358783D01*
X384121Y358784D01*
X384175Y358776D01*
X387985Y358776D01*
X388050Y358787D01*
G37*
G36*
X128970Y358787D02*
X128970Y358787D01*
X129036Y358789D01*
X129079Y358807D01*
X129126Y358815D01*
X129183Y358849D01*
X129243Y358874D01*
X129278Y358905D01*
X129319Y358930D01*
X129361Y358981D01*
X129409Y359025D01*
X129431Y359067D01*
X129460Y359104D01*
X129481Y359166D01*
X129512Y359225D01*
X129520Y359279D01*
X129532Y359316D01*
X129531Y359356D01*
X129539Y359410D01*
X129539Y361950D01*
X129528Y362015D01*
X129526Y362081D01*
X129508Y362124D01*
X129500Y362171D01*
X129466Y362228D01*
X129441Y362288D01*
X129410Y362323D01*
X129385Y362364D01*
X129334Y362406D01*
X129290Y362454D01*
X129248Y362476D01*
X129211Y362505D01*
X129149Y362526D01*
X129090Y362557D01*
X129036Y362565D01*
X128999Y362577D01*
X128959Y362576D01*
X128905Y362584D01*
X125095Y362584D01*
X125030Y362573D01*
X124964Y362571D01*
X124921Y362553D01*
X124874Y362545D01*
X124817Y362511D01*
X124757Y362486D01*
X124722Y362455D01*
X124681Y362430D01*
X124640Y362379D01*
X124591Y362335D01*
X124569Y362293D01*
X124540Y362256D01*
X124519Y362194D01*
X124488Y362135D01*
X124480Y362081D01*
X124468Y362044D01*
X124468Y362041D01*
X124469Y362004D01*
X124461Y361950D01*
X124461Y359410D01*
X124472Y359345D01*
X124474Y359279D01*
X124492Y359236D01*
X124500Y359189D01*
X124534Y359132D01*
X124559Y359072D01*
X124590Y359037D01*
X124615Y358996D01*
X124666Y358955D01*
X124710Y358906D01*
X124752Y358884D01*
X124789Y358855D01*
X124851Y358834D01*
X124910Y358803D01*
X124964Y358795D01*
X125001Y358783D01*
X125041Y358784D01*
X125095Y358776D01*
X128905Y358776D01*
X128970Y358787D01*
G37*
G36*
X647130Y156857D02*
X647130Y156857D01*
X647196Y156859D01*
X647239Y156877D01*
X647286Y156885D01*
X647343Y156919D01*
X647403Y156944D01*
X647438Y156975D01*
X647479Y157000D01*
X647521Y157051D01*
X647569Y157095D01*
X647591Y157137D01*
X647620Y157174D01*
X647641Y157236D01*
X647672Y157295D01*
X647680Y157349D01*
X647692Y157386D01*
X647691Y157426D01*
X647699Y157480D01*
X647699Y160020D01*
X647688Y160085D01*
X647686Y160151D01*
X647668Y160194D01*
X647660Y160241D01*
X647626Y160298D01*
X647601Y160358D01*
X647570Y160393D01*
X647545Y160434D01*
X647494Y160476D01*
X647450Y160524D01*
X647408Y160546D01*
X647371Y160575D01*
X647309Y160596D01*
X647250Y160627D01*
X647196Y160635D01*
X647159Y160647D01*
X647119Y160646D01*
X647065Y160654D01*
X643255Y160654D01*
X643190Y160643D01*
X643124Y160641D01*
X643081Y160623D01*
X643034Y160615D01*
X642977Y160581D01*
X642917Y160556D01*
X642882Y160525D01*
X642841Y160500D01*
X642800Y160449D01*
X642751Y160405D01*
X642729Y160363D01*
X642700Y160326D01*
X642679Y160264D01*
X642648Y160205D01*
X642640Y160151D01*
X642628Y160114D01*
X642628Y160111D01*
X642629Y160074D01*
X642621Y160020D01*
X642621Y157480D01*
X642632Y157415D01*
X642634Y157349D01*
X642652Y157306D01*
X642660Y157259D01*
X642694Y157202D01*
X642719Y157142D01*
X642750Y157107D01*
X642775Y157066D01*
X642826Y157025D01*
X642870Y156976D01*
X642912Y156954D01*
X642949Y156925D01*
X643011Y156904D01*
X643070Y156873D01*
X643124Y156865D01*
X643161Y156853D01*
X643201Y156854D01*
X643255Y156846D01*
X647065Y156846D01*
X647130Y156857D01*
G37*
G36*
X388050Y156857D02*
X388050Y156857D01*
X388116Y156859D01*
X388159Y156877D01*
X388206Y156885D01*
X388263Y156919D01*
X388323Y156944D01*
X388358Y156975D01*
X388399Y157000D01*
X388441Y157051D01*
X388489Y157095D01*
X388511Y157137D01*
X388540Y157174D01*
X388561Y157236D01*
X388592Y157295D01*
X388600Y157349D01*
X388612Y157386D01*
X388611Y157426D01*
X388619Y157480D01*
X388619Y160020D01*
X388608Y160085D01*
X388606Y160151D01*
X388588Y160194D01*
X388580Y160241D01*
X388546Y160298D01*
X388521Y160358D01*
X388490Y160393D01*
X388465Y160434D01*
X388414Y160476D01*
X388370Y160524D01*
X388328Y160546D01*
X388291Y160575D01*
X388229Y160596D01*
X388170Y160627D01*
X388116Y160635D01*
X388079Y160647D01*
X388039Y160646D01*
X387985Y160654D01*
X384175Y160654D01*
X384110Y160643D01*
X384044Y160641D01*
X384001Y160623D01*
X383954Y160615D01*
X383897Y160581D01*
X383837Y160556D01*
X383802Y160525D01*
X383761Y160500D01*
X383720Y160449D01*
X383671Y160405D01*
X383649Y160363D01*
X383620Y160326D01*
X383599Y160264D01*
X383568Y160205D01*
X383560Y160151D01*
X383548Y160114D01*
X383548Y160111D01*
X383549Y160074D01*
X383541Y160020D01*
X383541Y157480D01*
X383552Y157415D01*
X383554Y157349D01*
X383572Y157306D01*
X383580Y157259D01*
X383614Y157202D01*
X383639Y157142D01*
X383670Y157107D01*
X383695Y157066D01*
X383746Y157025D01*
X383790Y156976D01*
X383832Y156954D01*
X383869Y156925D01*
X383931Y156904D01*
X383990Y156873D01*
X384044Y156865D01*
X384081Y156853D01*
X384121Y156854D01*
X384175Y156846D01*
X387985Y156846D01*
X388050Y156857D01*
G37*
G36*
X128970Y156857D02*
X128970Y156857D01*
X129036Y156859D01*
X129079Y156877D01*
X129126Y156885D01*
X129183Y156919D01*
X129243Y156944D01*
X129278Y156975D01*
X129319Y157000D01*
X129361Y157051D01*
X129409Y157095D01*
X129431Y157137D01*
X129460Y157174D01*
X129481Y157236D01*
X129512Y157295D01*
X129520Y157349D01*
X129532Y157386D01*
X129531Y157426D01*
X129539Y157480D01*
X129539Y160020D01*
X129528Y160085D01*
X129526Y160151D01*
X129508Y160194D01*
X129500Y160241D01*
X129466Y160298D01*
X129441Y160358D01*
X129410Y160393D01*
X129385Y160434D01*
X129334Y160476D01*
X129290Y160524D01*
X129248Y160546D01*
X129211Y160575D01*
X129149Y160596D01*
X129090Y160627D01*
X129036Y160635D01*
X128999Y160647D01*
X128959Y160646D01*
X128905Y160654D01*
X125095Y160654D01*
X125030Y160643D01*
X124964Y160641D01*
X124921Y160623D01*
X124874Y160615D01*
X124817Y160581D01*
X124757Y160556D01*
X124722Y160525D01*
X124681Y160500D01*
X124640Y160449D01*
X124591Y160405D01*
X124569Y160363D01*
X124540Y160326D01*
X124519Y160264D01*
X124488Y160205D01*
X124480Y160151D01*
X124468Y160114D01*
X124468Y160111D01*
X124469Y160074D01*
X124461Y160020D01*
X124461Y157480D01*
X124472Y157415D01*
X124474Y157349D01*
X124492Y157306D01*
X124500Y157259D01*
X124534Y157202D01*
X124559Y157142D01*
X124590Y157107D01*
X124615Y157066D01*
X124666Y157025D01*
X124710Y156976D01*
X124752Y156954D01*
X124789Y156925D01*
X124851Y156904D01*
X124910Y156873D01*
X124964Y156865D01*
X125001Y156853D01*
X125041Y156854D01*
X125095Y156846D01*
X128905Y156846D01*
X128970Y156857D01*
G37*
G36*
X647130Y99707D02*
X647130Y99707D01*
X647196Y99709D01*
X647239Y99727D01*
X647286Y99735D01*
X647343Y99769D01*
X647403Y99794D01*
X647438Y99825D01*
X647479Y99850D01*
X647521Y99901D01*
X647569Y99945D01*
X647591Y99987D01*
X647620Y100024D01*
X647641Y100086D01*
X647672Y100145D01*
X647680Y100199D01*
X647692Y100236D01*
X647691Y100276D01*
X647699Y100330D01*
X647699Y102870D01*
X647688Y102935D01*
X647686Y103001D01*
X647668Y103044D01*
X647660Y103091D01*
X647626Y103148D01*
X647601Y103208D01*
X647570Y103243D01*
X647545Y103284D01*
X647494Y103326D01*
X647450Y103374D01*
X647408Y103396D01*
X647371Y103425D01*
X647309Y103446D01*
X647250Y103477D01*
X647196Y103485D01*
X647159Y103497D01*
X647119Y103496D01*
X647065Y103504D01*
X643255Y103504D01*
X643190Y103493D01*
X643124Y103491D01*
X643081Y103473D01*
X643034Y103465D01*
X642977Y103431D01*
X642917Y103406D01*
X642882Y103375D01*
X642841Y103350D01*
X642800Y103299D01*
X642751Y103255D01*
X642729Y103213D01*
X642700Y103176D01*
X642679Y103114D01*
X642648Y103055D01*
X642640Y103001D01*
X642628Y102964D01*
X642628Y102961D01*
X642629Y102924D01*
X642621Y102870D01*
X642621Y100330D01*
X642632Y100265D01*
X642634Y100199D01*
X642652Y100156D01*
X642660Y100109D01*
X642694Y100052D01*
X642719Y99992D01*
X642750Y99957D01*
X642775Y99916D01*
X642826Y99875D01*
X642870Y99826D01*
X642912Y99804D01*
X642949Y99775D01*
X643011Y99754D01*
X643070Y99723D01*
X643124Y99715D01*
X643161Y99703D01*
X643201Y99704D01*
X643255Y99696D01*
X647065Y99696D01*
X647130Y99707D01*
G37*
G36*
X388050Y99707D02*
X388050Y99707D01*
X388116Y99709D01*
X388159Y99727D01*
X388206Y99735D01*
X388263Y99769D01*
X388323Y99794D01*
X388358Y99825D01*
X388399Y99850D01*
X388441Y99901D01*
X388489Y99945D01*
X388511Y99987D01*
X388540Y100024D01*
X388561Y100086D01*
X388592Y100145D01*
X388600Y100199D01*
X388612Y100236D01*
X388611Y100276D01*
X388619Y100330D01*
X388619Y102870D01*
X388608Y102935D01*
X388606Y103001D01*
X388588Y103044D01*
X388580Y103091D01*
X388546Y103148D01*
X388521Y103208D01*
X388490Y103243D01*
X388465Y103284D01*
X388414Y103326D01*
X388370Y103374D01*
X388328Y103396D01*
X388291Y103425D01*
X388229Y103446D01*
X388170Y103477D01*
X388116Y103485D01*
X388079Y103497D01*
X388039Y103496D01*
X387985Y103504D01*
X384175Y103504D01*
X384110Y103493D01*
X384044Y103491D01*
X384001Y103473D01*
X383954Y103465D01*
X383897Y103431D01*
X383837Y103406D01*
X383802Y103375D01*
X383761Y103350D01*
X383720Y103299D01*
X383671Y103255D01*
X383649Y103213D01*
X383620Y103176D01*
X383599Y103114D01*
X383568Y103055D01*
X383560Y103001D01*
X383548Y102964D01*
X383548Y102961D01*
X383549Y102924D01*
X383541Y102870D01*
X383541Y100330D01*
X383552Y100265D01*
X383554Y100199D01*
X383572Y100156D01*
X383580Y100109D01*
X383614Y100052D01*
X383639Y99992D01*
X383670Y99957D01*
X383695Y99916D01*
X383746Y99875D01*
X383790Y99826D01*
X383832Y99804D01*
X383869Y99775D01*
X383931Y99754D01*
X383990Y99723D01*
X384044Y99715D01*
X384081Y99703D01*
X384121Y99704D01*
X384175Y99696D01*
X387985Y99696D01*
X388050Y99707D01*
G37*
G36*
X128970Y99707D02*
X128970Y99707D01*
X129036Y99709D01*
X129079Y99727D01*
X129126Y99735D01*
X129183Y99769D01*
X129243Y99794D01*
X129278Y99825D01*
X129319Y99850D01*
X129361Y99901D01*
X129409Y99945D01*
X129431Y99987D01*
X129460Y100024D01*
X129481Y100086D01*
X129512Y100145D01*
X129520Y100199D01*
X129532Y100236D01*
X129531Y100276D01*
X129539Y100330D01*
X129539Y102870D01*
X129528Y102935D01*
X129526Y103001D01*
X129508Y103044D01*
X129500Y103091D01*
X129466Y103148D01*
X129441Y103208D01*
X129410Y103243D01*
X129385Y103284D01*
X129334Y103326D01*
X129290Y103374D01*
X129248Y103396D01*
X129211Y103425D01*
X129149Y103446D01*
X129090Y103477D01*
X129036Y103485D01*
X128999Y103497D01*
X128959Y103496D01*
X128905Y103504D01*
X125095Y103504D01*
X125030Y103493D01*
X124964Y103491D01*
X124921Y103473D01*
X124874Y103465D01*
X124817Y103431D01*
X124757Y103406D01*
X124722Y103375D01*
X124681Y103350D01*
X124640Y103299D01*
X124591Y103255D01*
X124569Y103213D01*
X124540Y103176D01*
X124519Y103114D01*
X124488Y103055D01*
X124480Y103001D01*
X124468Y102964D01*
X124468Y102961D01*
X124469Y102924D01*
X124461Y102870D01*
X124461Y100330D01*
X124472Y100265D01*
X124474Y100199D01*
X124492Y100156D01*
X124500Y100109D01*
X124534Y100052D01*
X124559Y99992D01*
X124590Y99957D01*
X124615Y99916D01*
X124666Y99875D01*
X124710Y99826D01*
X124752Y99804D01*
X124789Y99775D01*
X124851Y99754D01*
X124910Y99723D01*
X124964Y99715D01*
X125001Y99703D01*
X125041Y99704D01*
X125095Y99696D01*
X128905Y99696D01*
X128970Y99707D01*
G37*
D10*
X241300Y63500D03*
X241300Y88900D03*
X241300Y114300D03*
X241300Y139700D03*
X241300Y165100D03*
X241300Y190500D03*
D11*
X25400Y25400D03*
X228600Y25400D03*
D12*
X7620Y246380D03*
X246380Y7620D03*
D10*
X12700Y190500D03*
X12700Y165100D03*
X12700Y139700D03*
X12700Y114300D03*
X12700Y88900D03*
X12700Y63500D03*
D11*
X228600Y228600D03*
X25400Y228600D03*
D13*
X129403Y164602D02*
X135011Y164602D01*
X135011Y152898D01*
X129403Y152898D01*
X129403Y164602D01*
X129403Y155292D02*
X135011Y155292D01*
X135011Y157686D02*
X129403Y157686D01*
X129403Y160080D02*
X135011Y160080D01*
X135011Y162474D02*
X129403Y162474D01*
X124597Y164602D02*
X118989Y164602D01*
X124597Y164602D02*
X124597Y152898D01*
X118989Y152898D01*
X118989Y164602D01*
X118989Y155292D02*
X124597Y155292D01*
X124597Y157686D02*
X118989Y157686D01*
X118989Y160080D02*
X124597Y160080D01*
X124597Y162474D02*
X118989Y162474D01*
X118989Y95748D02*
X124597Y95748D01*
X118989Y95748D02*
X118989Y107452D01*
X124597Y107452D01*
X124597Y95748D01*
X124597Y98142D02*
X118989Y98142D01*
X118989Y100536D02*
X124597Y100536D01*
X124597Y102930D02*
X118989Y102930D01*
X118989Y105324D02*
X124597Y105324D01*
X129403Y95748D02*
X135011Y95748D01*
X129403Y95748D02*
X129403Y107452D01*
X135011Y107452D01*
X135011Y95748D01*
X135011Y98142D02*
X129403Y98142D01*
X129403Y100536D02*
X135011Y100536D01*
X135011Y102930D02*
X129403Y102930D01*
X129403Y105324D02*
X135011Y105324D01*
D10*
X500380Y63500D03*
X500380Y88900D03*
X500380Y114300D03*
X500380Y139700D03*
X500380Y165100D03*
X500380Y190500D03*
D11*
X284480Y25400D03*
X487680Y25400D03*
D12*
X266700Y246380D03*
X505460Y7620D03*
D10*
X271780Y190500D03*
X271780Y165100D03*
X271780Y139700D03*
X271780Y114300D03*
X271780Y88900D03*
X271780Y63500D03*
D11*
X487680Y228600D03*
X284480Y228600D03*
D13*
X388483Y164602D02*
X394091Y164602D01*
X394091Y152898D01*
X388483Y152898D01*
X388483Y164602D01*
X388483Y155292D02*
X394091Y155292D01*
X394091Y157686D02*
X388483Y157686D01*
X388483Y160080D02*
X394091Y160080D01*
X394091Y162474D02*
X388483Y162474D01*
X383677Y164602D02*
X378069Y164602D01*
X383677Y164602D02*
X383677Y152898D01*
X378069Y152898D01*
X378069Y164602D01*
X378069Y155292D02*
X383677Y155292D01*
X383677Y157686D02*
X378069Y157686D01*
X378069Y160080D02*
X383677Y160080D01*
X383677Y162474D02*
X378069Y162474D01*
X378069Y95748D02*
X383677Y95748D01*
X378069Y95748D02*
X378069Y107452D01*
X383677Y107452D01*
X383677Y95748D01*
X383677Y98142D02*
X378069Y98142D01*
X378069Y100536D02*
X383677Y100536D01*
X383677Y102930D02*
X378069Y102930D01*
X378069Y105324D02*
X383677Y105324D01*
X388483Y95748D02*
X394091Y95748D01*
X388483Y95748D02*
X388483Y107452D01*
X394091Y107452D01*
X394091Y95748D01*
X394091Y98142D02*
X388483Y98142D01*
X388483Y100536D02*
X394091Y100536D01*
X394091Y102930D02*
X388483Y102930D01*
X388483Y105324D02*
X394091Y105324D01*
D10*
X759460Y63500D03*
X759460Y88900D03*
X759460Y114300D03*
X759460Y139700D03*
X759460Y165100D03*
X759460Y190500D03*
D11*
X543560Y25400D03*
X746760Y25400D03*
D12*
X525780Y246380D03*
X764540Y7620D03*
D10*
X530860Y190500D03*
X530860Y165100D03*
X530860Y139700D03*
X530860Y114300D03*
X530860Y88900D03*
X530860Y63500D03*
D11*
X746760Y228600D03*
X543560Y228600D03*
D13*
X647563Y164602D02*
X653171Y164602D01*
X653171Y152898D01*
X647563Y152898D01*
X647563Y164602D01*
X647563Y155292D02*
X653171Y155292D01*
X653171Y157686D02*
X647563Y157686D01*
X647563Y160080D02*
X653171Y160080D01*
X653171Y162474D02*
X647563Y162474D01*
X642757Y164602D02*
X637149Y164602D01*
X642757Y164602D02*
X642757Y152898D01*
X637149Y152898D01*
X637149Y164602D01*
X637149Y155292D02*
X642757Y155292D01*
X642757Y157686D02*
X637149Y157686D01*
X637149Y160080D02*
X642757Y160080D01*
X642757Y162474D02*
X637149Y162474D01*
X637149Y95748D02*
X642757Y95748D01*
X637149Y95748D02*
X637149Y107452D01*
X642757Y107452D01*
X642757Y95748D01*
X642757Y98142D02*
X637149Y98142D01*
X637149Y100536D02*
X642757Y100536D01*
X642757Y102930D02*
X637149Y102930D01*
X637149Y105324D02*
X642757Y105324D01*
X647563Y95748D02*
X653171Y95748D01*
X647563Y95748D02*
X647563Y107452D01*
X653171Y107452D01*
X653171Y95748D01*
X653171Y98142D02*
X647563Y98142D01*
X647563Y100536D02*
X653171Y100536D01*
X653171Y102930D02*
X647563Y102930D01*
X647563Y105324D02*
X653171Y105324D01*
D10*
X241300Y322580D03*
X241300Y347980D03*
X241300Y373380D03*
X241300Y398780D03*
X241300Y424180D03*
X241300Y449580D03*
D11*
X25400Y284480D03*
X228600Y284480D03*
D12*
X7620Y505460D03*
X246380Y266700D03*
D10*
X12700Y449580D03*
X12700Y424180D03*
X12700Y398780D03*
X12700Y373380D03*
X12700Y347980D03*
X12700Y322580D03*
D11*
X228600Y487680D03*
X25400Y487680D03*
D13*
X129403Y423682D02*
X135011Y423682D01*
X135011Y411978D01*
X129403Y411978D01*
X129403Y423682D01*
X129403Y414372D02*
X135011Y414372D01*
X135011Y416766D02*
X129403Y416766D01*
X129403Y419160D02*
X135011Y419160D01*
X135011Y421554D02*
X129403Y421554D01*
X124597Y423682D02*
X118989Y423682D01*
X124597Y423682D02*
X124597Y411978D01*
X118989Y411978D01*
X118989Y423682D01*
X118989Y414372D02*
X124597Y414372D01*
X124597Y416766D02*
X118989Y416766D01*
X118989Y419160D02*
X124597Y419160D01*
X124597Y421554D02*
X118989Y421554D01*
X118989Y354828D02*
X124597Y354828D01*
X118989Y354828D02*
X118989Y366532D01*
X124597Y366532D01*
X124597Y354828D01*
X124597Y357222D02*
X118989Y357222D01*
X118989Y359616D02*
X124597Y359616D01*
X124597Y362010D02*
X118989Y362010D01*
X118989Y364404D02*
X124597Y364404D01*
X129403Y354828D02*
X135011Y354828D01*
X129403Y354828D02*
X129403Y366532D01*
X135011Y366532D01*
X135011Y354828D01*
X135011Y357222D02*
X129403Y357222D01*
X129403Y359616D02*
X135011Y359616D01*
X135011Y362010D02*
X129403Y362010D01*
X129403Y364404D02*
X135011Y364404D01*
D10*
X500380Y322580D03*
X500380Y347980D03*
X500380Y373380D03*
X500380Y398780D03*
X500380Y424180D03*
X500380Y449580D03*
D11*
X284480Y284480D03*
X487680Y284480D03*
D12*
X266700Y505460D03*
X505460Y266700D03*
D10*
X271780Y449580D03*
X271780Y424180D03*
X271780Y398780D03*
X271780Y373380D03*
X271780Y347980D03*
X271780Y322580D03*
D11*
X487680Y487680D03*
X284480Y487680D03*
D13*
X388483Y423682D02*
X394091Y423682D01*
X394091Y411978D01*
X388483Y411978D01*
X388483Y423682D01*
X388483Y414372D02*
X394091Y414372D01*
X394091Y416766D02*
X388483Y416766D01*
X388483Y419160D02*
X394091Y419160D01*
X394091Y421554D02*
X388483Y421554D01*
X383677Y423682D02*
X378069Y423682D01*
X383677Y423682D02*
X383677Y411978D01*
X378069Y411978D01*
X378069Y423682D01*
X378069Y414372D02*
X383677Y414372D01*
X383677Y416766D02*
X378069Y416766D01*
X378069Y419160D02*
X383677Y419160D01*
X383677Y421554D02*
X378069Y421554D01*
X378069Y354828D02*
X383677Y354828D01*
X378069Y354828D02*
X378069Y366532D01*
X383677Y366532D01*
X383677Y354828D01*
X383677Y357222D02*
X378069Y357222D01*
X378069Y359616D02*
X383677Y359616D01*
X383677Y362010D02*
X378069Y362010D01*
X378069Y364404D02*
X383677Y364404D01*
X388483Y354828D02*
X394091Y354828D01*
X388483Y354828D02*
X388483Y366532D01*
X394091Y366532D01*
X394091Y354828D01*
X394091Y357222D02*
X388483Y357222D01*
X388483Y359616D02*
X394091Y359616D01*
X394091Y362010D02*
X388483Y362010D01*
X388483Y364404D02*
X394091Y364404D01*
D10*
X759460Y322580D03*
X759460Y347980D03*
X759460Y373380D03*
X759460Y398780D03*
X759460Y424180D03*
X759460Y449580D03*
D11*
X543560Y284480D03*
X746760Y284480D03*
D12*
X525780Y505460D03*
X764540Y266700D03*
D10*
X530860Y449580D03*
X530860Y424180D03*
X530860Y398780D03*
X530860Y373380D03*
X530860Y347980D03*
X530860Y322580D03*
D11*
X746760Y487680D03*
X543560Y487680D03*
D13*
X647563Y423682D02*
X653171Y423682D01*
X653171Y411978D01*
X647563Y411978D01*
X647563Y423682D01*
X647563Y414372D02*
X653171Y414372D01*
X653171Y416766D02*
X647563Y416766D01*
X647563Y419160D02*
X653171Y419160D01*
X653171Y421554D02*
X647563Y421554D01*
X642757Y423682D02*
X637149Y423682D01*
X642757Y423682D02*
X642757Y411978D01*
X637149Y411978D01*
X637149Y423682D01*
X637149Y414372D02*
X642757Y414372D01*
X642757Y416766D02*
X637149Y416766D01*
X637149Y419160D02*
X642757Y419160D01*
X642757Y421554D02*
X637149Y421554D01*
X637149Y354828D02*
X642757Y354828D01*
X637149Y354828D02*
X637149Y366532D01*
X642757Y366532D01*
X642757Y354828D01*
X642757Y357222D02*
X637149Y357222D01*
X637149Y359616D02*
X642757Y359616D01*
X642757Y362010D02*
X637149Y362010D01*
X637149Y364404D02*
X642757Y364404D01*
X647563Y354828D02*
X653171Y354828D01*
X647563Y354828D02*
X647563Y366532D01*
X653171Y366532D01*
X653171Y354828D01*
X653171Y357222D02*
X647563Y357222D01*
X647563Y359616D02*
X653171Y359616D01*
X653171Y362010D02*
X647563Y362010D01*
X647563Y364404D02*
X653171Y364404D01*
D10*
X241300Y581660D03*
X241300Y607060D03*
X241300Y632460D03*
X241300Y657860D03*
X241300Y683260D03*
X241300Y708660D03*
D11*
X25400Y543560D03*
X228600Y543560D03*
D12*
X7620Y764540D03*
X246380Y525780D03*
D10*
X12700Y708660D03*
X12700Y683260D03*
X12700Y657860D03*
X12700Y632460D03*
X12700Y607060D03*
X12700Y581660D03*
D11*
X228600Y746760D03*
X25400Y746760D03*
D13*
X129403Y682762D02*
X135011Y682762D01*
X135011Y671058D01*
X129403Y671058D01*
X129403Y682762D01*
X129403Y673452D02*
X135011Y673452D01*
X135011Y675846D02*
X129403Y675846D01*
X129403Y678240D02*
X135011Y678240D01*
X135011Y680634D02*
X129403Y680634D01*
X124597Y682762D02*
X118989Y682762D01*
X124597Y682762D02*
X124597Y671058D01*
X118989Y671058D01*
X118989Y682762D01*
X118989Y673452D02*
X124597Y673452D01*
X124597Y675846D02*
X118989Y675846D01*
X118989Y678240D02*
X124597Y678240D01*
X124597Y680634D02*
X118989Y680634D01*
X118989Y613908D02*
X124597Y613908D01*
X118989Y613908D02*
X118989Y625612D01*
X124597Y625612D01*
X124597Y613908D01*
X124597Y616302D02*
X118989Y616302D01*
X118989Y618696D02*
X124597Y618696D01*
X124597Y621090D02*
X118989Y621090D01*
X118989Y623484D02*
X124597Y623484D01*
X129403Y613908D02*
X135011Y613908D01*
X129403Y613908D02*
X129403Y625612D01*
X135011Y625612D01*
X135011Y613908D01*
X135011Y616302D02*
X129403Y616302D01*
X129403Y618696D02*
X135011Y618696D01*
X135011Y621090D02*
X129403Y621090D01*
X129403Y623484D02*
X135011Y623484D01*
D10*
X500380Y581660D03*
X500380Y607060D03*
X500380Y632460D03*
X500380Y657860D03*
X500380Y683260D03*
X500380Y708660D03*
D11*
X284480Y543560D03*
X487680Y543560D03*
D12*
X266700Y764540D03*
X505460Y525780D03*
D10*
X271780Y708660D03*
X271780Y683260D03*
X271780Y657860D03*
X271780Y632460D03*
X271780Y607060D03*
X271780Y581660D03*
D11*
X487680Y746760D03*
X284480Y746760D03*
D13*
X388483Y682762D02*
X394091Y682762D01*
X394091Y671058D01*
X388483Y671058D01*
X388483Y682762D01*
X388483Y673452D02*
X394091Y673452D01*
X394091Y675846D02*
X388483Y675846D01*
X388483Y678240D02*
X394091Y678240D01*
X394091Y680634D02*
X388483Y680634D01*
X383677Y682762D02*
X378069Y682762D01*
X383677Y682762D02*
X383677Y671058D01*
X378069Y671058D01*
X378069Y682762D01*
X378069Y673452D02*
X383677Y673452D01*
X383677Y675846D02*
X378069Y675846D01*
X378069Y678240D02*
X383677Y678240D01*
X383677Y680634D02*
X378069Y680634D01*
X378069Y613908D02*
X383677Y613908D01*
X378069Y613908D02*
X378069Y625612D01*
X383677Y625612D01*
X383677Y613908D01*
X383677Y616302D02*
X378069Y616302D01*
X378069Y618696D02*
X383677Y618696D01*
X383677Y621090D02*
X378069Y621090D01*
X378069Y623484D02*
X383677Y623484D01*
X388483Y613908D02*
X394091Y613908D01*
X388483Y613908D02*
X388483Y625612D01*
X394091Y625612D01*
X394091Y613908D01*
X394091Y616302D02*
X388483Y616302D01*
X388483Y618696D02*
X394091Y618696D01*
X394091Y621090D02*
X388483Y621090D01*
X388483Y623484D02*
X394091Y623484D01*
D10*
X759460Y581660D03*
X759460Y607060D03*
X759460Y632460D03*
X759460Y657860D03*
X759460Y683260D03*
X759460Y708660D03*
D11*
X543560Y543560D03*
X746760Y543560D03*
D12*
X525780Y764540D03*
X764540Y525780D03*
D10*
X530860Y708660D03*
X530860Y683260D03*
X530860Y657860D03*
X530860Y632460D03*
X530860Y607060D03*
X530860Y581660D03*
D11*
X746760Y746760D03*
X543560Y746760D03*
D13*
X647563Y682762D02*
X653171Y682762D01*
X653171Y671058D01*
X647563Y671058D01*
X647563Y682762D01*
X647563Y673452D02*
X653171Y673452D01*
X653171Y675846D02*
X647563Y675846D01*
X647563Y678240D02*
X653171Y678240D01*
X653171Y680634D02*
X647563Y680634D01*
X642757Y682762D02*
X637149Y682762D01*
X642757Y682762D02*
X642757Y671058D01*
X637149Y671058D01*
X637149Y682762D01*
X637149Y673452D02*
X642757Y673452D01*
X642757Y675846D02*
X637149Y675846D01*
X637149Y678240D02*
X642757Y678240D01*
X642757Y680634D02*
X637149Y680634D01*
X637149Y613908D02*
X642757Y613908D01*
X637149Y613908D02*
X637149Y625612D01*
X642757Y625612D01*
X642757Y613908D01*
X642757Y616302D02*
X637149Y616302D01*
X637149Y618696D02*
X642757Y618696D01*
X642757Y621090D02*
X637149Y621090D01*
X637149Y623484D02*
X642757Y623484D01*
X647563Y613908D02*
X653171Y613908D01*
X647563Y613908D02*
X647563Y625612D01*
X653171Y625612D01*
X653171Y613908D01*
X653171Y616302D02*
X647563Y616302D01*
X647563Y618696D02*
X653171Y618696D01*
X653171Y621090D02*
X647563Y621090D01*
X647563Y623484D02*
X653171Y623484D01*
D12*
X68580Y793115D03*
X702945Y793115D03*
D14*
X59525Y-20955D02*
X59528Y-20733D01*
X59536Y-20511D01*
X59550Y-20289D01*
X59569Y-20067D01*
X59593Y-19847D01*
X59623Y-19626D01*
X59658Y-19407D01*
X59699Y-19188D01*
X59745Y-18971D01*
X59796Y-18755D01*
X59853Y-18540D01*
X59915Y-18326D01*
X59982Y-18115D01*
X60054Y-17904D01*
X60132Y-17696D01*
X60214Y-17490D01*
X60302Y-17286D01*
X60394Y-17083D01*
X60492Y-16884D01*
X60594Y-16687D01*
X60701Y-16492D01*
X60813Y-16300D01*
X60930Y-16111D01*
X61051Y-15924D01*
X61177Y-15741D01*
X61307Y-15561D01*
X61442Y-15384D01*
X61580Y-15211D01*
X61723Y-15041D01*
X61871Y-14874D01*
X62022Y-14711D01*
X62177Y-14552D01*
X62336Y-14397D01*
X62499Y-14246D01*
X62666Y-14098D01*
X62836Y-13955D01*
X63009Y-13817D01*
X63186Y-13682D01*
X63366Y-13552D01*
X63549Y-13426D01*
X63736Y-13305D01*
X63925Y-13188D01*
X64117Y-13076D01*
X64312Y-12969D01*
X64509Y-12867D01*
X64708Y-12769D01*
X64911Y-12677D01*
X65115Y-12589D01*
X65321Y-12507D01*
X65529Y-12429D01*
X65740Y-12357D01*
X65951Y-12290D01*
X66165Y-12228D01*
X66380Y-12171D01*
X66596Y-12120D01*
X66813Y-12074D01*
X67032Y-12033D01*
X67251Y-11998D01*
X67472Y-11968D01*
X67692Y-11944D01*
X67914Y-11925D01*
X68136Y-11911D01*
X68358Y-11903D01*
X68580Y-11900D01*
X68802Y-11903D01*
X69024Y-11911D01*
X69246Y-11925D01*
X69468Y-11944D01*
X69688Y-11968D01*
X69909Y-11998D01*
X70128Y-12033D01*
X70347Y-12074D01*
X70564Y-12120D01*
X70780Y-12171D01*
X70995Y-12228D01*
X71209Y-12290D01*
X71420Y-12357D01*
X71631Y-12429D01*
X71839Y-12507D01*
X72045Y-12589D01*
X72249Y-12677D01*
X72452Y-12769D01*
X72651Y-12867D01*
X72848Y-12969D01*
X73043Y-13076D01*
X73235Y-13188D01*
X73424Y-13305D01*
X73611Y-13426D01*
X73794Y-13552D01*
X73974Y-13682D01*
X74151Y-13817D01*
X74324Y-13955D01*
X74494Y-14098D01*
X74661Y-14246D01*
X74824Y-14397D01*
X74983Y-14552D01*
X75138Y-14711D01*
X75289Y-14874D01*
X75437Y-15041D01*
X75580Y-15211D01*
X75718Y-15384D01*
X75853Y-15561D01*
X75983Y-15741D01*
X76109Y-15924D01*
X76230Y-16111D01*
X76347Y-16300D01*
X76459Y-16492D01*
X76566Y-16687D01*
X76668Y-16884D01*
X76766Y-17083D01*
X76858Y-17286D01*
X76946Y-17490D01*
X77028Y-17696D01*
X77106Y-17904D01*
X77178Y-18115D01*
X77245Y-18326D01*
X77307Y-18540D01*
X77364Y-18755D01*
X77415Y-18971D01*
X77461Y-19188D01*
X77502Y-19407D01*
X77537Y-19626D01*
X77567Y-19847D01*
X77591Y-20067D01*
X77610Y-20289D01*
X77624Y-20511D01*
X77632Y-20733D01*
X77635Y-20955D01*
X77632Y-21177D01*
X77624Y-21399D01*
X77610Y-21621D01*
X77591Y-21843D01*
X77567Y-22063D01*
X77537Y-22284D01*
X77502Y-22503D01*
X77461Y-22722D01*
X77415Y-22939D01*
X77364Y-23155D01*
X77307Y-23370D01*
X77245Y-23584D01*
X77178Y-23795D01*
X77106Y-24006D01*
X77028Y-24214D01*
X76946Y-24420D01*
X76858Y-24624D01*
X76766Y-24827D01*
X76668Y-25026D01*
X76566Y-25223D01*
X76459Y-25418D01*
X76347Y-25610D01*
X76230Y-25799D01*
X76109Y-25986D01*
X75983Y-26169D01*
X75853Y-26349D01*
X75718Y-26526D01*
X75580Y-26699D01*
X75437Y-26869D01*
X75289Y-27036D01*
X75138Y-27199D01*
X74983Y-27358D01*
X74824Y-27513D01*
X74661Y-27664D01*
X74494Y-27812D01*
X74324Y-27955D01*
X74151Y-28093D01*
X73974Y-28228D01*
X73794Y-28358D01*
X73611Y-28484D01*
X73424Y-28605D01*
X73235Y-28722D01*
X73043Y-28834D01*
X72848Y-28941D01*
X72651Y-29043D01*
X72452Y-29141D01*
X72249Y-29233D01*
X72045Y-29321D01*
X71839Y-29403D01*
X71631Y-29481D01*
X71420Y-29553D01*
X71209Y-29620D01*
X70995Y-29682D01*
X70780Y-29739D01*
X70564Y-29790D01*
X70347Y-29836D01*
X70128Y-29877D01*
X69909Y-29912D01*
X69688Y-29942D01*
X69468Y-29966D01*
X69246Y-29985D01*
X69024Y-29999D01*
X68802Y-30007D01*
X68580Y-30010D01*
X68358Y-30007D01*
X68136Y-29999D01*
X67914Y-29985D01*
X67692Y-29966D01*
X67472Y-29942D01*
X67251Y-29912D01*
X67032Y-29877D01*
X66813Y-29836D01*
X66596Y-29790D01*
X66380Y-29739D01*
X66165Y-29682D01*
X65951Y-29620D01*
X65740Y-29553D01*
X65529Y-29481D01*
X65321Y-29403D01*
X65115Y-29321D01*
X64911Y-29233D01*
X64708Y-29141D01*
X64509Y-29043D01*
X64312Y-28941D01*
X64117Y-28834D01*
X63925Y-28722D01*
X63736Y-28605D01*
X63549Y-28484D01*
X63366Y-28358D01*
X63186Y-28228D01*
X63009Y-28093D01*
X62836Y-27955D01*
X62666Y-27812D01*
X62499Y-27664D01*
X62336Y-27513D01*
X62177Y-27358D01*
X62022Y-27199D01*
X61871Y-27036D01*
X61723Y-26869D01*
X61580Y-26699D01*
X61442Y-26526D01*
X61307Y-26349D01*
X61177Y-26169D01*
X61051Y-25986D01*
X60930Y-25799D01*
X60813Y-25610D01*
X60701Y-25418D01*
X60594Y-25223D01*
X60492Y-25026D01*
X60394Y-24827D01*
X60302Y-24624D01*
X60214Y-24420D01*
X60132Y-24214D01*
X60054Y-24006D01*
X59982Y-23795D01*
X59915Y-23584D01*
X59853Y-23370D01*
X59796Y-23155D01*
X59745Y-22939D01*
X59699Y-22722D01*
X59658Y-22503D01*
X59623Y-22284D01*
X59593Y-22063D01*
X59569Y-21843D01*
X59550Y-21621D01*
X59536Y-21399D01*
X59528Y-21177D01*
X59525Y-20955D01*
D15*
X68580Y-20955D03*
M02*
