G04 EAGLE Gerber RS-274X export*
G75*
%MOMM*%
%FSLAX34Y34*%
%LPD*%
%INSolderpaste Top*%
%IPPOS*%
%AMOC8*
5,1,8,0,0,1.08239X$1,22.5*%
G01*
%ADD10C,0.102000*%
%ADD11R,0.500000X0.600000*%
%ADD12C,0.096000*%
%ADD13C,0.100000*%
%ADD14C,0.095250*%
%ADD15C,2.000000*%
%ADD16C,0.300000*%


D10*
X114990Y170260D02*
X112510Y170260D01*
X112510Y171240D01*
X114990Y171240D01*
X114990Y170260D01*
X114990Y171229D02*
X112510Y171229D01*
X112510Y166260D02*
X114990Y166260D01*
X112510Y166260D02*
X112510Y167240D01*
X114990Y167240D01*
X114990Y166260D01*
X114990Y167229D02*
X112510Y167229D01*
X112510Y162260D02*
X114990Y162260D01*
X112510Y162260D02*
X112510Y163240D01*
X114990Y163240D01*
X114990Y162260D01*
X114990Y163229D02*
X112510Y163229D01*
X112510Y158260D02*
X114990Y158260D01*
X112510Y158260D02*
X112510Y159240D01*
X114990Y159240D01*
X114990Y158260D01*
X114990Y159229D02*
X112510Y159229D01*
X112510Y154260D02*
X114990Y154260D01*
X112510Y154260D02*
X112510Y155240D01*
X114990Y155240D01*
X114990Y154260D01*
X114990Y155229D02*
X112510Y155229D01*
X112510Y150260D02*
X114990Y150260D01*
X112510Y150260D02*
X112510Y151240D01*
X114990Y151240D01*
X114990Y150260D01*
X114990Y151229D02*
X112510Y151229D01*
X112510Y146260D02*
X114990Y146260D01*
X112510Y146260D02*
X112510Y147240D01*
X114990Y147240D01*
X114990Y146260D01*
X114990Y147229D02*
X112510Y147229D01*
X124990Y146740D02*
X124990Y144260D01*
X124010Y144260D01*
X124010Y146740D01*
X124990Y146740D01*
X124990Y145229D02*
X124010Y145229D01*
X124010Y146198D02*
X124990Y146198D01*
X129990Y146740D02*
X129990Y144260D01*
X129010Y144260D01*
X129010Y146740D01*
X129990Y146740D01*
X129990Y145229D02*
X129010Y145229D01*
X129010Y146198D02*
X129990Y146198D01*
X139010Y147240D02*
X141490Y147240D01*
X141490Y146260D01*
X139010Y146260D01*
X139010Y147240D01*
X139010Y147229D02*
X141490Y147229D01*
X141490Y151240D02*
X139010Y151240D01*
X141490Y151240D02*
X141490Y150260D01*
X139010Y150260D01*
X139010Y151240D01*
X139010Y151229D02*
X141490Y151229D01*
X141490Y155240D02*
X139010Y155240D01*
X141490Y155240D02*
X141490Y154260D01*
X139010Y154260D01*
X139010Y155240D01*
X139010Y155229D02*
X141490Y155229D01*
X141490Y159240D02*
X139010Y159240D01*
X141490Y159240D02*
X141490Y158260D01*
X139010Y158260D01*
X139010Y159240D01*
X139010Y159229D02*
X141490Y159229D01*
X141490Y163240D02*
X139010Y163240D01*
X141490Y163240D02*
X141490Y162260D01*
X139010Y162260D01*
X139010Y163240D01*
X139010Y163229D02*
X141490Y163229D01*
X141490Y167240D02*
X139010Y167240D01*
X141490Y167240D02*
X141490Y166260D01*
X139010Y166260D01*
X139010Y167240D01*
X139010Y167229D02*
X141490Y167229D01*
X141490Y171240D02*
X139010Y171240D01*
X141490Y171240D02*
X141490Y170260D01*
X139010Y170260D01*
X139010Y171240D01*
X139010Y171229D02*
X141490Y171229D01*
X129010Y170760D02*
X129010Y173240D01*
X129990Y173240D01*
X129990Y170760D01*
X129010Y170760D01*
X129010Y171729D02*
X129990Y171729D01*
X129990Y172698D02*
X129010Y172698D01*
X124010Y173240D02*
X124010Y170760D01*
X124010Y173240D02*
X124990Y173240D01*
X124990Y170760D01*
X124010Y170760D01*
X124010Y171729D02*
X124990Y171729D01*
X124990Y172698D02*
X124010Y172698D01*
D11*
X122000Y164250D03*
X132000Y164250D03*
X132000Y153250D03*
X122000Y153250D03*
D12*
X66480Y147920D02*
X66480Y134880D01*
X66480Y147920D02*
X77520Y147920D01*
X77520Y134880D01*
X66480Y134880D01*
X66480Y135792D02*
X77520Y135792D01*
X77520Y136704D02*
X66480Y136704D01*
X66480Y137616D02*
X77520Y137616D01*
X77520Y138528D02*
X66480Y138528D01*
X66480Y139440D02*
X77520Y139440D01*
X77520Y140352D02*
X66480Y140352D01*
X66480Y141264D02*
X77520Y141264D01*
X77520Y142176D02*
X66480Y142176D01*
X66480Y143088D02*
X77520Y143088D01*
X77520Y144000D02*
X66480Y144000D01*
X66480Y144912D02*
X77520Y144912D01*
X77520Y145824D02*
X66480Y145824D01*
X66480Y146736D02*
X77520Y146736D01*
X77520Y147648D02*
X66480Y147648D01*
X77520Y156880D02*
X77520Y169920D01*
X77520Y156880D02*
X66480Y156880D01*
X66480Y169920D01*
X77520Y169920D01*
X77520Y157792D02*
X66480Y157792D01*
X66480Y158704D02*
X77520Y158704D01*
X77520Y159616D02*
X66480Y159616D01*
X66480Y160528D02*
X77520Y160528D01*
X77520Y161440D02*
X66480Y161440D01*
X66480Y162352D02*
X77520Y162352D01*
X77520Y163264D02*
X66480Y163264D01*
X66480Y164176D02*
X77520Y164176D01*
X77520Y165088D02*
X66480Y165088D01*
X66480Y166000D02*
X77520Y166000D01*
X77520Y166912D02*
X66480Y166912D01*
X66480Y167824D02*
X77520Y167824D01*
X77520Y168736D02*
X66480Y168736D01*
X66480Y169648D02*
X77520Y169648D01*
X60520Y169920D02*
X60520Y156880D01*
X49480Y156880D01*
X49480Y169920D01*
X60520Y169920D01*
X60520Y157792D02*
X49480Y157792D01*
X49480Y158704D02*
X60520Y158704D01*
X60520Y159616D02*
X49480Y159616D01*
X49480Y160528D02*
X60520Y160528D01*
X60520Y161440D02*
X49480Y161440D01*
X49480Y162352D02*
X60520Y162352D01*
X60520Y163264D02*
X49480Y163264D01*
X49480Y164176D02*
X60520Y164176D01*
X60520Y165088D02*
X49480Y165088D01*
X49480Y166000D02*
X60520Y166000D01*
X60520Y166912D02*
X49480Y166912D01*
X49480Y167824D02*
X60520Y167824D01*
X60520Y168736D02*
X49480Y168736D01*
X49480Y169648D02*
X60520Y169648D01*
X49480Y147920D02*
X49480Y134880D01*
X49480Y147920D02*
X60520Y147920D01*
X60520Y134880D01*
X49480Y134880D01*
X49480Y135792D02*
X60520Y135792D01*
X60520Y136704D02*
X49480Y136704D01*
X49480Y137616D02*
X60520Y137616D01*
X60520Y138528D02*
X49480Y138528D01*
X49480Y139440D02*
X60520Y139440D01*
X60520Y140352D02*
X49480Y140352D01*
X49480Y141264D02*
X60520Y141264D01*
X60520Y142176D02*
X49480Y142176D01*
X49480Y143088D02*
X60520Y143088D01*
X60520Y144000D02*
X49480Y144000D01*
X49480Y144912D02*
X60520Y144912D01*
X60520Y145824D02*
X49480Y145824D01*
X49480Y146736D02*
X60520Y146736D01*
X60520Y147648D02*
X49480Y147648D01*
D13*
X113500Y179650D02*
X123500Y179650D01*
X113500Y179650D02*
X113500Y188650D01*
X123500Y188650D01*
X123500Y179650D01*
X123500Y180600D02*
X113500Y180600D01*
X113500Y181550D02*
X123500Y181550D01*
X123500Y182500D02*
X113500Y182500D01*
X113500Y183450D02*
X123500Y183450D01*
X123500Y184400D02*
X113500Y184400D01*
X113500Y185350D02*
X123500Y185350D01*
X123500Y186300D02*
X113500Y186300D01*
X113500Y187250D02*
X123500Y187250D01*
X123500Y188200D02*
X113500Y188200D01*
X130500Y179650D02*
X140500Y179650D01*
X130500Y179650D02*
X130500Y188650D01*
X140500Y188650D01*
X140500Y179650D01*
X140500Y180600D02*
X130500Y180600D01*
X130500Y181550D02*
X140500Y181550D01*
X140500Y182500D02*
X130500Y182500D01*
X130500Y183450D02*
X140500Y183450D01*
X140500Y184400D02*
X130500Y184400D01*
X130500Y185350D02*
X140500Y185350D01*
X140500Y186300D02*
X130500Y186300D01*
X130500Y187250D02*
X140500Y187250D01*
X140500Y188200D02*
X130500Y188200D01*
D14*
X190341Y85249D02*
X221139Y85249D01*
X221139Y54451D01*
X190341Y54451D01*
X190341Y85249D01*
X190341Y55356D02*
X221139Y55356D01*
X221139Y56261D02*
X190341Y56261D01*
X190341Y57166D02*
X221139Y57166D01*
X221139Y58071D02*
X190341Y58071D01*
X190341Y58976D02*
X221139Y58976D01*
X221139Y59881D02*
X190341Y59881D01*
X190341Y60786D02*
X221139Y60786D01*
X221139Y61691D02*
X190341Y61691D01*
X190341Y62596D02*
X221139Y62596D01*
X221139Y63501D02*
X190341Y63501D01*
X190341Y64406D02*
X221139Y64406D01*
X221139Y65311D02*
X190341Y65311D01*
X190341Y66216D02*
X221139Y66216D01*
X221139Y67121D02*
X190341Y67121D01*
X190341Y68026D02*
X221139Y68026D01*
X221139Y68931D02*
X190341Y68931D01*
X190341Y69836D02*
X221139Y69836D01*
X221139Y70741D02*
X190341Y70741D01*
X190341Y71646D02*
X221139Y71646D01*
X221139Y72551D02*
X190341Y72551D01*
X190341Y73456D02*
X221139Y73456D01*
X221139Y74361D02*
X190341Y74361D01*
X190341Y75266D02*
X221139Y75266D01*
X221139Y76171D02*
X190341Y76171D01*
X190341Y77076D02*
X221139Y77076D01*
X221139Y77981D02*
X190341Y77981D01*
X190341Y78886D02*
X221139Y78886D01*
X221139Y79791D02*
X190341Y79791D01*
X190341Y80696D02*
X221139Y80696D01*
X221139Y81601D02*
X190341Y81601D01*
X190341Y82506D02*
X221139Y82506D01*
X221139Y83411D02*
X190341Y83411D01*
X190341Y84316D02*
X221139Y84316D01*
X221139Y85221D02*
X190341Y85221D01*
X63659Y85249D02*
X32861Y85249D01*
X63659Y85249D02*
X63659Y54451D01*
X32861Y54451D01*
X32861Y85249D01*
X32861Y55356D02*
X63659Y55356D01*
X63659Y56261D02*
X32861Y56261D01*
X32861Y57166D02*
X63659Y57166D01*
X63659Y58071D02*
X32861Y58071D01*
X32861Y58976D02*
X63659Y58976D01*
X63659Y59881D02*
X32861Y59881D01*
X32861Y60786D02*
X63659Y60786D01*
X63659Y61691D02*
X32861Y61691D01*
X32861Y62596D02*
X63659Y62596D01*
X63659Y63501D02*
X32861Y63501D01*
X32861Y64406D02*
X63659Y64406D01*
X63659Y65311D02*
X32861Y65311D01*
X32861Y66216D02*
X63659Y66216D01*
X63659Y67121D02*
X32861Y67121D01*
X32861Y68026D02*
X63659Y68026D01*
X63659Y68931D02*
X32861Y68931D01*
X32861Y69836D02*
X63659Y69836D01*
X63659Y70741D02*
X32861Y70741D01*
X32861Y71646D02*
X63659Y71646D01*
X63659Y72551D02*
X32861Y72551D01*
X32861Y73456D02*
X63659Y73456D01*
X63659Y74361D02*
X32861Y74361D01*
X32861Y75266D02*
X63659Y75266D01*
X63659Y76171D02*
X32861Y76171D01*
X32861Y77076D02*
X63659Y77076D01*
X63659Y77981D02*
X32861Y77981D01*
X32861Y78886D02*
X63659Y78886D01*
X63659Y79791D02*
X32861Y79791D01*
X32861Y80696D02*
X63659Y80696D01*
X63659Y81601D02*
X32861Y81601D01*
X32861Y82506D02*
X63659Y82506D01*
X63659Y83411D02*
X32861Y83411D01*
X32861Y84316D02*
X63659Y84316D01*
X63659Y85221D02*
X32861Y85221D01*
D15*
X117000Y69850D02*
X117003Y70095D01*
X117012Y70341D01*
X117027Y70586D01*
X117048Y70830D01*
X117075Y71074D01*
X117108Y71317D01*
X117147Y71560D01*
X117192Y71801D01*
X117243Y72041D01*
X117300Y72280D01*
X117362Y72517D01*
X117431Y72753D01*
X117505Y72987D01*
X117585Y73219D01*
X117670Y73449D01*
X117761Y73677D01*
X117858Y73902D01*
X117960Y74126D01*
X118068Y74346D01*
X118181Y74564D01*
X118299Y74779D01*
X118423Y74991D01*
X118551Y75200D01*
X118685Y75406D01*
X118824Y75608D01*
X118968Y75807D01*
X119117Y76002D01*
X119270Y76194D01*
X119428Y76382D01*
X119590Y76566D01*
X119758Y76745D01*
X119929Y76921D01*
X120105Y77092D01*
X120284Y77260D01*
X120468Y77422D01*
X120656Y77580D01*
X120848Y77733D01*
X121043Y77882D01*
X121242Y78026D01*
X121444Y78165D01*
X121650Y78299D01*
X121859Y78427D01*
X122071Y78551D01*
X122286Y78669D01*
X122504Y78782D01*
X122724Y78890D01*
X122948Y78992D01*
X123173Y79089D01*
X123401Y79180D01*
X123631Y79265D01*
X123863Y79345D01*
X124097Y79419D01*
X124333Y79488D01*
X124570Y79550D01*
X124809Y79607D01*
X125049Y79658D01*
X125290Y79703D01*
X125533Y79742D01*
X125776Y79775D01*
X126020Y79802D01*
X126264Y79823D01*
X126509Y79838D01*
X126755Y79847D01*
X127000Y79850D01*
X127245Y79847D01*
X127491Y79838D01*
X127736Y79823D01*
X127980Y79802D01*
X128224Y79775D01*
X128467Y79742D01*
X128710Y79703D01*
X128951Y79658D01*
X129191Y79607D01*
X129430Y79550D01*
X129667Y79488D01*
X129903Y79419D01*
X130137Y79345D01*
X130369Y79265D01*
X130599Y79180D01*
X130827Y79089D01*
X131052Y78992D01*
X131276Y78890D01*
X131496Y78782D01*
X131714Y78669D01*
X131929Y78551D01*
X132141Y78427D01*
X132350Y78299D01*
X132556Y78165D01*
X132758Y78026D01*
X132957Y77882D01*
X133152Y77733D01*
X133344Y77580D01*
X133532Y77422D01*
X133716Y77260D01*
X133895Y77092D01*
X134071Y76921D01*
X134242Y76745D01*
X134410Y76566D01*
X134572Y76382D01*
X134730Y76194D01*
X134883Y76002D01*
X135032Y75807D01*
X135176Y75608D01*
X135315Y75406D01*
X135449Y75200D01*
X135577Y74991D01*
X135701Y74779D01*
X135819Y74564D01*
X135932Y74346D01*
X136040Y74126D01*
X136142Y73902D01*
X136239Y73677D01*
X136330Y73449D01*
X136415Y73219D01*
X136495Y72987D01*
X136569Y72753D01*
X136638Y72517D01*
X136700Y72280D01*
X136757Y72041D01*
X136808Y71801D01*
X136853Y71560D01*
X136892Y71317D01*
X136925Y71074D01*
X136952Y70830D01*
X136973Y70586D01*
X136988Y70341D01*
X136997Y70095D01*
X137000Y69850D01*
X136997Y69605D01*
X136988Y69359D01*
X136973Y69114D01*
X136952Y68870D01*
X136925Y68626D01*
X136892Y68383D01*
X136853Y68140D01*
X136808Y67899D01*
X136757Y67659D01*
X136700Y67420D01*
X136638Y67183D01*
X136569Y66947D01*
X136495Y66713D01*
X136415Y66481D01*
X136330Y66251D01*
X136239Y66023D01*
X136142Y65798D01*
X136040Y65574D01*
X135932Y65354D01*
X135819Y65136D01*
X135701Y64921D01*
X135577Y64709D01*
X135449Y64500D01*
X135315Y64294D01*
X135176Y64092D01*
X135032Y63893D01*
X134883Y63698D01*
X134730Y63506D01*
X134572Y63318D01*
X134410Y63134D01*
X134242Y62955D01*
X134071Y62779D01*
X133895Y62608D01*
X133716Y62440D01*
X133532Y62278D01*
X133344Y62120D01*
X133152Y61967D01*
X132957Y61818D01*
X132758Y61674D01*
X132556Y61535D01*
X132350Y61401D01*
X132141Y61273D01*
X131929Y61149D01*
X131714Y61031D01*
X131496Y60918D01*
X131276Y60810D01*
X131052Y60708D01*
X130827Y60611D01*
X130599Y60520D01*
X130369Y60435D01*
X130137Y60355D01*
X129903Y60281D01*
X129667Y60212D01*
X129430Y60150D01*
X129191Y60093D01*
X128951Y60042D01*
X128710Y59997D01*
X128467Y59958D01*
X128224Y59925D01*
X127980Y59898D01*
X127736Y59877D01*
X127491Y59862D01*
X127245Y59853D01*
X127000Y59850D01*
X126755Y59853D01*
X126509Y59862D01*
X126264Y59877D01*
X126020Y59898D01*
X125776Y59925D01*
X125533Y59958D01*
X125290Y59997D01*
X125049Y60042D01*
X124809Y60093D01*
X124570Y60150D01*
X124333Y60212D01*
X124097Y60281D01*
X123863Y60355D01*
X123631Y60435D01*
X123401Y60520D01*
X123173Y60611D01*
X122948Y60708D01*
X122724Y60810D01*
X122504Y60918D01*
X122286Y61031D01*
X122071Y61149D01*
X121859Y61273D01*
X121650Y61401D01*
X121444Y61535D01*
X121242Y61674D01*
X121043Y61818D01*
X120848Y61967D01*
X120656Y62120D01*
X120468Y62278D01*
X120284Y62440D01*
X120105Y62608D01*
X119929Y62779D01*
X119758Y62955D01*
X119590Y63134D01*
X119428Y63318D01*
X119270Y63506D01*
X119117Y63698D01*
X118968Y63893D01*
X118824Y64092D01*
X118685Y64294D01*
X118551Y64500D01*
X118423Y64709D01*
X118299Y64921D01*
X118181Y65136D01*
X118068Y65354D01*
X117960Y65574D01*
X117858Y65798D01*
X117761Y66023D01*
X117670Y66251D01*
X117585Y66481D01*
X117505Y66713D01*
X117431Y66947D01*
X117362Y67183D01*
X117300Y67420D01*
X117243Y67659D01*
X117192Y67899D01*
X117147Y68140D01*
X117108Y68383D01*
X117075Y68626D01*
X117048Y68870D01*
X117027Y69114D01*
X117012Y69359D01*
X117003Y69605D01*
X117000Y69850D01*
D13*
X77000Y188650D02*
X67000Y188650D01*
X77000Y188650D02*
X77000Y179650D01*
X67000Y179650D01*
X67000Y188650D01*
X67000Y180600D02*
X77000Y180600D01*
X77000Y181550D02*
X67000Y181550D01*
X67000Y182500D02*
X77000Y182500D01*
X77000Y183450D02*
X67000Y183450D01*
X67000Y184400D02*
X77000Y184400D01*
X77000Y185350D02*
X67000Y185350D01*
X67000Y186300D02*
X77000Y186300D01*
X77000Y187250D02*
X67000Y187250D01*
X67000Y188200D02*
X77000Y188200D01*
X60000Y188650D02*
X50000Y188650D01*
X60000Y188650D02*
X60000Y179650D01*
X50000Y179650D01*
X50000Y188650D01*
X50000Y180600D02*
X60000Y180600D01*
X60000Y181550D02*
X50000Y181550D01*
X50000Y182500D02*
X60000Y182500D01*
X60000Y183450D02*
X50000Y183450D01*
X50000Y184400D02*
X60000Y184400D01*
X60000Y185350D02*
X50000Y185350D01*
X50000Y186300D02*
X60000Y186300D01*
X60000Y187250D02*
X50000Y187250D01*
X50000Y188200D02*
X60000Y188200D01*
D10*
X171960Y176020D02*
X171960Y171040D01*
X171960Y176020D02*
X186440Y176020D01*
X186440Y171040D01*
X171960Y171040D01*
X171960Y172009D02*
X186440Y172009D01*
X186440Y172978D02*
X171960Y172978D01*
X171960Y173947D02*
X186440Y173947D01*
X186440Y174916D02*
X171960Y174916D01*
X171960Y175885D02*
X186440Y175885D01*
X171960Y166020D02*
X171960Y161040D01*
X171960Y166020D02*
X186440Y166020D01*
X186440Y161040D01*
X171960Y161040D01*
X171960Y162009D02*
X186440Y162009D01*
X186440Y162978D02*
X171960Y162978D01*
X171960Y163947D02*
X186440Y163947D01*
X186440Y164916D02*
X171960Y164916D01*
X171960Y165885D02*
X186440Y165885D01*
X171960Y156020D02*
X171960Y151040D01*
X171960Y156020D02*
X186440Y156020D01*
X186440Y151040D01*
X171960Y151040D01*
X171960Y152009D02*
X186440Y152009D01*
X186440Y152978D02*
X171960Y152978D01*
X171960Y153947D02*
X186440Y153947D01*
X186440Y154916D02*
X171960Y154916D01*
X171960Y155885D02*
X186440Y155885D01*
X171960Y146020D02*
X171960Y141040D01*
X171960Y146020D02*
X186440Y146020D01*
X186440Y141040D01*
X171960Y141040D01*
X171960Y142009D02*
X186440Y142009D01*
X186440Y142978D02*
X171960Y142978D01*
X171960Y143947D02*
X186440Y143947D01*
X186440Y144916D02*
X171960Y144916D01*
X171960Y145885D02*
X186440Y145885D01*
D12*
X193930Y181010D02*
X193930Y192050D01*
X212970Y192050D01*
X212970Y181010D01*
X193930Y181010D01*
X193930Y181922D02*
X212970Y181922D01*
X212970Y182834D02*
X193930Y182834D01*
X193930Y183746D02*
X212970Y183746D01*
X212970Y184658D02*
X193930Y184658D01*
X193930Y185570D02*
X212970Y185570D01*
X212970Y186482D02*
X193930Y186482D01*
X193930Y187394D02*
X212970Y187394D01*
X212970Y188306D02*
X193930Y188306D01*
X193930Y189218D02*
X212970Y189218D01*
X212970Y190130D02*
X193930Y190130D01*
X193930Y191042D02*
X212970Y191042D01*
X212970Y191954D02*
X193930Y191954D01*
X193930Y136050D02*
X193930Y125010D01*
X193930Y136050D02*
X212970Y136050D01*
X212970Y125010D01*
X193930Y125010D01*
X193930Y125922D02*
X212970Y125922D01*
X212970Y126834D02*
X193930Y126834D01*
X193930Y127746D02*
X212970Y127746D01*
X212970Y128658D02*
X193930Y128658D01*
X193930Y129570D02*
X212970Y129570D01*
X212970Y130482D02*
X193930Y130482D01*
X193930Y131394D02*
X212970Y131394D01*
X212970Y132306D02*
X193930Y132306D01*
X193930Y133218D02*
X212970Y133218D01*
X212970Y134130D02*
X193930Y134130D01*
X193930Y135042D02*
X212970Y135042D01*
X212970Y135954D02*
X193930Y135954D01*
D16*
X201740Y100020D02*
X201740Y93020D01*
X194740Y93020D01*
X194740Y100020D01*
X201740Y100020D01*
X201740Y95870D02*
X194740Y95870D01*
X194740Y98720D02*
X201740Y98720D01*
X219280Y100020D02*
X219280Y93020D01*
X212280Y93020D01*
X212280Y100020D01*
X219280Y100020D01*
X219280Y95870D02*
X212280Y95870D01*
X212280Y98720D02*
X219280Y98720D01*
D13*
X203510Y108530D02*
X193510Y108530D01*
X193510Y117530D01*
X203510Y117530D01*
X203510Y108530D01*
X203510Y109480D02*
X193510Y109480D01*
X193510Y110430D02*
X203510Y110430D01*
X203510Y111380D02*
X193510Y111380D01*
X193510Y112330D02*
X203510Y112330D01*
X203510Y113280D02*
X193510Y113280D01*
X193510Y114230D02*
X203510Y114230D01*
X203510Y115180D02*
X193510Y115180D01*
X193510Y116130D02*
X203510Y116130D01*
X203510Y117080D02*
X193510Y117080D01*
X210510Y108530D02*
X220510Y108530D01*
X210510Y108530D02*
X210510Y117530D01*
X220510Y117530D01*
X220510Y108530D01*
X220510Y109480D02*
X210510Y109480D01*
X210510Y110430D02*
X220510Y110430D01*
X220510Y111380D02*
X210510Y111380D01*
X210510Y112330D02*
X220510Y112330D01*
X220510Y113280D02*
X210510Y113280D01*
X210510Y114230D02*
X220510Y114230D01*
X220510Y115180D02*
X210510Y115180D01*
X210510Y116130D02*
X220510Y116130D01*
X220510Y117080D02*
X210510Y117080D01*
D10*
X371590Y170260D02*
X374070Y170260D01*
X371590Y170260D02*
X371590Y171240D01*
X374070Y171240D01*
X374070Y170260D01*
X374070Y171229D02*
X371590Y171229D01*
X371590Y166260D02*
X374070Y166260D01*
X371590Y166260D02*
X371590Y167240D01*
X374070Y167240D01*
X374070Y166260D01*
X374070Y167229D02*
X371590Y167229D01*
X371590Y162260D02*
X374070Y162260D01*
X371590Y162260D02*
X371590Y163240D01*
X374070Y163240D01*
X374070Y162260D01*
X374070Y163229D02*
X371590Y163229D01*
X371590Y158260D02*
X374070Y158260D01*
X371590Y158260D02*
X371590Y159240D01*
X374070Y159240D01*
X374070Y158260D01*
X374070Y159229D02*
X371590Y159229D01*
X371590Y154260D02*
X374070Y154260D01*
X371590Y154260D02*
X371590Y155240D01*
X374070Y155240D01*
X374070Y154260D01*
X374070Y155229D02*
X371590Y155229D01*
X371590Y150260D02*
X374070Y150260D01*
X371590Y150260D02*
X371590Y151240D01*
X374070Y151240D01*
X374070Y150260D01*
X374070Y151229D02*
X371590Y151229D01*
X371590Y146260D02*
X374070Y146260D01*
X371590Y146260D02*
X371590Y147240D01*
X374070Y147240D01*
X374070Y146260D01*
X374070Y147229D02*
X371590Y147229D01*
X384070Y146740D02*
X384070Y144260D01*
X383090Y144260D01*
X383090Y146740D01*
X384070Y146740D01*
X384070Y145229D02*
X383090Y145229D01*
X383090Y146198D02*
X384070Y146198D01*
X389070Y146740D02*
X389070Y144260D01*
X388090Y144260D01*
X388090Y146740D01*
X389070Y146740D01*
X389070Y145229D02*
X388090Y145229D01*
X388090Y146198D02*
X389070Y146198D01*
X398090Y147240D02*
X400570Y147240D01*
X400570Y146260D01*
X398090Y146260D01*
X398090Y147240D01*
X398090Y147229D02*
X400570Y147229D01*
X400570Y151240D02*
X398090Y151240D01*
X400570Y151240D02*
X400570Y150260D01*
X398090Y150260D01*
X398090Y151240D01*
X398090Y151229D02*
X400570Y151229D01*
X400570Y155240D02*
X398090Y155240D01*
X400570Y155240D02*
X400570Y154260D01*
X398090Y154260D01*
X398090Y155240D01*
X398090Y155229D02*
X400570Y155229D01*
X400570Y159240D02*
X398090Y159240D01*
X400570Y159240D02*
X400570Y158260D01*
X398090Y158260D01*
X398090Y159240D01*
X398090Y159229D02*
X400570Y159229D01*
X400570Y163240D02*
X398090Y163240D01*
X400570Y163240D02*
X400570Y162260D01*
X398090Y162260D01*
X398090Y163240D01*
X398090Y163229D02*
X400570Y163229D01*
X400570Y167240D02*
X398090Y167240D01*
X400570Y167240D02*
X400570Y166260D01*
X398090Y166260D01*
X398090Y167240D01*
X398090Y167229D02*
X400570Y167229D01*
X400570Y171240D02*
X398090Y171240D01*
X400570Y171240D02*
X400570Y170260D01*
X398090Y170260D01*
X398090Y171240D01*
X398090Y171229D02*
X400570Y171229D01*
X388090Y170760D02*
X388090Y173240D01*
X389070Y173240D01*
X389070Y170760D01*
X388090Y170760D01*
X388090Y171729D02*
X389070Y171729D01*
X389070Y172698D02*
X388090Y172698D01*
X383090Y173240D02*
X383090Y170760D01*
X383090Y173240D02*
X384070Y173240D01*
X384070Y170760D01*
X383090Y170760D01*
X383090Y171729D02*
X384070Y171729D01*
X384070Y172698D02*
X383090Y172698D01*
D11*
X381080Y164250D03*
X391080Y164250D03*
X391080Y153250D03*
X381080Y153250D03*
D12*
X325560Y147920D02*
X325560Y134880D01*
X325560Y147920D02*
X336600Y147920D01*
X336600Y134880D01*
X325560Y134880D01*
X325560Y135792D02*
X336600Y135792D01*
X336600Y136704D02*
X325560Y136704D01*
X325560Y137616D02*
X336600Y137616D01*
X336600Y138528D02*
X325560Y138528D01*
X325560Y139440D02*
X336600Y139440D01*
X336600Y140352D02*
X325560Y140352D01*
X325560Y141264D02*
X336600Y141264D01*
X336600Y142176D02*
X325560Y142176D01*
X325560Y143088D02*
X336600Y143088D01*
X336600Y144000D02*
X325560Y144000D01*
X325560Y144912D02*
X336600Y144912D01*
X336600Y145824D02*
X325560Y145824D01*
X325560Y146736D02*
X336600Y146736D01*
X336600Y147648D02*
X325560Y147648D01*
X336600Y156880D02*
X336600Y169920D01*
X336600Y156880D02*
X325560Y156880D01*
X325560Y169920D01*
X336600Y169920D01*
X336600Y157792D02*
X325560Y157792D01*
X325560Y158704D02*
X336600Y158704D01*
X336600Y159616D02*
X325560Y159616D01*
X325560Y160528D02*
X336600Y160528D01*
X336600Y161440D02*
X325560Y161440D01*
X325560Y162352D02*
X336600Y162352D01*
X336600Y163264D02*
X325560Y163264D01*
X325560Y164176D02*
X336600Y164176D01*
X336600Y165088D02*
X325560Y165088D01*
X325560Y166000D02*
X336600Y166000D01*
X336600Y166912D02*
X325560Y166912D01*
X325560Y167824D02*
X336600Y167824D01*
X336600Y168736D02*
X325560Y168736D01*
X325560Y169648D02*
X336600Y169648D01*
X319600Y169920D02*
X319600Y156880D01*
X308560Y156880D01*
X308560Y169920D01*
X319600Y169920D01*
X319600Y157792D02*
X308560Y157792D01*
X308560Y158704D02*
X319600Y158704D01*
X319600Y159616D02*
X308560Y159616D01*
X308560Y160528D02*
X319600Y160528D01*
X319600Y161440D02*
X308560Y161440D01*
X308560Y162352D02*
X319600Y162352D01*
X319600Y163264D02*
X308560Y163264D01*
X308560Y164176D02*
X319600Y164176D01*
X319600Y165088D02*
X308560Y165088D01*
X308560Y166000D02*
X319600Y166000D01*
X319600Y166912D02*
X308560Y166912D01*
X308560Y167824D02*
X319600Y167824D01*
X319600Y168736D02*
X308560Y168736D01*
X308560Y169648D02*
X319600Y169648D01*
X308560Y147920D02*
X308560Y134880D01*
X308560Y147920D02*
X319600Y147920D01*
X319600Y134880D01*
X308560Y134880D01*
X308560Y135792D02*
X319600Y135792D01*
X319600Y136704D02*
X308560Y136704D01*
X308560Y137616D02*
X319600Y137616D01*
X319600Y138528D02*
X308560Y138528D01*
X308560Y139440D02*
X319600Y139440D01*
X319600Y140352D02*
X308560Y140352D01*
X308560Y141264D02*
X319600Y141264D01*
X319600Y142176D02*
X308560Y142176D01*
X308560Y143088D02*
X319600Y143088D01*
X319600Y144000D02*
X308560Y144000D01*
X308560Y144912D02*
X319600Y144912D01*
X319600Y145824D02*
X308560Y145824D01*
X308560Y146736D02*
X319600Y146736D01*
X319600Y147648D02*
X308560Y147648D01*
D13*
X372580Y179650D02*
X382580Y179650D01*
X372580Y179650D02*
X372580Y188650D01*
X382580Y188650D01*
X382580Y179650D01*
X382580Y180600D02*
X372580Y180600D01*
X372580Y181550D02*
X382580Y181550D01*
X382580Y182500D02*
X372580Y182500D01*
X372580Y183450D02*
X382580Y183450D01*
X382580Y184400D02*
X372580Y184400D01*
X372580Y185350D02*
X382580Y185350D01*
X382580Y186300D02*
X372580Y186300D01*
X372580Y187250D02*
X382580Y187250D01*
X382580Y188200D02*
X372580Y188200D01*
X389580Y179650D02*
X399580Y179650D01*
X389580Y179650D02*
X389580Y188650D01*
X399580Y188650D01*
X399580Y179650D01*
X399580Y180600D02*
X389580Y180600D01*
X389580Y181550D02*
X399580Y181550D01*
X399580Y182500D02*
X389580Y182500D01*
X389580Y183450D02*
X399580Y183450D01*
X399580Y184400D02*
X389580Y184400D01*
X389580Y185350D02*
X399580Y185350D01*
X399580Y186300D02*
X389580Y186300D01*
X389580Y187250D02*
X399580Y187250D01*
X399580Y188200D02*
X389580Y188200D01*
D14*
X449421Y85249D02*
X480219Y85249D01*
X480219Y54451D01*
X449421Y54451D01*
X449421Y85249D01*
X449421Y55356D02*
X480219Y55356D01*
X480219Y56261D02*
X449421Y56261D01*
X449421Y57166D02*
X480219Y57166D01*
X480219Y58071D02*
X449421Y58071D01*
X449421Y58976D02*
X480219Y58976D01*
X480219Y59881D02*
X449421Y59881D01*
X449421Y60786D02*
X480219Y60786D01*
X480219Y61691D02*
X449421Y61691D01*
X449421Y62596D02*
X480219Y62596D01*
X480219Y63501D02*
X449421Y63501D01*
X449421Y64406D02*
X480219Y64406D01*
X480219Y65311D02*
X449421Y65311D01*
X449421Y66216D02*
X480219Y66216D01*
X480219Y67121D02*
X449421Y67121D01*
X449421Y68026D02*
X480219Y68026D01*
X480219Y68931D02*
X449421Y68931D01*
X449421Y69836D02*
X480219Y69836D01*
X480219Y70741D02*
X449421Y70741D01*
X449421Y71646D02*
X480219Y71646D01*
X480219Y72551D02*
X449421Y72551D01*
X449421Y73456D02*
X480219Y73456D01*
X480219Y74361D02*
X449421Y74361D01*
X449421Y75266D02*
X480219Y75266D01*
X480219Y76171D02*
X449421Y76171D01*
X449421Y77076D02*
X480219Y77076D01*
X480219Y77981D02*
X449421Y77981D01*
X449421Y78886D02*
X480219Y78886D01*
X480219Y79791D02*
X449421Y79791D01*
X449421Y80696D02*
X480219Y80696D01*
X480219Y81601D02*
X449421Y81601D01*
X449421Y82506D02*
X480219Y82506D01*
X480219Y83411D02*
X449421Y83411D01*
X449421Y84316D02*
X480219Y84316D01*
X480219Y85221D02*
X449421Y85221D01*
X322739Y85249D02*
X291941Y85249D01*
X322739Y85249D02*
X322739Y54451D01*
X291941Y54451D01*
X291941Y85249D01*
X291941Y55356D02*
X322739Y55356D01*
X322739Y56261D02*
X291941Y56261D01*
X291941Y57166D02*
X322739Y57166D01*
X322739Y58071D02*
X291941Y58071D01*
X291941Y58976D02*
X322739Y58976D01*
X322739Y59881D02*
X291941Y59881D01*
X291941Y60786D02*
X322739Y60786D01*
X322739Y61691D02*
X291941Y61691D01*
X291941Y62596D02*
X322739Y62596D01*
X322739Y63501D02*
X291941Y63501D01*
X291941Y64406D02*
X322739Y64406D01*
X322739Y65311D02*
X291941Y65311D01*
X291941Y66216D02*
X322739Y66216D01*
X322739Y67121D02*
X291941Y67121D01*
X291941Y68026D02*
X322739Y68026D01*
X322739Y68931D02*
X291941Y68931D01*
X291941Y69836D02*
X322739Y69836D01*
X322739Y70741D02*
X291941Y70741D01*
X291941Y71646D02*
X322739Y71646D01*
X322739Y72551D02*
X291941Y72551D01*
X291941Y73456D02*
X322739Y73456D01*
X322739Y74361D02*
X291941Y74361D01*
X291941Y75266D02*
X322739Y75266D01*
X322739Y76171D02*
X291941Y76171D01*
X291941Y77076D02*
X322739Y77076D01*
X322739Y77981D02*
X291941Y77981D01*
X291941Y78886D02*
X322739Y78886D01*
X322739Y79791D02*
X291941Y79791D01*
X291941Y80696D02*
X322739Y80696D01*
X322739Y81601D02*
X291941Y81601D01*
X291941Y82506D02*
X322739Y82506D01*
X322739Y83411D02*
X291941Y83411D01*
X291941Y84316D02*
X322739Y84316D01*
X322739Y85221D02*
X291941Y85221D01*
D15*
X376080Y69850D02*
X376083Y70095D01*
X376092Y70341D01*
X376107Y70586D01*
X376128Y70830D01*
X376155Y71074D01*
X376188Y71317D01*
X376227Y71560D01*
X376272Y71801D01*
X376323Y72041D01*
X376380Y72280D01*
X376442Y72517D01*
X376511Y72753D01*
X376585Y72987D01*
X376665Y73219D01*
X376750Y73449D01*
X376841Y73677D01*
X376938Y73902D01*
X377040Y74126D01*
X377148Y74346D01*
X377261Y74564D01*
X377379Y74779D01*
X377503Y74991D01*
X377631Y75200D01*
X377765Y75406D01*
X377904Y75608D01*
X378048Y75807D01*
X378197Y76002D01*
X378350Y76194D01*
X378508Y76382D01*
X378670Y76566D01*
X378838Y76745D01*
X379009Y76921D01*
X379185Y77092D01*
X379364Y77260D01*
X379548Y77422D01*
X379736Y77580D01*
X379928Y77733D01*
X380123Y77882D01*
X380322Y78026D01*
X380524Y78165D01*
X380730Y78299D01*
X380939Y78427D01*
X381151Y78551D01*
X381366Y78669D01*
X381584Y78782D01*
X381804Y78890D01*
X382028Y78992D01*
X382253Y79089D01*
X382481Y79180D01*
X382711Y79265D01*
X382943Y79345D01*
X383177Y79419D01*
X383413Y79488D01*
X383650Y79550D01*
X383889Y79607D01*
X384129Y79658D01*
X384370Y79703D01*
X384613Y79742D01*
X384856Y79775D01*
X385100Y79802D01*
X385344Y79823D01*
X385589Y79838D01*
X385835Y79847D01*
X386080Y79850D01*
X386325Y79847D01*
X386571Y79838D01*
X386816Y79823D01*
X387060Y79802D01*
X387304Y79775D01*
X387547Y79742D01*
X387790Y79703D01*
X388031Y79658D01*
X388271Y79607D01*
X388510Y79550D01*
X388747Y79488D01*
X388983Y79419D01*
X389217Y79345D01*
X389449Y79265D01*
X389679Y79180D01*
X389907Y79089D01*
X390132Y78992D01*
X390356Y78890D01*
X390576Y78782D01*
X390794Y78669D01*
X391009Y78551D01*
X391221Y78427D01*
X391430Y78299D01*
X391636Y78165D01*
X391838Y78026D01*
X392037Y77882D01*
X392232Y77733D01*
X392424Y77580D01*
X392612Y77422D01*
X392796Y77260D01*
X392975Y77092D01*
X393151Y76921D01*
X393322Y76745D01*
X393490Y76566D01*
X393652Y76382D01*
X393810Y76194D01*
X393963Y76002D01*
X394112Y75807D01*
X394256Y75608D01*
X394395Y75406D01*
X394529Y75200D01*
X394657Y74991D01*
X394781Y74779D01*
X394899Y74564D01*
X395012Y74346D01*
X395120Y74126D01*
X395222Y73902D01*
X395319Y73677D01*
X395410Y73449D01*
X395495Y73219D01*
X395575Y72987D01*
X395649Y72753D01*
X395718Y72517D01*
X395780Y72280D01*
X395837Y72041D01*
X395888Y71801D01*
X395933Y71560D01*
X395972Y71317D01*
X396005Y71074D01*
X396032Y70830D01*
X396053Y70586D01*
X396068Y70341D01*
X396077Y70095D01*
X396080Y69850D01*
X396077Y69605D01*
X396068Y69359D01*
X396053Y69114D01*
X396032Y68870D01*
X396005Y68626D01*
X395972Y68383D01*
X395933Y68140D01*
X395888Y67899D01*
X395837Y67659D01*
X395780Y67420D01*
X395718Y67183D01*
X395649Y66947D01*
X395575Y66713D01*
X395495Y66481D01*
X395410Y66251D01*
X395319Y66023D01*
X395222Y65798D01*
X395120Y65574D01*
X395012Y65354D01*
X394899Y65136D01*
X394781Y64921D01*
X394657Y64709D01*
X394529Y64500D01*
X394395Y64294D01*
X394256Y64092D01*
X394112Y63893D01*
X393963Y63698D01*
X393810Y63506D01*
X393652Y63318D01*
X393490Y63134D01*
X393322Y62955D01*
X393151Y62779D01*
X392975Y62608D01*
X392796Y62440D01*
X392612Y62278D01*
X392424Y62120D01*
X392232Y61967D01*
X392037Y61818D01*
X391838Y61674D01*
X391636Y61535D01*
X391430Y61401D01*
X391221Y61273D01*
X391009Y61149D01*
X390794Y61031D01*
X390576Y60918D01*
X390356Y60810D01*
X390132Y60708D01*
X389907Y60611D01*
X389679Y60520D01*
X389449Y60435D01*
X389217Y60355D01*
X388983Y60281D01*
X388747Y60212D01*
X388510Y60150D01*
X388271Y60093D01*
X388031Y60042D01*
X387790Y59997D01*
X387547Y59958D01*
X387304Y59925D01*
X387060Y59898D01*
X386816Y59877D01*
X386571Y59862D01*
X386325Y59853D01*
X386080Y59850D01*
X385835Y59853D01*
X385589Y59862D01*
X385344Y59877D01*
X385100Y59898D01*
X384856Y59925D01*
X384613Y59958D01*
X384370Y59997D01*
X384129Y60042D01*
X383889Y60093D01*
X383650Y60150D01*
X383413Y60212D01*
X383177Y60281D01*
X382943Y60355D01*
X382711Y60435D01*
X382481Y60520D01*
X382253Y60611D01*
X382028Y60708D01*
X381804Y60810D01*
X381584Y60918D01*
X381366Y61031D01*
X381151Y61149D01*
X380939Y61273D01*
X380730Y61401D01*
X380524Y61535D01*
X380322Y61674D01*
X380123Y61818D01*
X379928Y61967D01*
X379736Y62120D01*
X379548Y62278D01*
X379364Y62440D01*
X379185Y62608D01*
X379009Y62779D01*
X378838Y62955D01*
X378670Y63134D01*
X378508Y63318D01*
X378350Y63506D01*
X378197Y63698D01*
X378048Y63893D01*
X377904Y64092D01*
X377765Y64294D01*
X377631Y64500D01*
X377503Y64709D01*
X377379Y64921D01*
X377261Y65136D01*
X377148Y65354D01*
X377040Y65574D01*
X376938Y65798D01*
X376841Y66023D01*
X376750Y66251D01*
X376665Y66481D01*
X376585Y66713D01*
X376511Y66947D01*
X376442Y67183D01*
X376380Y67420D01*
X376323Y67659D01*
X376272Y67899D01*
X376227Y68140D01*
X376188Y68383D01*
X376155Y68626D01*
X376128Y68870D01*
X376107Y69114D01*
X376092Y69359D01*
X376083Y69605D01*
X376080Y69850D01*
D13*
X336080Y188650D02*
X326080Y188650D01*
X336080Y188650D02*
X336080Y179650D01*
X326080Y179650D01*
X326080Y188650D01*
X326080Y180600D02*
X336080Y180600D01*
X336080Y181550D02*
X326080Y181550D01*
X326080Y182500D02*
X336080Y182500D01*
X336080Y183450D02*
X326080Y183450D01*
X326080Y184400D02*
X336080Y184400D01*
X336080Y185350D02*
X326080Y185350D01*
X326080Y186300D02*
X336080Y186300D01*
X336080Y187250D02*
X326080Y187250D01*
X326080Y188200D02*
X336080Y188200D01*
X319080Y188650D02*
X309080Y188650D01*
X319080Y188650D02*
X319080Y179650D01*
X309080Y179650D01*
X309080Y188650D01*
X309080Y180600D02*
X319080Y180600D01*
X319080Y181550D02*
X309080Y181550D01*
X309080Y182500D02*
X319080Y182500D01*
X319080Y183450D02*
X309080Y183450D01*
X309080Y184400D02*
X319080Y184400D01*
X319080Y185350D02*
X309080Y185350D01*
X309080Y186300D02*
X319080Y186300D01*
X319080Y187250D02*
X309080Y187250D01*
X309080Y188200D02*
X319080Y188200D01*
D10*
X431040Y176020D02*
X431040Y171040D01*
X431040Y176020D02*
X445520Y176020D01*
X445520Y171040D01*
X431040Y171040D01*
X431040Y172009D02*
X445520Y172009D01*
X445520Y172978D02*
X431040Y172978D01*
X431040Y173947D02*
X445520Y173947D01*
X445520Y174916D02*
X431040Y174916D01*
X431040Y175885D02*
X445520Y175885D01*
X431040Y166020D02*
X431040Y161040D01*
X431040Y166020D02*
X445520Y166020D01*
X445520Y161040D01*
X431040Y161040D01*
X431040Y162009D02*
X445520Y162009D01*
X445520Y162978D02*
X431040Y162978D01*
X431040Y163947D02*
X445520Y163947D01*
X445520Y164916D02*
X431040Y164916D01*
X431040Y165885D02*
X445520Y165885D01*
X431040Y156020D02*
X431040Y151040D01*
X431040Y156020D02*
X445520Y156020D01*
X445520Y151040D01*
X431040Y151040D01*
X431040Y152009D02*
X445520Y152009D01*
X445520Y152978D02*
X431040Y152978D01*
X431040Y153947D02*
X445520Y153947D01*
X445520Y154916D02*
X431040Y154916D01*
X431040Y155885D02*
X445520Y155885D01*
X431040Y146020D02*
X431040Y141040D01*
X431040Y146020D02*
X445520Y146020D01*
X445520Y141040D01*
X431040Y141040D01*
X431040Y142009D02*
X445520Y142009D01*
X445520Y142978D02*
X431040Y142978D01*
X431040Y143947D02*
X445520Y143947D01*
X445520Y144916D02*
X431040Y144916D01*
X431040Y145885D02*
X445520Y145885D01*
D12*
X453010Y181010D02*
X453010Y192050D01*
X472050Y192050D01*
X472050Y181010D01*
X453010Y181010D01*
X453010Y181922D02*
X472050Y181922D01*
X472050Y182834D02*
X453010Y182834D01*
X453010Y183746D02*
X472050Y183746D01*
X472050Y184658D02*
X453010Y184658D01*
X453010Y185570D02*
X472050Y185570D01*
X472050Y186482D02*
X453010Y186482D01*
X453010Y187394D02*
X472050Y187394D01*
X472050Y188306D02*
X453010Y188306D01*
X453010Y189218D02*
X472050Y189218D01*
X472050Y190130D02*
X453010Y190130D01*
X453010Y191042D02*
X472050Y191042D01*
X472050Y191954D02*
X453010Y191954D01*
X453010Y136050D02*
X453010Y125010D01*
X453010Y136050D02*
X472050Y136050D01*
X472050Y125010D01*
X453010Y125010D01*
X453010Y125922D02*
X472050Y125922D01*
X472050Y126834D02*
X453010Y126834D01*
X453010Y127746D02*
X472050Y127746D01*
X472050Y128658D02*
X453010Y128658D01*
X453010Y129570D02*
X472050Y129570D01*
X472050Y130482D02*
X453010Y130482D01*
X453010Y131394D02*
X472050Y131394D01*
X472050Y132306D02*
X453010Y132306D01*
X453010Y133218D02*
X472050Y133218D01*
X472050Y134130D02*
X453010Y134130D01*
X453010Y135042D02*
X472050Y135042D01*
X472050Y135954D02*
X453010Y135954D01*
D16*
X460820Y100020D02*
X460820Y93020D01*
X453820Y93020D01*
X453820Y100020D01*
X460820Y100020D01*
X460820Y95870D02*
X453820Y95870D01*
X453820Y98720D02*
X460820Y98720D01*
X478360Y100020D02*
X478360Y93020D01*
X471360Y93020D01*
X471360Y100020D01*
X478360Y100020D01*
X478360Y95870D02*
X471360Y95870D01*
X471360Y98720D02*
X478360Y98720D01*
D13*
X462590Y108530D02*
X452590Y108530D01*
X452590Y117530D01*
X462590Y117530D01*
X462590Y108530D01*
X462590Y109480D02*
X452590Y109480D01*
X452590Y110430D02*
X462590Y110430D01*
X462590Y111380D02*
X452590Y111380D01*
X452590Y112330D02*
X462590Y112330D01*
X462590Y113280D02*
X452590Y113280D01*
X452590Y114230D02*
X462590Y114230D01*
X462590Y115180D02*
X452590Y115180D01*
X452590Y116130D02*
X462590Y116130D01*
X462590Y117080D02*
X452590Y117080D01*
X469590Y108530D02*
X479590Y108530D01*
X469590Y108530D02*
X469590Y117530D01*
X479590Y117530D01*
X479590Y108530D01*
X479590Y109480D02*
X469590Y109480D01*
X469590Y110430D02*
X479590Y110430D01*
X479590Y111380D02*
X469590Y111380D01*
X469590Y112330D02*
X479590Y112330D01*
X479590Y113280D02*
X469590Y113280D01*
X469590Y114230D02*
X479590Y114230D01*
X479590Y115180D02*
X469590Y115180D01*
X469590Y116130D02*
X479590Y116130D01*
X479590Y117080D02*
X469590Y117080D01*
D10*
X630670Y170260D02*
X633150Y170260D01*
X630670Y170260D02*
X630670Y171240D01*
X633150Y171240D01*
X633150Y170260D01*
X633150Y171229D02*
X630670Y171229D01*
X630670Y166260D02*
X633150Y166260D01*
X630670Y166260D02*
X630670Y167240D01*
X633150Y167240D01*
X633150Y166260D01*
X633150Y167229D02*
X630670Y167229D01*
X630670Y162260D02*
X633150Y162260D01*
X630670Y162260D02*
X630670Y163240D01*
X633150Y163240D01*
X633150Y162260D01*
X633150Y163229D02*
X630670Y163229D01*
X630670Y158260D02*
X633150Y158260D01*
X630670Y158260D02*
X630670Y159240D01*
X633150Y159240D01*
X633150Y158260D01*
X633150Y159229D02*
X630670Y159229D01*
X630670Y154260D02*
X633150Y154260D01*
X630670Y154260D02*
X630670Y155240D01*
X633150Y155240D01*
X633150Y154260D01*
X633150Y155229D02*
X630670Y155229D01*
X630670Y150260D02*
X633150Y150260D01*
X630670Y150260D02*
X630670Y151240D01*
X633150Y151240D01*
X633150Y150260D01*
X633150Y151229D02*
X630670Y151229D01*
X630670Y146260D02*
X633150Y146260D01*
X630670Y146260D02*
X630670Y147240D01*
X633150Y147240D01*
X633150Y146260D01*
X633150Y147229D02*
X630670Y147229D01*
X643150Y146740D02*
X643150Y144260D01*
X642170Y144260D01*
X642170Y146740D01*
X643150Y146740D01*
X643150Y145229D02*
X642170Y145229D01*
X642170Y146198D02*
X643150Y146198D01*
X648150Y146740D02*
X648150Y144260D01*
X647170Y144260D01*
X647170Y146740D01*
X648150Y146740D01*
X648150Y145229D02*
X647170Y145229D01*
X647170Y146198D02*
X648150Y146198D01*
X657170Y147240D02*
X659650Y147240D01*
X659650Y146260D01*
X657170Y146260D01*
X657170Y147240D01*
X657170Y147229D02*
X659650Y147229D01*
X659650Y151240D02*
X657170Y151240D01*
X659650Y151240D02*
X659650Y150260D01*
X657170Y150260D01*
X657170Y151240D01*
X657170Y151229D02*
X659650Y151229D01*
X659650Y155240D02*
X657170Y155240D01*
X659650Y155240D02*
X659650Y154260D01*
X657170Y154260D01*
X657170Y155240D01*
X657170Y155229D02*
X659650Y155229D01*
X659650Y159240D02*
X657170Y159240D01*
X659650Y159240D02*
X659650Y158260D01*
X657170Y158260D01*
X657170Y159240D01*
X657170Y159229D02*
X659650Y159229D01*
X659650Y163240D02*
X657170Y163240D01*
X659650Y163240D02*
X659650Y162260D01*
X657170Y162260D01*
X657170Y163240D01*
X657170Y163229D02*
X659650Y163229D01*
X659650Y167240D02*
X657170Y167240D01*
X659650Y167240D02*
X659650Y166260D01*
X657170Y166260D01*
X657170Y167240D01*
X657170Y167229D02*
X659650Y167229D01*
X659650Y171240D02*
X657170Y171240D01*
X659650Y171240D02*
X659650Y170260D01*
X657170Y170260D01*
X657170Y171240D01*
X657170Y171229D02*
X659650Y171229D01*
X647170Y170760D02*
X647170Y173240D01*
X648150Y173240D01*
X648150Y170760D01*
X647170Y170760D01*
X647170Y171729D02*
X648150Y171729D01*
X648150Y172698D02*
X647170Y172698D01*
X642170Y173240D02*
X642170Y170760D01*
X642170Y173240D02*
X643150Y173240D01*
X643150Y170760D01*
X642170Y170760D01*
X642170Y171729D02*
X643150Y171729D01*
X643150Y172698D02*
X642170Y172698D01*
D11*
X640160Y164250D03*
X650160Y164250D03*
X650160Y153250D03*
X640160Y153250D03*
D12*
X584640Y147920D02*
X584640Y134880D01*
X584640Y147920D02*
X595680Y147920D01*
X595680Y134880D01*
X584640Y134880D01*
X584640Y135792D02*
X595680Y135792D01*
X595680Y136704D02*
X584640Y136704D01*
X584640Y137616D02*
X595680Y137616D01*
X595680Y138528D02*
X584640Y138528D01*
X584640Y139440D02*
X595680Y139440D01*
X595680Y140352D02*
X584640Y140352D01*
X584640Y141264D02*
X595680Y141264D01*
X595680Y142176D02*
X584640Y142176D01*
X584640Y143088D02*
X595680Y143088D01*
X595680Y144000D02*
X584640Y144000D01*
X584640Y144912D02*
X595680Y144912D01*
X595680Y145824D02*
X584640Y145824D01*
X584640Y146736D02*
X595680Y146736D01*
X595680Y147648D02*
X584640Y147648D01*
X595680Y156880D02*
X595680Y169920D01*
X595680Y156880D02*
X584640Y156880D01*
X584640Y169920D01*
X595680Y169920D01*
X595680Y157792D02*
X584640Y157792D01*
X584640Y158704D02*
X595680Y158704D01*
X595680Y159616D02*
X584640Y159616D01*
X584640Y160528D02*
X595680Y160528D01*
X595680Y161440D02*
X584640Y161440D01*
X584640Y162352D02*
X595680Y162352D01*
X595680Y163264D02*
X584640Y163264D01*
X584640Y164176D02*
X595680Y164176D01*
X595680Y165088D02*
X584640Y165088D01*
X584640Y166000D02*
X595680Y166000D01*
X595680Y166912D02*
X584640Y166912D01*
X584640Y167824D02*
X595680Y167824D01*
X595680Y168736D02*
X584640Y168736D01*
X584640Y169648D02*
X595680Y169648D01*
X578680Y169920D02*
X578680Y156880D01*
X567640Y156880D01*
X567640Y169920D01*
X578680Y169920D01*
X578680Y157792D02*
X567640Y157792D01*
X567640Y158704D02*
X578680Y158704D01*
X578680Y159616D02*
X567640Y159616D01*
X567640Y160528D02*
X578680Y160528D01*
X578680Y161440D02*
X567640Y161440D01*
X567640Y162352D02*
X578680Y162352D01*
X578680Y163264D02*
X567640Y163264D01*
X567640Y164176D02*
X578680Y164176D01*
X578680Y165088D02*
X567640Y165088D01*
X567640Y166000D02*
X578680Y166000D01*
X578680Y166912D02*
X567640Y166912D01*
X567640Y167824D02*
X578680Y167824D01*
X578680Y168736D02*
X567640Y168736D01*
X567640Y169648D02*
X578680Y169648D01*
X567640Y147920D02*
X567640Y134880D01*
X567640Y147920D02*
X578680Y147920D01*
X578680Y134880D01*
X567640Y134880D01*
X567640Y135792D02*
X578680Y135792D01*
X578680Y136704D02*
X567640Y136704D01*
X567640Y137616D02*
X578680Y137616D01*
X578680Y138528D02*
X567640Y138528D01*
X567640Y139440D02*
X578680Y139440D01*
X578680Y140352D02*
X567640Y140352D01*
X567640Y141264D02*
X578680Y141264D01*
X578680Y142176D02*
X567640Y142176D01*
X567640Y143088D02*
X578680Y143088D01*
X578680Y144000D02*
X567640Y144000D01*
X567640Y144912D02*
X578680Y144912D01*
X578680Y145824D02*
X567640Y145824D01*
X567640Y146736D02*
X578680Y146736D01*
X578680Y147648D02*
X567640Y147648D01*
D13*
X631660Y179650D02*
X641660Y179650D01*
X631660Y179650D02*
X631660Y188650D01*
X641660Y188650D01*
X641660Y179650D01*
X641660Y180600D02*
X631660Y180600D01*
X631660Y181550D02*
X641660Y181550D01*
X641660Y182500D02*
X631660Y182500D01*
X631660Y183450D02*
X641660Y183450D01*
X641660Y184400D02*
X631660Y184400D01*
X631660Y185350D02*
X641660Y185350D01*
X641660Y186300D02*
X631660Y186300D01*
X631660Y187250D02*
X641660Y187250D01*
X641660Y188200D02*
X631660Y188200D01*
X648660Y179650D02*
X658660Y179650D01*
X648660Y179650D02*
X648660Y188650D01*
X658660Y188650D01*
X658660Y179650D01*
X658660Y180600D02*
X648660Y180600D01*
X648660Y181550D02*
X658660Y181550D01*
X658660Y182500D02*
X648660Y182500D01*
X648660Y183450D02*
X658660Y183450D01*
X658660Y184400D02*
X648660Y184400D01*
X648660Y185350D02*
X658660Y185350D01*
X658660Y186300D02*
X648660Y186300D01*
X648660Y187250D02*
X658660Y187250D01*
X658660Y188200D02*
X648660Y188200D01*
D14*
X708501Y85249D02*
X739299Y85249D01*
X739299Y54451D01*
X708501Y54451D01*
X708501Y85249D01*
X708501Y55356D02*
X739299Y55356D01*
X739299Y56261D02*
X708501Y56261D01*
X708501Y57166D02*
X739299Y57166D01*
X739299Y58071D02*
X708501Y58071D01*
X708501Y58976D02*
X739299Y58976D01*
X739299Y59881D02*
X708501Y59881D01*
X708501Y60786D02*
X739299Y60786D01*
X739299Y61691D02*
X708501Y61691D01*
X708501Y62596D02*
X739299Y62596D01*
X739299Y63501D02*
X708501Y63501D01*
X708501Y64406D02*
X739299Y64406D01*
X739299Y65311D02*
X708501Y65311D01*
X708501Y66216D02*
X739299Y66216D01*
X739299Y67121D02*
X708501Y67121D01*
X708501Y68026D02*
X739299Y68026D01*
X739299Y68931D02*
X708501Y68931D01*
X708501Y69836D02*
X739299Y69836D01*
X739299Y70741D02*
X708501Y70741D01*
X708501Y71646D02*
X739299Y71646D01*
X739299Y72551D02*
X708501Y72551D01*
X708501Y73456D02*
X739299Y73456D01*
X739299Y74361D02*
X708501Y74361D01*
X708501Y75266D02*
X739299Y75266D01*
X739299Y76171D02*
X708501Y76171D01*
X708501Y77076D02*
X739299Y77076D01*
X739299Y77981D02*
X708501Y77981D01*
X708501Y78886D02*
X739299Y78886D01*
X739299Y79791D02*
X708501Y79791D01*
X708501Y80696D02*
X739299Y80696D01*
X739299Y81601D02*
X708501Y81601D01*
X708501Y82506D02*
X739299Y82506D01*
X739299Y83411D02*
X708501Y83411D01*
X708501Y84316D02*
X739299Y84316D01*
X739299Y85221D02*
X708501Y85221D01*
X581819Y85249D02*
X551021Y85249D01*
X581819Y85249D02*
X581819Y54451D01*
X551021Y54451D01*
X551021Y85249D01*
X551021Y55356D02*
X581819Y55356D01*
X581819Y56261D02*
X551021Y56261D01*
X551021Y57166D02*
X581819Y57166D01*
X581819Y58071D02*
X551021Y58071D01*
X551021Y58976D02*
X581819Y58976D01*
X581819Y59881D02*
X551021Y59881D01*
X551021Y60786D02*
X581819Y60786D01*
X581819Y61691D02*
X551021Y61691D01*
X551021Y62596D02*
X581819Y62596D01*
X581819Y63501D02*
X551021Y63501D01*
X551021Y64406D02*
X581819Y64406D01*
X581819Y65311D02*
X551021Y65311D01*
X551021Y66216D02*
X581819Y66216D01*
X581819Y67121D02*
X551021Y67121D01*
X551021Y68026D02*
X581819Y68026D01*
X581819Y68931D02*
X551021Y68931D01*
X551021Y69836D02*
X581819Y69836D01*
X581819Y70741D02*
X551021Y70741D01*
X551021Y71646D02*
X581819Y71646D01*
X581819Y72551D02*
X551021Y72551D01*
X551021Y73456D02*
X581819Y73456D01*
X581819Y74361D02*
X551021Y74361D01*
X551021Y75266D02*
X581819Y75266D01*
X581819Y76171D02*
X551021Y76171D01*
X551021Y77076D02*
X581819Y77076D01*
X581819Y77981D02*
X551021Y77981D01*
X551021Y78886D02*
X581819Y78886D01*
X581819Y79791D02*
X551021Y79791D01*
X551021Y80696D02*
X581819Y80696D01*
X581819Y81601D02*
X551021Y81601D01*
X551021Y82506D02*
X581819Y82506D01*
X581819Y83411D02*
X551021Y83411D01*
X551021Y84316D02*
X581819Y84316D01*
X581819Y85221D02*
X551021Y85221D01*
D15*
X635160Y69850D02*
X635163Y70095D01*
X635172Y70341D01*
X635187Y70586D01*
X635208Y70830D01*
X635235Y71074D01*
X635268Y71317D01*
X635307Y71560D01*
X635352Y71801D01*
X635403Y72041D01*
X635460Y72280D01*
X635522Y72517D01*
X635591Y72753D01*
X635665Y72987D01*
X635745Y73219D01*
X635830Y73449D01*
X635921Y73677D01*
X636018Y73902D01*
X636120Y74126D01*
X636228Y74346D01*
X636341Y74564D01*
X636459Y74779D01*
X636583Y74991D01*
X636711Y75200D01*
X636845Y75406D01*
X636984Y75608D01*
X637128Y75807D01*
X637277Y76002D01*
X637430Y76194D01*
X637588Y76382D01*
X637750Y76566D01*
X637918Y76745D01*
X638089Y76921D01*
X638265Y77092D01*
X638444Y77260D01*
X638628Y77422D01*
X638816Y77580D01*
X639008Y77733D01*
X639203Y77882D01*
X639402Y78026D01*
X639604Y78165D01*
X639810Y78299D01*
X640019Y78427D01*
X640231Y78551D01*
X640446Y78669D01*
X640664Y78782D01*
X640884Y78890D01*
X641108Y78992D01*
X641333Y79089D01*
X641561Y79180D01*
X641791Y79265D01*
X642023Y79345D01*
X642257Y79419D01*
X642493Y79488D01*
X642730Y79550D01*
X642969Y79607D01*
X643209Y79658D01*
X643450Y79703D01*
X643693Y79742D01*
X643936Y79775D01*
X644180Y79802D01*
X644424Y79823D01*
X644669Y79838D01*
X644915Y79847D01*
X645160Y79850D01*
X645405Y79847D01*
X645651Y79838D01*
X645896Y79823D01*
X646140Y79802D01*
X646384Y79775D01*
X646627Y79742D01*
X646870Y79703D01*
X647111Y79658D01*
X647351Y79607D01*
X647590Y79550D01*
X647827Y79488D01*
X648063Y79419D01*
X648297Y79345D01*
X648529Y79265D01*
X648759Y79180D01*
X648987Y79089D01*
X649212Y78992D01*
X649436Y78890D01*
X649656Y78782D01*
X649874Y78669D01*
X650089Y78551D01*
X650301Y78427D01*
X650510Y78299D01*
X650716Y78165D01*
X650918Y78026D01*
X651117Y77882D01*
X651312Y77733D01*
X651504Y77580D01*
X651692Y77422D01*
X651876Y77260D01*
X652055Y77092D01*
X652231Y76921D01*
X652402Y76745D01*
X652570Y76566D01*
X652732Y76382D01*
X652890Y76194D01*
X653043Y76002D01*
X653192Y75807D01*
X653336Y75608D01*
X653475Y75406D01*
X653609Y75200D01*
X653737Y74991D01*
X653861Y74779D01*
X653979Y74564D01*
X654092Y74346D01*
X654200Y74126D01*
X654302Y73902D01*
X654399Y73677D01*
X654490Y73449D01*
X654575Y73219D01*
X654655Y72987D01*
X654729Y72753D01*
X654798Y72517D01*
X654860Y72280D01*
X654917Y72041D01*
X654968Y71801D01*
X655013Y71560D01*
X655052Y71317D01*
X655085Y71074D01*
X655112Y70830D01*
X655133Y70586D01*
X655148Y70341D01*
X655157Y70095D01*
X655160Y69850D01*
X655157Y69605D01*
X655148Y69359D01*
X655133Y69114D01*
X655112Y68870D01*
X655085Y68626D01*
X655052Y68383D01*
X655013Y68140D01*
X654968Y67899D01*
X654917Y67659D01*
X654860Y67420D01*
X654798Y67183D01*
X654729Y66947D01*
X654655Y66713D01*
X654575Y66481D01*
X654490Y66251D01*
X654399Y66023D01*
X654302Y65798D01*
X654200Y65574D01*
X654092Y65354D01*
X653979Y65136D01*
X653861Y64921D01*
X653737Y64709D01*
X653609Y64500D01*
X653475Y64294D01*
X653336Y64092D01*
X653192Y63893D01*
X653043Y63698D01*
X652890Y63506D01*
X652732Y63318D01*
X652570Y63134D01*
X652402Y62955D01*
X652231Y62779D01*
X652055Y62608D01*
X651876Y62440D01*
X651692Y62278D01*
X651504Y62120D01*
X651312Y61967D01*
X651117Y61818D01*
X650918Y61674D01*
X650716Y61535D01*
X650510Y61401D01*
X650301Y61273D01*
X650089Y61149D01*
X649874Y61031D01*
X649656Y60918D01*
X649436Y60810D01*
X649212Y60708D01*
X648987Y60611D01*
X648759Y60520D01*
X648529Y60435D01*
X648297Y60355D01*
X648063Y60281D01*
X647827Y60212D01*
X647590Y60150D01*
X647351Y60093D01*
X647111Y60042D01*
X646870Y59997D01*
X646627Y59958D01*
X646384Y59925D01*
X646140Y59898D01*
X645896Y59877D01*
X645651Y59862D01*
X645405Y59853D01*
X645160Y59850D01*
X644915Y59853D01*
X644669Y59862D01*
X644424Y59877D01*
X644180Y59898D01*
X643936Y59925D01*
X643693Y59958D01*
X643450Y59997D01*
X643209Y60042D01*
X642969Y60093D01*
X642730Y60150D01*
X642493Y60212D01*
X642257Y60281D01*
X642023Y60355D01*
X641791Y60435D01*
X641561Y60520D01*
X641333Y60611D01*
X641108Y60708D01*
X640884Y60810D01*
X640664Y60918D01*
X640446Y61031D01*
X640231Y61149D01*
X640019Y61273D01*
X639810Y61401D01*
X639604Y61535D01*
X639402Y61674D01*
X639203Y61818D01*
X639008Y61967D01*
X638816Y62120D01*
X638628Y62278D01*
X638444Y62440D01*
X638265Y62608D01*
X638089Y62779D01*
X637918Y62955D01*
X637750Y63134D01*
X637588Y63318D01*
X637430Y63506D01*
X637277Y63698D01*
X637128Y63893D01*
X636984Y64092D01*
X636845Y64294D01*
X636711Y64500D01*
X636583Y64709D01*
X636459Y64921D01*
X636341Y65136D01*
X636228Y65354D01*
X636120Y65574D01*
X636018Y65798D01*
X635921Y66023D01*
X635830Y66251D01*
X635745Y66481D01*
X635665Y66713D01*
X635591Y66947D01*
X635522Y67183D01*
X635460Y67420D01*
X635403Y67659D01*
X635352Y67899D01*
X635307Y68140D01*
X635268Y68383D01*
X635235Y68626D01*
X635208Y68870D01*
X635187Y69114D01*
X635172Y69359D01*
X635163Y69605D01*
X635160Y69850D01*
D13*
X595160Y188650D02*
X585160Y188650D01*
X595160Y188650D02*
X595160Y179650D01*
X585160Y179650D01*
X585160Y188650D01*
X585160Y180600D02*
X595160Y180600D01*
X595160Y181550D02*
X585160Y181550D01*
X585160Y182500D02*
X595160Y182500D01*
X595160Y183450D02*
X585160Y183450D01*
X585160Y184400D02*
X595160Y184400D01*
X595160Y185350D02*
X585160Y185350D01*
X585160Y186300D02*
X595160Y186300D01*
X595160Y187250D02*
X585160Y187250D01*
X585160Y188200D02*
X595160Y188200D01*
X578160Y188650D02*
X568160Y188650D01*
X578160Y188650D02*
X578160Y179650D01*
X568160Y179650D01*
X568160Y188650D01*
X568160Y180600D02*
X578160Y180600D01*
X578160Y181550D02*
X568160Y181550D01*
X568160Y182500D02*
X578160Y182500D01*
X578160Y183450D02*
X568160Y183450D01*
X568160Y184400D02*
X578160Y184400D01*
X578160Y185350D02*
X568160Y185350D01*
X568160Y186300D02*
X578160Y186300D01*
X578160Y187250D02*
X568160Y187250D01*
X568160Y188200D02*
X578160Y188200D01*
D10*
X690120Y176020D02*
X690120Y171040D01*
X690120Y176020D02*
X704600Y176020D01*
X704600Y171040D01*
X690120Y171040D01*
X690120Y172009D02*
X704600Y172009D01*
X704600Y172978D02*
X690120Y172978D01*
X690120Y173947D02*
X704600Y173947D01*
X704600Y174916D02*
X690120Y174916D01*
X690120Y175885D02*
X704600Y175885D01*
X690120Y166020D02*
X690120Y161040D01*
X690120Y166020D02*
X704600Y166020D01*
X704600Y161040D01*
X690120Y161040D01*
X690120Y162009D02*
X704600Y162009D01*
X704600Y162978D02*
X690120Y162978D01*
X690120Y163947D02*
X704600Y163947D01*
X704600Y164916D02*
X690120Y164916D01*
X690120Y165885D02*
X704600Y165885D01*
X690120Y156020D02*
X690120Y151040D01*
X690120Y156020D02*
X704600Y156020D01*
X704600Y151040D01*
X690120Y151040D01*
X690120Y152009D02*
X704600Y152009D01*
X704600Y152978D02*
X690120Y152978D01*
X690120Y153947D02*
X704600Y153947D01*
X704600Y154916D02*
X690120Y154916D01*
X690120Y155885D02*
X704600Y155885D01*
X690120Y146020D02*
X690120Y141040D01*
X690120Y146020D02*
X704600Y146020D01*
X704600Y141040D01*
X690120Y141040D01*
X690120Y142009D02*
X704600Y142009D01*
X704600Y142978D02*
X690120Y142978D01*
X690120Y143947D02*
X704600Y143947D01*
X704600Y144916D02*
X690120Y144916D01*
X690120Y145885D02*
X704600Y145885D01*
D12*
X712090Y181010D02*
X712090Y192050D01*
X731130Y192050D01*
X731130Y181010D01*
X712090Y181010D01*
X712090Y181922D02*
X731130Y181922D01*
X731130Y182834D02*
X712090Y182834D01*
X712090Y183746D02*
X731130Y183746D01*
X731130Y184658D02*
X712090Y184658D01*
X712090Y185570D02*
X731130Y185570D01*
X731130Y186482D02*
X712090Y186482D01*
X712090Y187394D02*
X731130Y187394D01*
X731130Y188306D02*
X712090Y188306D01*
X712090Y189218D02*
X731130Y189218D01*
X731130Y190130D02*
X712090Y190130D01*
X712090Y191042D02*
X731130Y191042D01*
X731130Y191954D02*
X712090Y191954D01*
X712090Y136050D02*
X712090Y125010D01*
X712090Y136050D02*
X731130Y136050D01*
X731130Y125010D01*
X712090Y125010D01*
X712090Y125922D02*
X731130Y125922D01*
X731130Y126834D02*
X712090Y126834D01*
X712090Y127746D02*
X731130Y127746D01*
X731130Y128658D02*
X712090Y128658D01*
X712090Y129570D02*
X731130Y129570D01*
X731130Y130482D02*
X712090Y130482D01*
X712090Y131394D02*
X731130Y131394D01*
X731130Y132306D02*
X712090Y132306D01*
X712090Y133218D02*
X731130Y133218D01*
X731130Y134130D02*
X712090Y134130D01*
X712090Y135042D02*
X731130Y135042D01*
X731130Y135954D02*
X712090Y135954D01*
D16*
X719900Y100020D02*
X719900Y93020D01*
X712900Y93020D01*
X712900Y100020D01*
X719900Y100020D01*
X719900Y95870D02*
X712900Y95870D01*
X712900Y98720D02*
X719900Y98720D01*
X737440Y100020D02*
X737440Y93020D01*
X730440Y93020D01*
X730440Y100020D01*
X737440Y100020D01*
X737440Y95870D02*
X730440Y95870D01*
X730440Y98720D02*
X737440Y98720D01*
D13*
X721670Y108530D02*
X711670Y108530D01*
X711670Y117530D01*
X721670Y117530D01*
X721670Y108530D01*
X721670Y109480D02*
X711670Y109480D01*
X711670Y110430D02*
X721670Y110430D01*
X721670Y111380D02*
X711670Y111380D01*
X711670Y112330D02*
X721670Y112330D01*
X721670Y113280D02*
X711670Y113280D01*
X711670Y114230D02*
X721670Y114230D01*
X721670Y115180D02*
X711670Y115180D01*
X711670Y116130D02*
X721670Y116130D01*
X721670Y117080D02*
X711670Y117080D01*
X728670Y108530D02*
X738670Y108530D01*
X728670Y108530D02*
X728670Y117530D01*
X738670Y117530D01*
X738670Y108530D01*
X738670Y109480D02*
X728670Y109480D01*
X728670Y110430D02*
X738670Y110430D01*
X738670Y111380D02*
X728670Y111380D01*
X728670Y112330D02*
X738670Y112330D01*
X738670Y113280D02*
X728670Y113280D01*
X728670Y114230D02*
X738670Y114230D01*
X738670Y115180D02*
X728670Y115180D01*
X728670Y116130D02*
X738670Y116130D01*
X738670Y117080D02*
X728670Y117080D01*
D10*
X114990Y429340D02*
X112510Y429340D01*
X112510Y430320D01*
X114990Y430320D01*
X114990Y429340D01*
X114990Y430309D02*
X112510Y430309D01*
X112510Y425340D02*
X114990Y425340D01*
X112510Y425340D02*
X112510Y426320D01*
X114990Y426320D01*
X114990Y425340D01*
X114990Y426309D02*
X112510Y426309D01*
X112510Y421340D02*
X114990Y421340D01*
X112510Y421340D02*
X112510Y422320D01*
X114990Y422320D01*
X114990Y421340D01*
X114990Y422309D02*
X112510Y422309D01*
X112510Y417340D02*
X114990Y417340D01*
X112510Y417340D02*
X112510Y418320D01*
X114990Y418320D01*
X114990Y417340D01*
X114990Y418309D02*
X112510Y418309D01*
X112510Y413340D02*
X114990Y413340D01*
X112510Y413340D02*
X112510Y414320D01*
X114990Y414320D01*
X114990Y413340D01*
X114990Y414309D02*
X112510Y414309D01*
X112510Y409340D02*
X114990Y409340D01*
X112510Y409340D02*
X112510Y410320D01*
X114990Y410320D01*
X114990Y409340D01*
X114990Y410309D02*
X112510Y410309D01*
X112510Y405340D02*
X114990Y405340D01*
X112510Y405340D02*
X112510Y406320D01*
X114990Y406320D01*
X114990Y405340D01*
X114990Y406309D02*
X112510Y406309D01*
X124990Y405820D02*
X124990Y403340D01*
X124010Y403340D01*
X124010Y405820D01*
X124990Y405820D01*
X124990Y404309D02*
X124010Y404309D01*
X124010Y405278D02*
X124990Y405278D01*
X129990Y405820D02*
X129990Y403340D01*
X129010Y403340D01*
X129010Y405820D01*
X129990Y405820D01*
X129990Y404309D02*
X129010Y404309D01*
X129010Y405278D02*
X129990Y405278D01*
X139010Y406320D02*
X141490Y406320D01*
X141490Y405340D01*
X139010Y405340D01*
X139010Y406320D01*
X139010Y406309D02*
X141490Y406309D01*
X141490Y410320D02*
X139010Y410320D01*
X141490Y410320D02*
X141490Y409340D01*
X139010Y409340D01*
X139010Y410320D01*
X139010Y410309D02*
X141490Y410309D01*
X141490Y414320D02*
X139010Y414320D01*
X141490Y414320D02*
X141490Y413340D01*
X139010Y413340D01*
X139010Y414320D01*
X139010Y414309D02*
X141490Y414309D01*
X141490Y418320D02*
X139010Y418320D01*
X141490Y418320D02*
X141490Y417340D01*
X139010Y417340D01*
X139010Y418320D01*
X139010Y418309D02*
X141490Y418309D01*
X141490Y422320D02*
X139010Y422320D01*
X141490Y422320D02*
X141490Y421340D01*
X139010Y421340D01*
X139010Y422320D01*
X139010Y422309D02*
X141490Y422309D01*
X141490Y426320D02*
X139010Y426320D01*
X141490Y426320D02*
X141490Y425340D01*
X139010Y425340D01*
X139010Y426320D01*
X139010Y426309D02*
X141490Y426309D01*
X141490Y430320D02*
X139010Y430320D01*
X141490Y430320D02*
X141490Y429340D01*
X139010Y429340D01*
X139010Y430320D01*
X139010Y430309D02*
X141490Y430309D01*
X129010Y429840D02*
X129010Y432320D01*
X129990Y432320D01*
X129990Y429840D01*
X129010Y429840D01*
X129010Y430809D02*
X129990Y430809D01*
X129990Y431778D02*
X129010Y431778D01*
X124010Y432320D02*
X124010Y429840D01*
X124010Y432320D02*
X124990Y432320D01*
X124990Y429840D01*
X124010Y429840D01*
X124010Y430809D02*
X124990Y430809D01*
X124990Y431778D02*
X124010Y431778D01*
D11*
X122000Y423330D03*
X132000Y423330D03*
X132000Y412330D03*
X122000Y412330D03*
D12*
X66480Y407000D02*
X66480Y393960D01*
X66480Y407000D02*
X77520Y407000D01*
X77520Y393960D01*
X66480Y393960D01*
X66480Y394872D02*
X77520Y394872D01*
X77520Y395784D02*
X66480Y395784D01*
X66480Y396696D02*
X77520Y396696D01*
X77520Y397608D02*
X66480Y397608D01*
X66480Y398520D02*
X77520Y398520D01*
X77520Y399432D02*
X66480Y399432D01*
X66480Y400344D02*
X77520Y400344D01*
X77520Y401256D02*
X66480Y401256D01*
X66480Y402168D02*
X77520Y402168D01*
X77520Y403080D02*
X66480Y403080D01*
X66480Y403992D02*
X77520Y403992D01*
X77520Y404904D02*
X66480Y404904D01*
X66480Y405816D02*
X77520Y405816D01*
X77520Y406728D02*
X66480Y406728D01*
X77520Y415960D02*
X77520Y429000D01*
X77520Y415960D02*
X66480Y415960D01*
X66480Y429000D01*
X77520Y429000D01*
X77520Y416872D02*
X66480Y416872D01*
X66480Y417784D02*
X77520Y417784D01*
X77520Y418696D02*
X66480Y418696D01*
X66480Y419608D02*
X77520Y419608D01*
X77520Y420520D02*
X66480Y420520D01*
X66480Y421432D02*
X77520Y421432D01*
X77520Y422344D02*
X66480Y422344D01*
X66480Y423256D02*
X77520Y423256D01*
X77520Y424168D02*
X66480Y424168D01*
X66480Y425080D02*
X77520Y425080D01*
X77520Y425992D02*
X66480Y425992D01*
X66480Y426904D02*
X77520Y426904D01*
X77520Y427816D02*
X66480Y427816D01*
X66480Y428728D02*
X77520Y428728D01*
X60520Y429000D02*
X60520Y415960D01*
X49480Y415960D01*
X49480Y429000D01*
X60520Y429000D01*
X60520Y416872D02*
X49480Y416872D01*
X49480Y417784D02*
X60520Y417784D01*
X60520Y418696D02*
X49480Y418696D01*
X49480Y419608D02*
X60520Y419608D01*
X60520Y420520D02*
X49480Y420520D01*
X49480Y421432D02*
X60520Y421432D01*
X60520Y422344D02*
X49480Y422344D01*
X49480Y423256D02*
X60520Y423256D01*
X60520Y424168D02*
X49480Y424168D01*
X49480Y425080D02*
X60520Y425080D01*
X60520Y425992D02*
X49480Y425992D01*
X49480Y426904D02*
X60520Y426904D01*
X60520Y427816D02*
X49480Y427816D01*
X49480Y428728D02*
X60520Y428728D01*
X49480Y407000D02*
X49480Y393960D01*
X49480Y407000D02*
X60520Y407000D01*
X60520Y393960D01*
X49480Y393960D01*
X49480Y394872D02*
X60520Y394872D01*
X60520Y395784D02*
X49480Y395784D01*
X49480Y396696D02*
X60520Y396696D01*
X60520Y397608D02*
X49480Y397608D01*
X49480Y398520D02*
X60520Y398520D01*
X60520Y399432D02*
X49480Y399432D01*
X49480Y400344D02*
X60520Y400344D01*
X60520Y401256D02*
X49480Y401256D01*
X49480Y402168D02*
X60520Y402168D01*
X60520Y403080D02*
X49480Y403080D01*
X49480Y403992D02*
X60520Y403992D01*
X60520Y404904D02*
X49480Y404904D01*
X49480Y405816D02*
X60520Y405816D01*
X60520Y406728D02*
X49480Y406728D01*
D13*
X113500Y438730D02*
X123500Y438730D01*
X113500Y438730D02*
X113500Y447730D01*
X123500Y447730D01*
X123500Y438730D01*
X123500Y439680D02*
X113500Y439680D01*
X113500Y440630D02*
X123500Y440630D01*
X123500Y441580D02*
X113500Y441580D01*
X113500Y442530D02*
X123500Y442530D01*
X123500Y443480D02*
X113500Y443480D01*
X113500Y444430D02*
X123500Y444430D01*
X123500Y445380D02*
X113500Y445380D01*
X113500Y446330D02*
X123500Y446330D01*
X123500Y447280D02*
X113500Y447280D01*
X130500Y438730D02*
X140500Y438730D01*
X130500Y438730D02*
X130500Y447730D01*
X140500Y447730D01*
X140500Y438730D01*
X140500Y439680D02*
X130500Y439680D01*
X130500Y440630D02*
X140500Y440630D01*
X140500Y441580D02*
X130500Y441580D01*
X130500Y442530D02*
X140500Y442530D01*
X140500Y443480D02*
X130500Y443480D01*
X130500Y444430D02*
X140500Y444430D01*
X140500Y445380D02*
X130500Y445380D01*
X130500Y446330D02*
X140500Y446330D01*
X140500Y447280D02*
X130500Y447280D01*
D14*
X190341Y344329D02*
X221139Y344329D01*
X221139Y313531D01*
X190341Y313531D01*
X190341Y344329D01*
X190341Y314436D02*
X221139Y314436D01*
X221139Y315341D02*
X190341Y315341D01*
X190341Y316246D02*
X221139Y316246D01*
X221139Y317151D02*
X190341Y317151D01*
X190341Y318056D02*
X221139Y318056D01*
X221139Y318961D02*
X190341Y318961D01*
X190341Y319866D02*
X221139Y319866D01*
X221139Y320771D02*
X190341Y320771D01*
X190341Y321676D02*
X221139Y321676D01*
X221139Y322581D02*
X190341Y322581D01*
X190341Y323486D02*
X221139Y323486D01*
X221139Y324391D02*
X190341Y324391D01*
X190341Y325296D02*
X221139Y325296D01*
X221139Y326201D02*
X190341Y326201D01*
X190341Y327106D02*
X221139Y327106D01*
X221139Y328011D02*
X190341Y328011D01*
X190341Y328916D02*
X221139Y328916D01*
X221139Y329821D02*
X190341Y329821D01*
X190341Y330726D02*
X221139Y330726D01*
X221139Y331631D02*
X190341Y331631D01*
X190341Y332536D02*
X221139Y332536D01*
X221139Y333441D02*
X190341Y333441D01*
X190341Y334346D02*
X221139Y334346D01*
X221139Y335251D02*
X190341Y335251D01*
X190341Y336156D02*
X221139Y336156D01*
X221139Y337061D02*
X190341Y337061D01*
X190341Y337966D02*
X221139Y337966D01*
X221139Y338871D02*
X190341Y338871D01*
X190341Y339776D02*
X221139Y339776D01*
X221139Y340681D02*
X190341Y340681D01*
X190341Y341586D02*
X221139Y341586D01*
X221139Y342491D02*
X190341Y342491D01*
X190341Y343396D02*
X221139Y343396D01*
X221139Y344301D02*
X190341Y344301D01*
X63659Y344329D02*
X32861Y344329D01*
X63659Y344329D02*
X63659Y313531D01*
X32861Y313531D01*
X32861Y344329D01*
X32861Y314436D02*
X63659Y314436D01*
X63659Y315341D02*
X32861Y315341D01*
X32861Y316246D02*
X63659Y316246D01*
X63659Y317151D02*
X32861Y317151D01*
X32861Y318056D02*
X63659Y318056D01*
X63659Y318961D02*
X32861Y318961D01*
X32861Y319866D02*
X63659Y319866D01*
X63659Y320771D02*
X32861Y320771D01*
X32861Y321676D02*
X63659Y321676D01*
X63659Y322581D02*
X32861Y322581D01*
X32861Y323486D02*
X63659Y323486D01*
X63659Y324391D02*
X32861Y324391D01*
X32861Y325296D02*
X63659Y325296D01*
X63659Y326201D02*
X32861Y326201D01*
X32861Y327106D02*
X63659Y327106D01*
X63659Y328011D02*
X32861Y328011D01*
X32861Y328916D02*
X63659Y328916D01*
X63659Y329821D02*
X32861Y329821D01*
X32861Y330726D02*
X63659Y330726D01*
X63659Y331631D02*
X32861Y331631D01*
X32861Y332536D02*
X63659Y332536D01*
X63659Y333441D02*
X32861Y333441D01*
X32861Y334346D02*
X63659Y334346D01*
X63659Y335251D02*
X32861Y335251D01*
X32861Y336156D02*
X63659Y336156D01*
X63659Y337061D02*
X32861Y337061D01*
X32861Y337966D02*
X63659Y337966D01*
X63659Y338871D02*
X32861Y338871D01*
X32861Y339776D02*
X63659Y339776D01*
X63659Y340681D02*
X32861Y340681D01*
X32861Y341586D02*
X63659Y341586D01*
X63659Y342491D02*
X32861Y342491D01*
X32861Y343396D02*
X63659Y343396D01*
X63659Y344301D02*
X32861Y344301D01*
D15*
X117000Y328930D02*
X117003Y329175D01*
X117012Y329421D01*
X117027Y329666D01*
X117048Y329910D01*
X117075Y330154D01*
X117108Y330397D01*
X117147Y330640D01*
X117192Y330881D01*
X117243Y331121D01*
X117300Y331360D01*
X117362Y331597D01*
X117431Y331833D01*
X117505Y332067D01*
X117585Y332299D01*
X117670Y332529D01*
X117761Y332757D01*
X117858Y332982D01*
X117960Y333206D01*
X118068Y333426D01*
X118181Y333644D01*
X118299Y333859D01*
X118423Y334071D01*
X118551Y334280D01*
X118685Y334486D01*
X118824Y334688D01*
X118968Y334887D01*
X119117Y335082D01*
X119270Y335274D01*
X119428Y335462D01*
X119590Y335646D01*
X119758Y335825D01*
X119929Y336001D01*
X120105Y336172D01*
X120284Y336340D01*
X120468Y336502D01*
X120656Y336660D01*
X120848Y336813D01*
X121043Y336962D01*
X121242Y337106D01*
X121444Y337245D01*
X121650Y337379D01*
X121859Y337507D01*
X122071Y337631D01*
X122286Y337749D01*
X122504Y337862D01*
X122724Y337970D01*
X122948Y338072D01*
X123173Y338169D01*
X123401Y338260D01*
X123631Y338345D01*
X123863Y338425D01*
X124097Y338499D01*
X124333Y338568D01*
X124570Y338630D01*
X124809Y338687D01*
X125049Y338738D01*
X125290Y338783D01*
X125533Y338822D01*
X125776Y338855D01*
X126020Y338882D01*
X126264Y338903D01*
X126509Y338918D01*
X126755Y338927D01*
X127000Y338930D01*
X127245Y338927D01*
X127491Y338918D01*
X127736Y338903D01*
X127980Y338882D01*
X128224Y338855D01*
X128467Y338822D01*
X128710Y338783D01*
X128951Y338738D01*
X129191Y338687D01*
X129430Y338630D01*
X129667Y338568D01*
X129903Y338499D01*
X130137Y338425D01*
X130369Y338345D01*
X130599Y338260D01*
X130827Y338169D01*
X131052Y338072D01*
X131276Y337970D01*
X131496Y337862D01*
X131714Y337749D01*
X131929Y337631D01*
X132141Y337507D01*
X132350Y337379D01*
X132556Y337245D01*
X132758Y337106D01*
X132957Y336962D01*
X133152Y336813D01*
X133344Y336660D01*
X133532Y336502D01*
X133716Y336340D01*
X133895Y336172D01*
X134071Y336001D01*
X134242Y335825D01*
X134410Y335646D01*
X134572Y335462D01*
X134730Y335274D01*
X134883Y335082D01*
X135032Y334887D01*
X135176Y334688D01*
X135315Y334486D01*
X135449Y334280D01*
X135577Y334071D01*
X135701Y333859D01*
X135819Y333644D01*
X135932Y333426D01*
X136040Y333206D01*
X136142Y332982D01*
X136239Y332757D01*
X136330Y332529D01*
X136415Y332299D01*
X136495Y332067D01*
X136569Y331833D01*
X136638Y331597D01*
X136700Y331360D01*
X136757Y331121D01*
X136808Y330881D01*
X136853Y330640D01*
X136892Y330397D01*
X136925Y330154D01*
X136952Y329910D01*
X136973Y329666D01*
X136988Y329421D01*
X136997Y329175D01*
X137000Y328930D01*
X136997Y328685D01*
X136988Y328439D01*
X136973Y328194D01*
X136952Y327950D01*
X136925Y327706D01*
X136892Y327463D01*
X136853Y327220D01*
X136808Y326979D01*
X136757Y326739D01*
X136700Y326500D01*
X136638Y326263D01*
X136569Y326027D01*
X136495Y325793D01*
X136415Y325561D01*
X136330Y325331D01*
X136239Y325103D01*
X136142Y324878D01*
X136040Y324654D01*
X135932Y324434D01*
X135819Y324216D01*
X135701Y324001D01*
X135577Y323789D01*
X135449Y323580D01*
X135315Y323374D01*
X135176Y323172D01*
X135032Y322973D01*
X134883Y322778D01*
X134730Y322586D01*
X134572Y322398D01*
X134410Y322214D01*
X134242Y322035D01*
X134071Y321859D01*
X133895Y321688D01*
X133716Y321520D01*
X133532Y321358D01*
X133344Y321200D01*
X133152Y321047D01*
X132957Y320898D01*
X132758Y320754D01*
X132556Y320615D01*
X132350Y320481D01*
X132141Y320353D01*
X131929Y320229D01*
X131714Y320111D01*
X131496Y319998D01*
X131276Y319890D01*
X131052Y319788D01*
X130827Y319691D01*
X130599Y319600D01*
X130369Y319515D01*
X130137Y319435D01*
X129903Y319361D01*
X129667Y319292D01*
X129430Y319230D01*
X129191Y319173D01*
X128951Y319122D01*
X128710Y319077D01*
X128467Y319038D01*
X128224Y319005D01*
X127980Y318978D01*
X127736Y318957D01*
X127491Y318942D01*
X127245Y318933D01*
X127000Y318930D01*
X126755Y318933D01*
X126509Y318942D01*
X126264Y318957D01*
X126020Y318978D01*
X125776Y319005D01*
X125533Y319038D01*
X125290Y319077D01*
X125049Y319122D01*
X124809Y319173D01*
X124570Y319230D01*
X124333Y319292D01*
X124097Y319361D01*
X123863Y319435D01*
X123631Y319515D01*
X123401Y319600D01*
X123173Y319691D01*
X122948Y319788D01*
X122724Y319890D01*
X122504Y319998D01*
X122286Y320111D01*
X122071Y320229D01*
X121859Y320353D01*
X121650Y320481D01*
X121444Y320615D01*
X121242Y320754D01*
X121043Y320898D01*
X120848Y321047D01*
X120656Y321200D01*
X120468Y321358D01*
X120284Y321520D01*
X120105Y321688D01*
X119929Y321859D01*
X119758Y322035D01*
X119590Y322214D01*
X119428Y322398D01*
X119270Y322586D01*
X119117Y322778D01*
X118968Y322973D01*
X118824Y323172D01*
X118685Y323374D01*
X118551Y323580D01*
X118423Y323789D01*
X118299Y324001D01*
X118181Y324216D01*
X118068Y324434D01*
X117960Y324654D01*
X117858Y324878D01*
X117761Y325103D01*
X117670Y325331D01*
X117585Y325561D01*
X117505Y325793D01*
X117431Y326027D01*
X117362Y326263D01*
X117300Y326500D01*
X117243Y326739D01*
X117192Y326979D01*
X117147Y327220D01*
X117108Y327463D01*
X117075Y327706D01*
X117048Y327950D01*
X117027Y328194D01*
X117012Y328439D01*
X117003Y328685D01*
X117000Y328930D01*
D13*
X77000Y447730D02*
X67000Y447730D01*
X77000Y447730D02*
X77000Y438730D01*
X67000Y438730D01*
X67000Y447730D01*
X67000Y439680D02*
X77000Y439680D01*
X77000Y440630D02*
X67000Y440630D01*
X67000Y441580D02*
X77000Y441580D01*
X77000Y442530D02*
X67000Y442530D01*
X67000Y443480D02*
X77000Y443480D01*
X77000Y444430D02*
X67000Y444430D01*
X67000Y445380D02*
X77000Y445380D01*
X77000Y446330D02*
X67000Y446330D01*
X67000Y447280D02*
X77000Y447280D01*
X60000Y447730D02*
X50000Y447730D01*
X60000Y447730D02*
X60000Y438730D01*
X50000Y438730D01*
X50000Y447730D01*
X50000Y439680D02*
X60000Y439680D01*
X60000Y440630D02*
X50000Y440630D01*
X50000Y441580D02*
X60000Y441580D01*
X60000Y442530D02*
X50000Y442530D01*
X50000Y443480D02*
X60000Y443480D01*
X60000Y444430D02*
X50000Y444430D01*
X50000Y445380D02*
X60000Y445380D01*
X60000Y446330D02*
X50000Y446330D01*
X50000Y447280D02*
X60000Y447280D01*
D10*
X171960Y435100D02*
X171960Y430120D01*
X171960Y435100D02*
X186440Y435100D01*
X186440Y430120D01*
X171960Y430120D01*
X171960Y431089D02*
X186440Y431089D01*
X186440Y432058D02*
X171960Y432058D01*
X171960Y433027D02*
X186440Y433027D01*
X186440Y433996D02*
X171960Y433996D01*
X171960Y434965D02*
X186440Y434965D01*
X171960Y425100D02*
X171960Y420120D01*
X171960Y425100D02*
X186440Y425100D01*
X186440Y420120D01*
X171960Y420120D01*
X171960Y421089D02*
X186440Y421089D01*
X186440Y422058D02*
X171960Y422058D01*
X171960Y423027D02*
X186440Y423027D01*
X186440Y423996D02*
X171960Y423996D01*
X171960Y424965D02*
X186440Y424965D01*
X171960Y415100D02*
X171960Y410120D01*
X171960Y415100D02*
X186440Y415100D01*
X186440Y410120D01*
X171960Y410120D01*
X171960Y411089D02*
X186440Y411089D01*
X186440Y412058D02*
X171960Y412058D01*
X171960Y413027D02*
X186440Y413027D01*
X186440Y413996D02*
X171960Y413996D01*
X171960Y414965D02*
X186440Y414965D01*
X171960Y405100D02*
X171960Y400120D01*
X171960Y405100D02*
X186440Y405100D01*
X186440Y400120D01*
X171960Y400120D01*
X171960Y401089D02*
X186440Y401089D01*
X186440Y402058D02*
X171960Y402058D01*
X171960Y403027D02*
X186440Y403027D01*
X186440Y403996D02*
X171960Y403996D01*
X171960Y404965D02*
X186440Y404965D01*
D12*
X193930Y440090D02*
X193930Y451130D01*
X212970Y451130D01*
X212970Y440090D01*
X193930Y440090D01*
X193930Y441002D02*
X212970Y441002D01*
X212970Y441914D02*
X193930Y441914D01*
X193930Y442826D02*
X212970Y442826D01*
X212970Y443738D02*
X193930Y443738D01*
X193930Y444650D02*
X212970Y444650D01*
X212970Y445562D02*
X193930Y445562D01*
X193930Y446474D02*
X212970Y446474D01*
X212970Y447386D02*
X193930Y447386D01*
X193930Y448298D02*
X212970Y448298D01*
X212970Y449210D02*
X193930Y449210D01*
X193930Y450122D02*
X212970Y450122D01*
X212970Y451034D02*
X193930Y451034D01*
X193930Y395130D02*
X193930Y384090D01*
X193930Y395130D02*
X212970Y395130D01*
X212970Y384090D01*
X193930Y384090D01*
X193930Y385002D02*
X212970Y385002D01*
X212970Y385914D02*
X193930Y385914D01*
X193930Y386826D02*
X212970Y386826D01*
X212970Y387738D02*
X193930Y387738D01*
X193930Y388650D02*
X212970Y388650D01*
X212970Y389562D02*
X193930Y389562D01*
X193930Y390474D02*
X212970Y390474D01*
X212970Y391386D02*
X193930Y391386D01*
X193930Y392298D02*
X212970Y392298D01*
X212970Y393210D02*
X193930Y393210D01*
X193930Y394122D02*
X212970Y394122D01*
X212970Y395034D02*
X193930Y395034D01*
D16*
X201740Y359100D02*
X201740Y352100D01*
X194740Y352100D01*
X194740Y359100D01*
X201740Y359100D01*
X201740Y354950D02*
X194740Y354950D01*
X194740Y357800D02*
X201740Y357800D01*
X219280Y359100D02*
X219280Y352100D01*
X212280Y352100D01*
X212280Y359100D01*
X219280Y359100D01*
X219280Y354950D02*
X212280Y354950D01*
X212280Y357800D02*
X219280Y357800D01*
D13*
X203510Y367610D02*
X193510Y367610D01*
X193510Y376610D01*
X203510Y376610D01*
X203510Y367610D01*
X203510Y368560D02*
X193510Y368560D01*
X193510Y369510D02*
X203510Y369510D01*
X203510Y370460D02*
X193510Y370460D01*
X193510Y371410D02*
X203510Y371410D01*
X203510Y372360D02*
X193510Y372360D01*
X193510Y373310D02*
X203510Y373310D01*
X203510Y374260D02*
X193510Y374260D01*
X193510Y375210D02*
X203510Y375210D01*
X203510Y376160D02*
X193510Y376160D01*
X210510Y367610D02*
X220510Y367610D01*
X210510Y367610D02*
X210510Y376610D01*
X220510Y376610D01*
X220510Y367610D01*
X220510Y368560D02*
X210510Y368560D01*
X210510Y369510D02*
X220510Y369510D01*
X220510Y370460D02*
X210510Y370460D01*
X210510Y371410D02*
X220510Y371410D01*
X220510Y372360D02*
X210510Y372360D01*
X210510Y373310D02*
X220510Y373310D01*
X220510Y374260D02*
X210510Y374260D01*
X210510Y375210D02*
X220510Y375210D01*
X220510Y376160D02*
X210510Y376160D01*
D10*
X371590Y429340D02*
X374070Y429340D01*
X371590Y429340D02*
X371590Y430320D01*
X374070Y430320D01*
X374070Y429340D01*
X374070Y430309D02*
X371590Y430309D01*
X371590Y425340D02*
X374070Y425340D01*
X371590Y425340D02*
X371590Y426320D01*
X374070Y426320D01*
X374070Y425340D01*
X374070Y426309D02*
X371590Y426309D01*
X371590Y421340D02*
X374070Y421340D01*
X371590Y421340D02*
X371590Y422320D01*
X374070Y422320D01*
X374070Y421340D01*
X374070Y422309D02*
X371590Y422309D01*
X371590Y417340D02*
X374070Y417340D01*
X371590Y417340D02*
X371590Y418320D01*
X374070Y418320D01*
X374070Y417340D01*
X374070Y418309D02*
X371590Y418309D01*
X371590Y413340D02*
X374070Y413340D01*
X371590Y413340D02*
X371590Y414320D01*
X374070Y414320D01*
X374070Y413340D01*
X374070Y414309D02*
X371590Y414309D01*
X371590Y409340D02*
X374070Y409340D01*
X371590Y409340D02*
X371590Y410320D01*
X374070Y410320D01*
X374070Y409340D01*
X374070Y410309D02*
X371590Y410309D01*
X371590Y405340D02*
X374070Y405340D01*
X371590Y405340D02*
X371590Y406320D01*
X374070Y406320D01*
X374070Y405340D01*
X374070Y406309D02*
X371590Y406309D01*
X384070Y405820D02*
X384070Y403340D01*
X383090Y403340D01*
X383090Y405820D01*
X384070Y405820D01*
X384070Y404309D02*
X383090Y404309D01*
X383090Y405278D02*
X384070Y405278D01*
X389070Y405820D02*
X389070Y403340D01*
X388090Y403340D01*
X388090Y405820D01*
X389070Y405820D01*
X389070Y404309D02*
X388090Y404309D01*
X388090Y405278D02*
X389070Y405278D01*
X398090Y406320D02*
X400570Y406320D01*
X400570Y405340D01*
X398090Y405340D01*
X398090Y406320D01*
X398090Y406309D02*
X400570Y406309D01*
X400570Y410320D02*
X398090Y410320D01*
X400570Y410320D02*
X400570Y409340D01*
X398090Y409340D01*
X398090Y410320D01*
X398090Y410309D02*
X400570Y410309D01*
X400570Y414320D02*
X398090Y414320D01*
X400570Y414320D02*
X400570Y413340D01*
X398090Y413340D01*
X398090Y414320D01*
X398090Y414309D02*
X400570Y414309D01*
X400570Y418320D02*
X398090Y418320D01*
X400570Y418320D02*
X400570Y417340D01*
X398090Y417340D01*
X398090Y418320D01*
X398090Y418309D02*
X400570Y418309D01*
X400570Y422320D02*
X398090Y422320D01*
X400570Y422320D02*
X400570Y421340D01*
X398090Y421340D01*
X398090Y422320D01*
X398090Y422309D02*
X400570Y422309D01*
X400570Y426320D02*
X398090Y426320D01*
X400570Y426320D02*
X400570Y425340D01*
X398090Y425340D01*
X398090Y426320D01*
X398090Y426309D02*
X400570Y426309D01*
X400570Y430320D02*
X398090Y430320D01*
X400570Y430320D02*
X400570Y429340D01*
X398090Y429340D01*
X398090Y430320D01*
X398090Y430309D02*
X400570Y430309D01*
X388090Y429840D02*
X388090Y432320D01*
X389070Y432320D01*
X389070Y429840D01*
X388090Y429840D01*
X388090Y430809D02*
X389070Y430809D01*
X389070Y431778D02*
X388090Y431778D01*
X383090Y432320D02*
X383090Y429840D01*
X383090Y432320D02*
X384070Y432320D01*
X384070Y429840D01*
X383090Y429840D01*
X383090Y430809D02*
X384070Y430809D01*
X384070Y431778D02*
X383090Y431778D01*
D11*
X381080Y423330D03*
X391080Y423330D03*
X391080Y412330D03*
X381080Y412330D03*
D12*
X325560Y407000D02*
X325560Y393960D01*
X325560Y407000D02*
X336600Y407000D01*
X336600Y393960D01*
X325560Y393960D01*
X325560Y394872D02*
X336600Y394872D01*
X336600Y395784D02*
X325560Y395784D01*
X325560Y396696D02*
X336600Y396696D01*
X336600Y397608D02*
X325560Y397608D01*
X325560Y398520D02*
X336600Y398520D01*
X336600Y399432D02*
X325560Y399432D01*
X325560Y400344D02*
X336600Y400344D01*
X336600Y401256D02*
X325560Y401256D01*
X325560Y402168D02*
X336600Y402168D01*
X336600Y403080D02*
X325560Y403080D01*
X325560Y403992D02*
X336600Y403992D01*
X336600Y404904D02*
X325560Y404904D01*
X325560Y405816D02*
X336600Y405816D01*
X336600Y406728D02*
X325560Y406728D01*
X336600Y415960D02*
X336600Y429000D01*
X336600Y415960D02*
X325560Y415960D01*
X325560Y429000D01*
X336600Y429000D01*
X336600Y416872D02*
X325560Y416872D01*
X325560Y417784D02*
X336600Y417784D01*
X336600Y418696D02*
X325560Y418696D01*
X325560Y419608D02*
X336600Y419608D01*
X336600Y420520D02*
X325560Y420520D01*
X325560Y421432D02*
X336600Y421432D01*
X336600Y422344D02*
X325560Y422344D01*
X325560Y423256D02*
X336600Y423256D01*
X336600Y424168D02*
X325560Y424168D01*
X325560Y425080D02*
X336600Y425080D01*
X336600Y425992D02*
X325560Y425992D01*
X325560Y426904D02*
X336600Y426904D01*
X336600Y427816D02*
X325560Y427816D01*
X325560Y428728D02*
X336600Y428728D01*
X319600Y429000D02*
X319600Y415960D01*
X308560Y415960D01*
X308560Y429000D01*
X319600Y429000D01*
X319600Y416872D02*
X308560Y416872D01*
X308560Y417784D02*
X319600Y417784D01*
X319600Y418696D02*
X308560Y418696D01*
X308560Y419608D02*
X319600Y419608D01*
X319600Y420520D02*
X308560Y420520D01*
X308560Y421432D02*
X319600Y421432D01*
X319600Y422344D02*
X308560Y422344D01*
X308560Y423256D02*
X319600Y423256D01*
X319600Y424168D02*
X308560Y424168D01*
X308560Y425080D02*
X319600Y425080D01*
X319600Y425992D02*
X308560Y425992D01*
X308560Y426904D02*
X319600Y426904D01*
X319600Y427816D02*
X308560Y427816D01*
X308560Y428728D02*
X319600Y428728D01*
X308560Y407000D02*
X308560Y393960D01*
X308560Y407000D02*
X319600Y407000D01*
X319600Y393960D01*
X308560Y393960D01*
X308560Y394872D02*
X319600Y394872D01*
X319600Y395784D02*
X308560Y395784D01*
X308560Y396696D02*
X319600Y396696D01*
X319600Y397608D02*
X308560Y397608D01*
X308560Y398520D02*
X319600Y398520D01*
X319600Y399432D02*
X308560Y399432D01*
X308560Y400344D02*
X319600Y400344D01*
X319600Y401256D02*
X308560Y401256D01*
X308560Y402168D02*
X319600Y402168D01*
X319600Y403080D02*
X308560Y403080D01*
X308560Y403992D02*
X319600Y403992D01*
X319600Y404904D02*
X308560Y404904D01*
X308560Y405816D02*
X319600Y405816D01*
X319600Y406728D02*
X308560Y406728D01*
D13*
X372580Y438730D02*
X382580Y438730D01*
X372580Y438730D02*
X372580Y447730D01*
X382580Y447730D01*
X382580Y438730D01*
X382580Y439680D02*
X372580Y439680D01*
X372580Y440630D02*
X382580Y440630D01*
X382580Y441580D02*
X372580Y441580D01*
X372580Y442530D02*
X382580Y442530D01*
X382580Y443480D02*
X372580Y443480D01*
X372580Y444430D02*
X382580Y444430D01*
X382580Y445380D02*
X372580Y445380D01*
X372580Y446330D02*
X382580Y446330D01*
X382580Y447280D02*
X372580Y447280D01*
X389580Y438730D02*
X399580Y438730D01*
X389580Y438730D02*
X389580Y447730D01*
X399580Y447730D01*
X399580Y438730D01*
X399580Y439680D02*
X389580Y439680D01*
X389580Y440630D02*
X399580Y440630D01*
X399580Y441580D02*
X389580Y441580D01*
X389580Y442530D02*
X399580Y442530D01*
X399580Y443480D02*
X389580Y443480D01*
X389580Y444430D02*
X399580Y444430D01*
X399580Y445380D02*
X389580Y445380D01*
X389580Y446330D02*
X399580Y446330D01*
X399580Y447280D02*
X389580Y447280D01*
D14*
X449421Y344329D02*
X480219Y344329D01*
X480219Y313531D01*
X449421Y313531D01*
X449421Y344329D01*
X449421Y314436D02*
X480219Y314436D01*
X480219Y315341D02*
X449421Y315341D01*
X449421Y316246D02*
X480219Y316246D01*
X480219Y317151D02*
X449421Y317151D01*
X449421Y318056D02*
X480219Y318056D01*
X480219Y318961D02*
X449421Y318961D01*
X449421Y319866D02*
X480219Y319866D01*
X480219Y320771D02*
X449421Y320771D01*
X449421Y321676D02*
X480219Y321676D01*
X480219Y322581D02*
X449421Y322581D01*
X449421Y323486D02*
X480219Y323486D01*
X480219Y324391D02*
X449421Y324391D01*
X449421Y325296D02*
X480219Y325296D01*
X480219Y326201D02*
X449421Y326201D01*
X449421Y327106D02*
X480219Y327106D01*
X480219Y328011D02*
X449421Y328011D01*
X449421Y328916D02*
X480219Y328916D01*
X480219Y329821D02*
X449421Y329821D01*
X449421Y330726D02*
X480219Y330726D01*
X480219Y331631D02*
X449421Y331631D01*
X449421Y332536D02*
X480219Y332536D01*
X480219Y333441D02*
X449421Y333441D01*
X449421Y334346D02*
X480219Y334346D01*
X480219Y335251D02*
X449421Y335251D01*
X449421Y336156D02*
X480219Y336156D01*
X480219Y337061D02*
X449421Y337061D01*
X449421Y337966D02*
X480219Y337966D01*
X480219Y338871D02*
X449421Y338871D01*
X449421Y339776D02*
X480219Y339776D01*
X480219Y340681D02*
X449421Y340681D01*
X449421Y341586D02*
X480219Y341586D01*
X480219Y342491D02*
X449421Y342491D01*
X449421Y343396D02*
X480219Y343396D01*
X480219Y344301D02*
X449421Y344301D01*
X322739Y344329D02*
X291941Y344329D01*
X322739Y344329D02*
X322739Y313531D01*
X291941Y313531D01*
X291941Y344329D01*
X291941Y314436D02*
X322739Y314436D01*
X322739Y315341D02*
X291941Y315341D01*
X291941Y316246D02*
X322739Y316246D01*
X322739Y317151D02*
X291941Y317151D01*
X291941Y318056D02*
X322739Y318056D01*
X322739Y318961D02*
X291941Y318961D01*
X291941Y319866D02*
X322739Y319866D01*
X322739Y320771D02*
X291941Y320771D01*
X291941Y321676D02*
X322739Y321676D01*
X322739Y322581D02*
X291941Y322581D01*
X291941Y323486D02*
X322739Y323486D01*
X322739Y324391D02*
X291941Y324391D01*
X291941Y325296D02*
X322739Y325296D01*
X322739Y326201D02*
X291941Y326201D01*
X291941Y327106D02*
X322739Y327106D01*
X322739Y328011D02*
X291941Y328011D01*
X291941Y328916D02*
X322739Y328916D01*
X322739Y329821D02*
X291941Y329821D01*
X291941Y330726D02*
X322739Y330726D01*
X322739Y331631D02*
X291941Y331631D01*
X291941Y332536D02*
X322739Y332536D01*
X322739Y333441D02*
X291941Y333441D01*
X291941Y334346D02*
X322739Y334346D01*
X322739Y335251D02*
X291941Y335251D01*
X291941Y336156D02*
X322739Y336156D01*
X322739Y337061D02*
X291941Y337061D01*
X291941Y337966D02*
X322739Y337966D01*
X322739Y338871D02*
X291941Y338871D01*
X291941Y339776D02*
X322739Y339776D01*
X322739Y340681D02*
X291941Y340681D01*
X291941Y341586D02*
X322739Y341586D01*
X322739Y342491D02*
X291941Y342491D01*
X291941Y343396D02*
X322739Y343396D01*
X322739Y344301D02*
X291941Y344301D01*
D15*
X376080Y328930D02*
X376083Y329175D01*
X376092Y329421D01*
X376107Y329666D01*
X376128Y329910D01*
X376155Y330154D01*
X376188Y330397D01*
X376227Y330640D01*
X376272Y330881D01*
X376323Y331121D01*
X376380Y331360D01*
X376442Y331597D01*
X376511Y331833D01*
X376585Y332067D01*
X376665Y332299D01*
X376750Y332529D01*
X376841Y332757D01*
X376938Y332982D01*
X377040Y333206D01*
X377148Y333426D01*
X377261Y333644D01*
X377379Y333859D01*
X377503Y334071D01*
X377631Y334280D01*
X377765Y334486D01*
X377904Y334688D01*
X378048Y334887D01*
X378197Y335082D01*
X378350Y335274D01*
X378508Y335462D01*
X378670Y335646D01*
X378838Y335825D01*
X379009Y336001D01*
X379185Y336172D01*
X379364Y336340D01*
X379548Y336502D01*
X379736Y336660D01*
X379928Y336813D01*
X380123Y336962D01*
X380322Y337106D01*
X380524Y337245D01*
X380730Y337379D01*
X380939Y337507D01*
X381151Y337631D01*
X381366Y337749D01*
X381584Y337862D01*
X381804Y337970D01*
X382028Y338072D01*
X382253Y338169D01*
X382481Y338260D01*
X382711Y338345D01*
X382943Y338425D01*
X383177Y338499D01*
X383413Y338568D01*
X383650Y338630D01*
X383889Y338687D01*
X384129Y338738D01*
X384370Y338783D01*
X384613Y338822D01*
X384856Y338855D01*
X385100Y338882D01*
X385344Y338903D01*
X385589Y338918D01*
X385835Y338927D01*
X386080Y338930D01*
X386325Y338927D01*
X386571Y338918D01*
X386816Y338903D01*
X387060Y338882D01*
X387304Y338855D01*
X387547Y338822D01*
X387790Y338783D01*
X388031Y338738D01*
X388271Y338687D01*
X388510Y338630D01*
X388747Y338568D01*
X388983Y338499D01*
X389217Y338425D01*
X389449Y338345D01*
X389679Y338260D01*
X389907Y338169D01*
X390132Y338072D01*
X390356Y337970D01*
X390576Y337862D01*
X390794Y337749D01*
X391009Y337631D01*
X391221Y337507D01*
X391430Y337379D01*
X391636Y337245D01*
X391838Y337106D01*
X392037Y336962D01*
X392232Y336813D01*
X392424Y336660D01*
X392612Y336502D01*
X392796Y336340D01*
X392975Y336172D01*
X393151Y336001D01*
X393322Y335825D01*
X393490Y335646D01*
X393652Y335462D01*
X393810Y335274D01*
X393963Y335082D01*
X394112Y334887D01*
X394256Y334688D01*
X394395Y334486D01*
X394529Y334280D01*
X394657Y334071D01*
X394781Y333859D01*
X394899Y333644D01*
X395012Y333426D01*
X395120Y333206D01*
X395222Y332982D01*
X395319Y332757D01*
X395410Y332529D01*
X395495Y332299D01*
X395575Y332067D01*
X395649Y331833D01*
X395718Y331597D01*
X395780Y331360D01*
X395837Y331121D01*
X395888Y330881D01*
X395933Y330640D01*
X395972Y330397D01*
X396005Y330154D01*
X396032Y329910D01*
X396053Y329666D01*
X396068Y329421D01*
X396077Y329175D01*
X396080Y328930D01*
X396077Y328685D01*
X396068Y328439D01*
X396053Y328194D01*
X396032Y327950D01*
X396005Y327706D01*
X395972Y327463D01*
X395933Y327220D01*
X395888Y326979D01*
X395837Y326739D01*
X395780Y326500D01*
X395718Y326263D01*
X395649Y326027D01*
X395575Y325793D01*
X395495Y325561D01*
X395410Y325331D01*
X395319Y325103D01*
X395222Y324878D01*
X395120Y324654D01*
X395012Y324434D01*
X394899Y324216D01*
X394781Y324001D01*
X394657Y323789D01*
X394529Y323580D01*
X394395Y323374D01*
X394256Y323172D01*
X394112Y322973D01*
X393963Y322778D01*
X393810Y322586D01*
X393652Y322398D01*
X393490Y322214D01*
X393322Y322035D01*
X393151Y321859D01*
X392975Y321688D01*
X392796Y321520D01*
X392612Y321358D01*
X392424Y321200D01*
X392232Y321047D01*
X392037Y320898D01*
X391838Y320754D01*
X391636Y320615D01*
X391430Y320481D01*
X391221Y320353D01*
X391009Y320229D01*
X390794Y320111D01*
X390576Y319998D01*
X390356Y319890D01*
X390132Y319788D01*
X389907Y319691D01*
X389679Y319600D01*
X389449Y319515D01*
X389217Y319435D01*
X388983Y319361D01*
X388747Y319292D01*
X388510Y319230D01*
X388271Y319173D01*
X388031Y319122D01*
X387790Y319077D01*
X387547Y319038D01*
X387304Y319005D01*
X387060Y318978D01*
X386816Y318957D01*
X386571Y318942D01*
X386325Y318933D01*
X386080Y318930D01*
X385835Y318933D01*
X385589Y318942D01*
X385344Y318957D01*
X385100Y318978D01*
X384856Y319005D01*
X384613Y319038D01*
X384370Y319077D01*
X384129Y319122D01*
X383889Y319173D01*
X383650Y319230D01*
X383413Y319292D01*
X383177Y319361D01*
X382943Y319435D01*
X382711Y319515D01*
X382481Y319600D01*
X382253Y319691D01*
X382028Y319788D01*
X381804Y319890D01*
X381584Y319998D01*
X381366Y320111D01*
X381151Y320229D01*
X380939Y320353D01*
X380730Y320481D01*
X380524Y320615D01*
X380322Y320754D01*
X380123Y320898D01*
X379928Y321047D01*
X379736Y321200D01*
X379548Y321358D01*
X379364Y321520D01*
X379185Y321688D01*
X379009Y321859D01*
X378838Y322035D01*
X378670Y322214D01*
X378508Y322398D01*
X378350Y322586D01*
X378197Y322778D01*
X378048Y322973D01*
X377904Y323172D01*
X377765Y323374D01*
X377631Y323580D01*
X377503Y323789D01*
X377379Y324001D01*
X377261Y324216D01*
X377148Y324434D01*
X377040Y324654D01*
X376938Y324878D01*
X376841Y325103D01*
X376750Y325331D01*
X376665Y325561D01*
X376585Y325793D01*
X376511Y326027D01*
X376442Y326263D01*
X376380Y326500D01*
X376323Y326739D01*
X376272Y326979D01*
X376227Y327220D01*
X376188Y327463D01*
X376155Y327706D01*
X376128Y327950D01*
X376107Y328194D01*
X376092Y328439D01*
X376083Y328685D01*
X376080Y328930D01*
D13*
X336080Y447730D02*
X326080Y447730D01*
X336080Y447730D02*
X336080Y438730D01*
X326080Y438730D01*
X326080Y447730D01*
X326080Y439680D02*
X336080Y439680D01*
X336080Y440630D02*
X326080Y440630D01*
X326080Y441580D02*
X336080Y441580D01*
X336080Y442530D02*
X326080Y442530D01*
X326080Y443480D02*
X336080Y443480D01*
X336080Y444430D02*
X326080Y444430D01*
X326080Y445380D02*
X336080Y445380D01*
X336080Y446330D02*
X326080Y446330D01*
X326080Y447280D02*
X336080Y447280D01*
X319080Y447730D02*
X309080Y447730D01*
X319080Y447730D02*
X319080Y438730D01*
X309080Y438730D01*
X309080Y447730D01*
X309080Y439680D02*
X319080Y439680D01*
X319080Y440630D02*
X309080Y440630D01*
X309080Y441580D02*
X319080Y441580D01*
X319080Y442530D02*
X309080Y442530D01*
X309080Y443480D02*
X319080Y443480D01*
X319080Y444430D02*
X309080Y444430D01*
X309080Y445380D02*
X319080Y445380D01*
X319080Y446330D02*
X309080Y446330D01*
X309080Y447280D02*
X319080Y447280D01*
D10*
X431040Y435100D02*
X431040Y430120D01*
X431040Y435100D02*
X445520Y435100D01*
X445520Y430120D01*
X431040Y430120D01*
X431040Y431089D02*
X445520Y431089D01*
X445520Y432058D02*
X431040Y432058D01*
X431040Y433027D02*
X445520Y433027D01*
X445520Y433996D02*
X431040Y433996D01*
X431040Y434965D02*
X445520Y434965D01*
X431040Y425100D02*
X431040Y420120D01*
X431040Y425100D02*
X445520Y425100D01*
X445520Y420120D01*
X431040Y420120D01*
X431040Y421089D02*
X445520Y421089D01*
X445520Y422058D02*
X431040Y422058D01*
X431040Y423027D02*
X445520Y423027D01*
X445520Y423996D02*
X431040Y423996D01*
X431040Y424965D02*
X445520Y424965D01*
X431040Y415100D02*
X431040Y410120D01*
X431040Y415100D02*
X445520Y415100D01*
X445520Y410120D01*
X431040Y410120D01*
X431040Y411089D02*
X445520Y411089D01*
X445520Y412058D02*
X431040Y412058D01*
X431040Y413027D02*
X445520Y413027D01*
X445520Y413996D02*
X431040Y413996D01*
X431040Y414965D02*
X445520Y414965D01*
X431040Y405100D02*
X431040Y400120D01*
X431040Y405100D02*
X445520Y405100D01*
X445520Y400120D01*
X431040Y400120D01*
X431040Y401089D02*
X445520Y401089D01*
X445520Y402058D02*
X431040Y402058D01*
X431040Y403027D02*
X445520Y403027D01*
X445520Y403996D02*
X431040Y403996D01*
X431040Y404965D02*
X445520Y404965D01*
D12*
X453010Y440090D02*
X453010Y451130D01*
X472050Y451130D01*
X472050Y440090D01*
X453010Y440090D01*
X453010Y441002D02*
X472050Y441002D01*
X472050Y441914D02*
X453010Y441914D01*
X453010Y442826D02*
X472050Y442826D01*
X472050Y443738D02*
X453010Y443738D01*
X453010Y444650D02*
X472050Y444650D01*
X472050Y445562D02*
X453010Y445562D01*
X453010Y446474D02*
X472050Y446474D01*
X472050Y447386D02*
X453010Y447386D01*
X453010Y448298D02*
X472050Y448298D01*
X472050Y449210D02*
X453010Y449210D01*
X453010Y450122D02*
X472050Y450122D01*
X472050Y451034D02*
X453010Y451034D01*
X453010Y395130D02*
X453010Y384090D01*
X453010Y395130D02*
X472050Y395130D01*
X472050Y384090D01*
X453010Y384090D01*
X453010Y385002D02*
X472050Y385002D01*
X472050Y385914D02*
X453010Y385914D01*
X453010Y386826D02*
X472050Y386826D01*
X472050Y387738D02*
X453010Y387738D01*
X453010Y388650D02*
X472050Y388650D01*
X472050Y389562D02*
X453010Y389562D01*
X453010Y390474D02*
X472050Y390474D01*
X472050Y391386D02*
X453010Y391386D01*
X453010Y392298D02*
X472050Y392298D01*
X472050Y393210D02*
X453010Y393210D01*
X453010Y394122D02*
X472050Y394122D01*
X472050Y395034D02*
X453010Y395034D01*
D16*
X460820Y359100D02*
X460820Y352100D01*
X453820Y352100D01*
X453820Y359100D01*
X460820Y359100D01*
X460820Y354950D02*
X453820Y354950D01*
X453820Y357800D02*
X460820Y357800D01*
X478360Y359100D02*
X478360Y352100D01*
X471360Y352100D01*
X471360Y359100D01*
X478360Y359100D01*
X478360Y354950D02*
X471360Y354950D01*
X471360Y357800D02*
X478360Y357800D01*
D13*
X462590Y367610D02*
X452590Y367610D01*
X452590Y376610D01*
X462590Y376610D01*
X462590Y367610D01*
X462590Y368560D02*
X452590Y368560D01*
X452590Y369510D02*
X462590Y369510D01*
X462590Y370460D02*
X452590Y370460D01*
X452590Y371410D02*
X462590Y371410D01*
X462590Y372360D02*
X452590Y372360D01*
X452590Y373310D02*
X462590Y373310D01*
X462590Y374260D02*
X452590Y374260D01*
X452590Y375210D02*
X462590Y375210D01*
X462590Y376160D02*
X452590Y376160D01*
X469590Y367610D02*
X479590Y367610D01*
X469590Y367610D02*
X469590Y376610D01*
X479590Y376610D01*
X479590Y367610D01*
X479590Y368560D02*
X469590Y368560D01*
X469590Y369510D02*
X479590Y369510D01*
X479590Y370460D02*
X469590Y370460D01*
X469590Y371410D02*
X479590Y371410D01*
X479590Y372360D02*
X469590Y372360D01*
X469590Y373310D02*
X479590Y373310D01*
X479590Y374260D02*
X469590Y374260D01*
X469590Y375210D02*
X479590Y375210D01*
X479590Y376160D02*
X469590Y376160D01*
D10*
X630670Y429340D02*
X633150Y429340D01*
X630670Y429340D02*
X630670Y430320D01*
X633150Y430320D01*
X633150Y429340D01*
X633150Y430309D02*
X630670Y430309D01*
X630670Y425340D02*
X633150Y425340D01*
X630670Y425340D02*
X630670Y426320D01*
X633150Y426320D01*
X633150Y425340D01*
X633150Y426309D02*
X630670Y426309D01*
X630670Y421340D02*
X633150Y421340D01*
X630670Y421340D02*
X630670Y422320D01*
X633150Y422320D01*
X633150Y421340D01*
X633150Y422309D02*
X630670Y422309D01*
X630670Y417340D02*
X633150Y417340D01*
X630670Y417340D02*
X630670Y418320D01*
X633150Y418320D01*
X633150Y417340D01*
X633150Y418309D02*
X630670Y418309D01*
X630670Y413340D02*
X633150Y413340D01*
X630670Y413340D02*
X630670Y414320D01*
X633150Y414320D01*
X633150Y413340D01*
X633150Y414309D02*
X630670Y414309D01*
X630670Y409340D02*
X633150Y409340D01*
X630670Y409340D02*
X630670Y410320D01*
X633150Y410320D01*
X633150Y409340D01*
X633150Y410309D02*
X630670Y410309D01*
X630670Y405340D02*
X633150Y405340D01*
X630670Y405340D02*
X630670Y406320D01*
X633150Y406320D01*
X633150Y405340D01*
X633150Y406309D02*
X630670Y406309D01*
X643150Y405820D02*
X643150Y403340D01*
X642170Y403340D01*
X642170Y405820D01*
X643150Y405820D01*
X643150Y404309D02*
X642170Y404309D01*
X642170Y405278D02*
X643150Y405278D01*
X648150Y405820D02*
X648150Y403340D01*
X647170Y403340D01*
X647170Y405820D01*
X648150Y405820D01*
X648150Y404309D02*
X647170Y404309D01*
X647170Y405278D02*
X648150Y405278D01*
X657170Y406320D02*
X659650Y406320D01*
X659650Y405340D01*
X657170Y405340D01*
X657170Y406320D01*
X657170Y406309D02*
X659650Y406309D01*
X659650Y410320D02*
X657170Y410320D01*
X659650Y410320D02*
X659650Y409340D01*
X657170Y409340D01*
X657170Y410320D01*
X657170Y410309D02*
X659650Y410309D01*
X659650Y414320D02*
X657170Y414320D01*
X659650Y414320D02*
X659650Y413340D01*
X657170Y413340D01*
X657170Y414320D01*
X657170Y414309D02*
X659650Y414309D01*
X659650Y418320D02*
X657170Y418320D01*
X659650Y418320D02*
X659650Y417340D01*
X657170Y417340D01*
X657170Y418320D01*
X657170Y418309D02*
X659650Y418309D01*
X659650Y422320D02*
X657170Y422320D01*
X659650Y422320D02*
X659650Y421340D01*
X657170Y421340D01*
X657170Y422320D01*
X657170Y422309D02*
X659650Y422309D01*
X659650Y426320D02*
X657170Y426320D01*
X659650Y426320D02*
X659650Y425340D01*
X657170Y425340D01*
X657170Y426320D01*
X657170Y426309D02*
X659650Y426309D01*
X659650Y430320D02*
X657170Y430320D01*
X659650Y430320D02*
X659650Y429340D01*
X657170Y429340D01*
X657170Y430320D01*
X657170Y430309D02*
X659650Y430309D01*
X647170Y429840D02*
X647170Y432320D01*
X648150Y432320D01*
X648150Y429840D01*
X647170Y429840D01*
X647170Y430809D02*
X648150Y430809D01*
X648150Y431778D02*
X647170Y431778D01*
X642170Y432320D02*
X642170Y429840D01*
X642170Y432320D02*
X643150Y432320D01*
X643150Y429840D01*
X642170Y429840D01*
X642170Y430809D02*
X643150Y430809D01*
X643150Y431778D02*
X642170Y431778D01*
D11*
X640160Y423330D03*
X650160Y423330D03*
X650160Y412330D03*
X640160Y412330D03*
D12*
X584640Y407000D02*
X584640Y393960D01*
X584640Y407000D02*
X595680Y407000D01*
X595680Y393960D01*
X584640Y393960D01*
X584640Y394872D02*
X595680Y394872D01*
X595680Y395784D02*
X584640Y395784D01*
X584640Y396696D02*
X595680Y396696D01*
X595680Y397608D02*
X584640Y397608D01*
X584640Y398520D02*
X595680Y398520D01*
X595680Y399432D02*
X584640Y399432D01*
X584640Y400344D02*
X595680Y400344D01*
X595680Y401256D02*
X584640Y401256D01*
X584640Y402168D02*
X595680Y402168D01*
X595680Y403080D02*
X584640Y403080D01*
X584640Y403992D02*
X595680Y403992D01*
X595680Y404904D02*
X584640Y404904D01*
X584640Y405816D02*
X595680Y405816D01*
X595680Y406728D02*
X584640Y406728D01*
X595680Y415960D02*
X595680Y429000D01*
X595680Y415960D02*
X584640Y415960D01*
X584640Y429000D01*
X595680Y429000D01*
X595680Y416872D02*
X584640Y416872D01*
X584640Y417784D02*
X595680Y417784D01*
X595680Y418696D02*
X584640Y418696D01*
X584640Y419608D02*
X595680Y419608D01*
X595680Y420520D02*
X584640Y420520D01*
X584640Y421432D02*
X595680Y421432D01*
X595680Y422344D02*
X584640Y422344D01*
X584640Y423256D02*
X595680Y423256D01*
X595680Y424168D02*
X584640Y424168D01*
X584640Y425080D02*
X595680Y425080D01*
X595680Y425992D02*
X584640Y425992D01*
X584640Y426904D02*
X595680Y426904D01*
X595680Y427816D02*
X584640Y427816D01*
X584640Y428728D02*
X595680Y428728D01*
X578680Y429000D02*
X578680Y415960D01*
X567640Y415960D01*
X567640Y429000D01*
X578680Y429000D01*
X578680Y416872D02*
X567640Y416872D01*
X567640Y417784D02*
X578680Y417784D01*
X578680Y418696D02*
X567640Y418696D01*
X567640Y419608D02*
X578680Y419608D01*
X578680Y420520D02*
X567640Y420520D01*
X567640Y421432D02*
X578680Y421432D01*
X578680Y422344D02*
X567640Y422344D01*
X567640Y423256D02*
X578680Y423256D01*
X578680Y424168D02*
X567640Y424168D01*
X567640Y425080D02*
X578680Y425080D01*
X578680Y425992D02*
X567640Y425992D01*
X567640Y426904D02*
X578680Y426904D01*
X578680Y427816D02*
X567640Y427816D01*
X567640Y428728D02*
X578680Y428728D01*
X567640Y407000D02*
X567640Y393960D01*
X567640Y407000D02*
X578680Y407000D01*
X578680Y393960D01*
X567640Y393960D01*
X567640Y394872D02*
X578680Y394872D01*
X578680Y395784D02*
X567640Y395784D01*
X567640Y396696D02*
X578680Y396696D01*
X578680Y397608D02*
X567640Y397608D01*
X567640Y398520D02*
X578680Y398520D01*
X578680Y399432D02*
X567640Y399432D01*
X567640Y400344D02*
X578680Y400344D01*
X578680Y401256D02*
X567640Y401256D01*
X567640Y402168D02*
X578680Y402168D01*
X578680Y403080D02*
X567640Y403080D01*
X567640Y403992D02*
X578680Y403992D01*
X578680Y404904D02*
X567640Y404904D01*
X567640Y405816D02*
X578680Y405816D01*
X578680Y406728D02*
X567640Y406728D01*
D13*
X631660Y438730D02*
X641660Y438730D01*
X631660Y438730D02*
X631660Y447730D01*
X641660Y447730D01*
X641660Y438730D01*
X641660Y439680D02*
X631660Y439680D01*
X631660Y440630D02*
X641660Y440630D01*
X641660Y441580D02*
X631660Y441580D01*
X631660Y442530D02*
X641660Y442530D01*
X641660Y443480D02*
X631660Y443480D01*
X631660Y444430D02*
X641660Y444430D01*
X641660Y445380D02*
X631660Y445380D01*
X631660Y446330D02*
X641660Y446330D01*
X641660Y447280D02*
X631660Y447280D01*
X648660Y438730D02*
X658660Y438730D01*
X648660Y438730D02*
X648660Y447730D01*
X658660Y447730D01*
X658660Y438730D01*
X658660Y439680D02*
X648660Y439680D01*
X648660Y440630D02*
X658660Y440630D01*
X658660Y441580D02*
X648660Y441580D01*
X648660Y442530D02*
X658660Y442530D01*
X658660Y443480D02*
X648660Y443480D01*
X648660Y444430D02*
X658660Y444430D01*
X658660Y445380D02*
X648660Y445380D01*
X648660Y446330D02*
X658660Y446330D01*
X658660Y447280D02*
X648660Y447280D01*
D14*
X708501Y344329D02*
X739299Y344329D01*
X739299Y313531D01*
X708501Y313531D01*
X708501Y344329D01*
X708501Y314436D02*
X739299Y314436D01*
X739299Y315341D02*
X708501Y315341D01*
X708501Y316246D02*
X739299Y316246D01*
X739299Y317151D02*
X708501Y317151D01*
X708501Y318056D02*
X739299Y318056D01*
X739299Y318961D02*
X708501Y318961D01*
X708501Y319866D02*
X739299Y319866D01*
X739299Y320771D02*
X708501Y320771D01*
X708501Y321676D02*
X739299Y321676D01*
X739299Y322581D02*
X708501Y322581D01*
X708501Y323486D02*
X739299Y323486D01*
X739299Y324391D02*
X708501Y324391D01*
X708501Y325296D02*
X739299Y325296D01*
X739299Y326201D02*
X708501Y326201D01*
X708501Y327106D02*
X739299Y327106D01*
X739299Y328011D02*
X708501Y328011D01*
X708501Y328916D02*
X739299Y328916D01*
X739299Y329821D02*
X708501Y329821D01*
X708501Y330726D02*
X739299Y330726D01*
X739299Y331631D02*
X708501Y331631D01*
X708501Y332536D02*
X739299Y332536D01*
X739299Y333441D02*
X708501Y333441D01*
X708501Y334346D02*
X739299Y334346D01*
X739299Y335251D02*
X708501Y335251D01*
X708501Y336156D02*
X739299Y336156D01*
X739299Y337061D02*
X708501Y337061D01*
X708501Y337966D02*
X739299Y337966D01*
X739299Y338871D02*
X708501Y338871D01*
X708501Y339776D02*
X739299Y339776D01*
X739299Y340681D02*
X708501Y340681D01*
X708501Y341586D02*
X739299Y341586D01*
X739299Y342491D02*
X708501Y342491D01*
X708501Y343396D02*
X739299Y343396D01*
X739299Y344301D02*
X708501Y344301D01*
X581819Y344329D02*
X551021Y344329D01*
X581819Y344329D02*
X581819Y313531D01*
X551021Y313531D01*
X551021Y344329D01*
X551021Y314436D02*
X581819Y314436D01*
X581819Y315341D02*
X551021Y315341D01*
X551021Y316246D02*
X581819Y316246D01*
X581819Y317151D02*
X551021Y317151D01*
X551021Y318056D02*
X581819Y318056D01*
X581819Y318961D02*
X551021Y318961D01*
X551021Y319866D02*
X581819Y319866D01*
X581819Y320771D02*
X551021Y320771D01*
X551021Y321676D02*
X581819Y321676D01*
X581819Y322581D02*
X551021Y322581D01*
X551021Y323486D02*
X581819Y323486D01*
X581819Y324391D02*
X551021Y324391D01*
X551021Y325296D02*
X581819Y325296D01*
X581819Y326201D02*
X551021Y326201D01*
X551021Y327106D02*
X581819Y327106D01*
X581819Y328011D02*
X551021Y328011D01*
X551021Y328916D02*
X581819Y328916D01*
X581819Y329821D02*
X551021Y329821D01*
X551021Y330726D02*
X581819Y330726D01*
X581819Y331631D02*
X551021Y331631D01*
X551021Y332536D02*
X581819Y332536D01*
X581819Y333441D02*
X551021Y333441D01*
X551021Y334346D02*
X581819Y334346D01*
X581819Y335251D02*
X551021Y335251D01*
X551021Y336156D02*
X581819Y336156D01*
X581819Y337061D02*
X551021Y337061D01*
X551021Y337966D02*
X581819Y337966D01*
X581819Y338871D02*
X551021Y338871D01*
X551021Y339776D02*
X581819Y339776D01*
X581819Y340681D02*
X551021Y340681D01*
X551021Y341586D02*
X581819Y341586D01*
X581819Y342491D02*
X551021Y342491D01*
X551021Y343396D02*
X581819Y343396D01*
X581819Y344301D02*
X551021Y344301D01*
D15*
X635160Y328930D02*
X635163Y329175D01*
X635172Y329421D01*
X635187Y329666D01*
X635208Y329910D01*
X635235Y330154D01*
X635268Y330397D01*
X635307Y330640D01*
X635352Y330881D01*
X635403Y331121D01*
X635460Y331360D01*
X635522Y331597D01*
X635591Y331833D01*
X635665Y332067D01*
X635745Y332299D01*
X635830Y332529D01*
X635921Y332757D01*
X636018Y332982D01*
X636120Y333206D01*
X636228Y333426D01*
X636341Y333644D01*
X636459Y333859D01*
X636583Y334071D01*
X636711Y334280D01*
X636845Y334486D01*
X636984Y334688D01*
X637128Y334887D01*
X637277Y335082D01*
X637430Y335274D01*
X637588Y335462D01*
X637750Y335646D01*
X637918Y335825D01*
X638089Y336001D01*
X638265Y336172D01*
X638444Y336340D01*
X638628Y336502D01*
X638816Y336660D01*
X639008Y336813D01*
X639203Y336962D01*
X639402Y337106D01*
X639604Y337245D01*
X639810Y337379D01*
X640019Y337507D01*
X640231Y337631D01*
X640446Y337749D01*
X640664Y337862D01*
X640884Y337970D01*
X641108Y338072D01*
X641333Y338169D01*
X641561Y338260D01*
X641791Y338345D01*
X642023Y338425D01*
X642257Y338499D01*
X642493Y338568D01*
X642730Y338630D01*
X642969Y338687D01*
X643209Y338738D01*
X643450Y338783D01*
X643693Y338822D01*
X643936Y338855D01*
X644180Y338882D01*
X644424Y338903D01*
X644669Y338918D01*
X644915Y338927D01*
X645160Y338930D01*
X645405Y338927D01*
X645651Y338918D01*
X645896Y338903D01*
X646140Y338882D01*
X646384Y338855D01*
X646627Y338822D01*
X646870Y338783D01*
X647111Y338738D01*
X647351Y338687D01*
X647590Y338630D01*
X647827Y338568D01*
X648063Y338499D01*
X648297Y338425D01*
X648529Y338345D01*
X648759Y338260D01*
X648987Y338169D01*
X649212Y338072D01*
X649436Y337970D01*
X649656Y337862D01*
X649874Y337749D01*
X650089Y337631D01*
X650301Y337507D01*
X650510Y337379D01*
X650716Y337245D01*
X650918Y337106D01*
X651117Y336962D01*
X651312Y336813D01*
X651504Y336660D01*
X651692Y336502D01*
X651876Y336340D01*
X652055Y336172D01*
X652231Y336001D01*
X652402Y335825D01*
X652570Y335646D01*
X652732Y335462D01*
X652890Y335274D01*
X653043Y335082D01*
X653192Y334887D01*
X653336Y334688D01*
X653475Y334486D01*
X653609Y334280D01*
X653737Y334071D01*
X653861Y333859D01*
X653979Y333644D01*
X654092Y333426D01*
X654200Y333206D01*
X654302Y332982D01*
X654399Y332757D01*
X654490Y332529D01*
X654575Y332299D01*
X654655Y332067D01*
X654729Y331833D01*
X654798Y331597D01*
X654860Y331360D01*
X654917Y331121D01*
X654968Y330881D01*
X655013Y330640D01*
X655052Y330397D01*
X655085Y330154D01*
X655112Y329910D01*
X655133Y329666D01*
X655148Y329421D01*
X655157Y329175D01*
X655160Y328930D01*
X655157Y328685D01*
X655148Y328439D01*
X655133Y328194D01*
X655112Y327950D01*
X655085Y327706D01*
X655052Y327463D01*
X655013Y327220D01*
X654968Y326979D01*
X654917Y326739D01*
X654860Y326500D01*
X654798Y326263D01*
X654729Y326027D01*
X654655Y325793D01*
X654575Y325561D01*
X654490Y325331D01*
X654399Y325103D01*
X654302Y324878D01*
X654200Y324654D01*
X654092Y324434D01*
X653979Y324216D01*
X653861Y324001D01*
X653737Y323789D01*
X653609Y323580D01*
X653475Y323374D01*
X653336Y323172D01*
X653192Y322973D01*
X653043Y322778D01*
X652890Y322586D01*
X652732Y322398D01*
X652570Y322214D01*
X652402Y322035D01*
X652231Y321859D01*
X652055Y321688D01*
X651876Y321520D01*
X651692Y321358D01*
X651504Y321200D01*
X651312Y321047D01*
X651117Y320898D01*
X650918Y320754D01*
X650716Y320615D01*
X650510Y320481D01*
X650301Y320353D01*
X650089Y320229D01*
X649874Y320111D01*
X649656Y319998D01*
X649436Y319890D01*
X649212Y319788D01*
X648987Y319691D01*
X648759Y319600D01*
X648529Y319515D01*
X648297Y319435D01*
X648063Y319361D01*
X647827Y319292D01*
X647590Y319230D01*
X647351Y319173D01*
X647111Y319122D01*
X646870Y319077D01*
X646627Y319038D01*
X646384Y319005D01*
X646140Y318978D01*
X645896Y318957D01*
X645651Y318942D01*
X645405Y318933D01*
X645160Y318930D01*
X644915Y318933D01*
X644669Y318942D01*
X644424Y318957D01*
X644180Y318978D01*
X643936Y319005D01*
X643693Y319038D01*
X643450Y319077D01*
X643209Y319122D01*
X642969Y319173D01*
X642730Y319230D01*
X642493Y319292D01*
X642257Y319361D01*
X642023Y319435D01*
X641791Y319515D01*
X641561Y319600D01*
X641333Y319691D01*
X641108Y319788D01*
X640884Y319890D01*
X640664Y319998D01*
X640446Y320111D01*
X640231Y320229D01*
X640019Y320353D01*
X639810Y320481D01*
X639604Y320615D01*
X639402Y320754D01*
X639203Y320898D01*
X639008Y321047D01*
X638816Y321200D01*
X638628Y321358D01*
X638444Y321520D01*
X638265Y321688D01*
X638089Y321859D01*
X637918Y322035D01*
X637750Y322214D01*
X637588Y322398D01*
X637430Y322586D01*
X637277Y322778D01*
X637128Y322973D01*
X636984Y323172D01*
X636845Y323374D01*
X636711Y323580D01*
X636583Y323789D01*
X636459Y324001D01*
X636341Y324216D01*
X636228Y324434D01*
X636120Y324654D01*
X636018Y324878D01*
X635921Y325103D01*
X635830Y325331D01*
X635745Y325561D01*
X635665Y325793D01*
X635591Y326027D01*
X635522Y326263D01*
X635460Y326500D01*
X635403Y326739D01*
X635352Y326979D01*
X635307Y327220D01*
X635268Y327463D01*
X635235Y327706D01*
X635208Y327950D01*
X635187Y328194D01*
X635172Y328439D01*
X635163Y328685D01*
X635160Y328930D01*
D13*
X595160Y447730D02*
X585160Y447730D01*
X595160Y447730D02*
X595160Y438730D01*
X585160Y438730D01*
X585160Y447730D01*
X585160Y439680D02*
X595160Y439680D01*
X595160Y440630D02*
X585160Y440630D01*
X585160Y441580D02*
X595160Y441580D01*
X595160Y442530D02*
X585160Y442530D01*
X585160Y443480D02*
X595160Y443480D01*
X595160Y444430D02*
X585160Y444430D01*
X585160Y445380D02*
X595160Y445380D01*
X595160Y446330D02*
X585160Y446330D01*
X585160Y447280D02*
X595160Y447280D01*
X578160Y447730D02*
X568160Y447730D01*
X578160Y447730D02*
X578160Y438730D01*
X568160Y438730D01*
X568160Y447730D01*
X568160Y439680D02*
X578160Y439680D01*
X578160Y440630D02*
X568160Y440630D01*
X568160Y441580D02*
X578160Y441580D01*
X578160Y442530D02*
X568160Y442530D01*
X568160Y443480D02*
X578160Y443480D01*
X578160Y444430D02*
X568160Y444430D01*
X568160Y445380D02*
X578160Y445380D01*
X578160Y446330D02*
X568160Y446330D01*
X568160Y447280D02*
X578160Y447280D01*
D10*
X690120Y435100D02*
X690120Y430120D01*
X690120Y435100D02*
X704600Y435100D01*
X704600Y430120D01*
X690120Y430120D01*
X690120Y431089D02*
X704600Y431089D01*
X704600Y432058D02*
X690120Y432058D01*
X690120Y433027D02*
X704600Y433027D01*
X704600Y433996D02*
X690120Y433996D01*
X690120Y434965D02*
X704600Y434965D01*
X690120Y425100D02*
X690120Y420120D01*
X690120Y425100D02*
X704600Y425100D01*
X704600Y420120D01*
X690120Y420120D01*
X690120Y421089D02*
X704600Y421089D01*
X704600Y422058D02*
X690120Y422058D01*
X690120Y423027D02*
X704600Y423027D01*
X704600Y423996D02*
X690120Y423996D01*
X690120Y424965D02*
X704600Y424965D01*
X690120Y415100D02*
X690120Y410120D01*
X690120Y415100D02*
X704600Y415100D01*
X704600Y410120D01*
X690120Y410120D01*
X690120Y411089D02*
X704600Y411089D01*
X704600Y412058D02*
X690120Y412058D01*
X690120Y413027D02*
X704600Y413027D01*
X704600Y413996D02*
X690120Y413996D01*
X690120Y414965D02*
X704600Y414965D01*
X690120Y405100D02*
X690120Y400120D01*
X690120Y405100D02*
X704600Y405100D01*
X704600Y400120D01*
X690120Y400120D01*
X690120Y401089D02*
X704600Y401089D01*
X704600Y402058D02*
X690120Y402058D01*
X690120Y403027D02*
X704600Y403027D01*
X704600Y403996D02*
X690120Y403996D01*
X690120Y404965D02*
X704600Y404965D01*
D12*
X712090Y440090D02*
X712090Y451130D01*
X731130Y451130D01*
X731130Y440090D01*
X712090Y440090D01*
X712090Y441002D02*
X731130Y441002D01*
X731130Y441914D02*
X712090Y441914D01*
X712090Y442826D02*
X731130Y442826D01*
X731130Y443738D02*
X712090Y443738D01*
X712090Y444650D02*
X731130Y444650D01*
X731130Y445562D02*
X712090Y445562D01*
X712090Y446474D02*
X731130Y446474D01*
X731130Y447386D02*
X712090Y447386D01*
X712090Y448298D02*
X731130Y448298D01*
X731130Y449210D02*
X712090Y449210D01*
X712090Y450122D02*
X731130Y450122D01*
X731130Y451034D02*
X712090Y451034D01*
X712090Y395130D02*
X712090Y384090D01*
X712090Y395130D02*
X731130Y395130D01*
X731130Y384090D01*
X712090Y384090D01*
X712090Y385002D02*
X731130Y385002D01*
X731130Y385914D02*
X712090Y385914D01*
X712090Y386826D02*
X731130Y386826D01*
X731130Y387738D02*
X712090Y387738D01*
X712090Y388650D02*
X731130Y388650D01*
X731130Y389562D02*
X712090Y389562D01*
X712090Y390474D02*
X731130Y390474D01*
X731130Y391386D02*
X712090Y391386D01*
X712090Y392298D02*
X731130Y392298D01*
X731130Y393210D02*
X712090Y393210D01*
X712090Y394122D02*
X731130Y394122D01*
X731130Y395034D02*
X712090Y395034D01*
D16*
X719900Y359100D02*
X719900Y352100D01*
X712900Y352100D01*
X712900Y359100D01*
X719900Y359100D01*
X719900Y354950D02*
X712900Y354950D01*
X712900Y357800D02*
X719900Y357800D01*
X737440Y359100D02*
X737440Y352100D01*
X730440Y352100D01*
X730440Y359100D01*
X737440Y359100D01*
X737440Y354950D02*
X730440Y354950D01*
X730440Y357800D02*
X737440Y357800D01*
D13*
X721670Y367610D02*
X711670Y367610D01*
X711670Y376610D01*
X721670Y376610D01*
X721670Y367610D01*
X721670Y368560D02*
X711670Y368560D01*
X711670Y369510D02*
X721670Y369510D01*
X721670Y370460D02*
X711670Y370460D01*
X711670Y371410D02*
X721670Y371410D01*
X721670Y372360D02*
X711670Y372360D01*
X711670Y373310D02*
X721670Y373310D01*
X721670Y374260D02*
X711670Y374260D01*
X711670Y375210D02*
X721670Y375210D01*
X721670Y376160D02*
X711670Y376160D01*
X728670Y367610D02*
X738670Y367610D01*
X728670Y367610D02*
X728670Y376610D01*
X738670Y376610D01*
X738670Y367610D01*
X738670Y368560D02*
X728670Y368560D01*
X728670Y369510D02*
X738670Y369510D01*
X738670Y370460D02*
X728670Y370460D01*
X728670Y371410D02*
X738670Y371410D01*
X738670Y372360D02*
X728670Y372360D01*
X728670Y373310D02*
X738670Y373310D01*
X738670Y374260D02*
X728670Y374260D01*
X728670Y375210D02*
X738670Y375210D01*
X738670Y376160D02*
X728670Y376160D01*
D10*
X114990Y688420D02*
X112510Y688420D01*
X112510Y689400D01*
X114990Y689400D01*
X114990Y688420D01*
X114990Y689389D02*
X112510Y689389D01*
X112510Y684420D02*
X114990Y684420D01*
X112510Y684420D02*
X112510Y685400D01*
X114990Y685400D01*
X114990Y684420D01*
X114990Y685389D02*
X112510Y685389D01*
X112510Y680420D02*
X114990Y680420D01*
X112510Y680420D02*
X112510Y681400D01*
X114990Y681400D01*
X114990Y680420D01*
X114990Y681389D02*
X112510Y681389D01*
X112510Y676420D02*
X114990Y676420D01*
X112510Y676420D02*
X112510Y677400D01*
X114990Y677400D01*
X114990Y676420D01*
X114990Y677389D02*
X112510Y677389D01*
X112510Y672420D02*
X114990Y672420D01*
X112510Y672420D02*
X112510Y673400D01*
X114990Y673400D01*
X114990Y672420D01*
X114990Y673389D02*
X112510Y673389D01*
X112510Y668420D02*
X114990Y668420D01*
X112510Y668420D02*
X112510Y669400D01*
X114990Y669400D01*
X114990Y668420D01*
X114990Y669389D02*
X112510Y669389D01*
X112510Y664420D02*
X114990Y664420D01*
X112510Y664420D02*
X112510Y665400D01*
X114990Y665400D01*
X114990Y664420D01*
X114990Y665389D02*
X112510Y665389D01*
X124990Y664900D02*
X124990Y662420D01*
X124010Y662420D01*
X124010Y664900D01*
X124990Y664900D01*
X124990Y663389D02*
X124010Y663389D01*
X124010Y664358D02*
X124990Y664358D01*
X129990Y664900D02*
X129990Y662420D01*
X129010Y662420D01*
X129010Y664900D01*
X129990Y664900D01*
X129990Y663389D02*
X129010Y663389D01*
X129010Y664358D02*
X129990Y664358D01*
X139010Y665400D02*
X141490Y665400D01*
X141490Y664420D01*
X139010Y664420D01*
X139010Y665400D01*
X139010Y665389D02*
X141490Y665389D01*
X141490Y669400D02*
X139010Y669400D01*
X141490Y669400D02*
X141490Y668420D01*
X139010Y668420D01*
X139010Y669400D01*
X139010Y669389D02*
X141490Y669389D01*
X141490Y673400D02*
X139010Y673400D01*
X141490Y673400D02*
X141490Y672420D01*
X139010Y672420D01*
X139010Y673400D01*
X139010Y673389D02*
X141490Y673389D01*
X141490Y677400D02*
X139010Y677400D01*
X141490Y677400D02*
X141490Y676420D01*
X139010Y676420D01*
X139010Y677400D01*
X139010Y677389D02*
X141490Y677389D01*
X141490Y681400D02*
X139010Y681400D01*
X141490Y681400D02*
X141490Y680420D01*
X139010Y680420D01*
X139010Y681400D01*
X139010Y681389D02*
X141490Y681389D01*
X141490Y685400D02*
X139010Y685400D01*
X141490Y685400D02*
X141490Y684420D01*
X139010Y684420D01*
X139010Y685400D01*
X139010Y685389D02*
X141490Y685389D01*
X141490Y689400D02*
X139010Y689400D01*
X141490Y689400D02*
X141490Y688420D01*
X139010Y688420D01*
X139010Y689400D01*
X139010Y689389D02*
X141490Y689389D01*
X129010Y688920D02*
X129010Y691400D01*
X129990Y691400D01*
X129990Y688920D01*
X129010Y688920D01*
X129010Y689889D02*
X129990Y689889D01*
X129990Y690858D02*
X129010Y690858D01*
X124010Y691400D02*
X124010Y688920D01*
X124010Y691400D02*
X124990Y691400D01*
X124990Y688920D01*
X124010Y688920D01*
X124010Y689889D02*
X124990Y689889D01*
X124990Y690858D02*
X124010Y690858D01*
D11*
X122000Y682410D03*
X132000Y682410D03*
X132000Y671410D03*
X122000Y671410D03*
D12*
X66480Y666080D02*
X66480Y653040D01*
X66480Y666080D02*
X77520Y666080D01*
X77520Y653040D01*
X66480Y653040D01*
X66480Y653952D02*
X77520Y653952D01*
X77520Y654864D02*
X66480Y654864D01*
X66480Y655776D02*
X77520Y655776D01*
X77520Y656688D02*
X66480Y656688D01*
X66480Y657600D02*
X77520Y657600D01*
X77520Y658512D02*
X66480Y658512D01*
X66480Y659424D02*
X77520Y659424D01*
X77520Y660336D02*
X66480Y660336D01*
X66480Y661248D02*
X77520Y661248D01*
X77520Y662160D02*
X66480Y662160D01*
X66480Y663072D02*
X77520Y663072D01*
X77520Y663984D02*
X66480Y663984D01*
X66480Y664896D02*
X77520Y664896D01*
X77520Y665808D02*
X66480Y665808D01*
X77520Y675040D02*
X77520Y688080D01*
X77520Y675040D02*
X66480Y675040D01*
X66480Y688080D01*
X77520Y688080D01*
X77520Y675952D02*
X66480Y675952D01*
X66480Y676864D02*
X77520Y676864D01*
X77520Y677776D02*
X66480Y677776D01*
X66480Y678688D02*
X77520Y678688D01*
X77520Y679600D02*
X66480Y679600D01*
X66480Y680512D02*
X77520Y680512D01*
X77520Y681424D02*
X66480Y681424D01*
X66480Y682336D02*
X77520Y682336D01*
X77520Y683248D02*
X66480Y683248D01*
X66480Y684160D02*
X77520Y684160D01*
X77520Y685072D02*
X66480Y685072D01*
X66480Y685984D02*
X77520Y685984D01*
X77520Y686896D02*
X66480Y686896D01*
X66480Y687808D02*
X77520Y687808D01*
X60520Y688080D02*
X60520Y675040D01*
X49480Y675040D01*
X49480Y688080D01*
X60520Y688080D01*
X60520Y675952D02*
X49480Y675952D01*
X49480Y676864D02*
X60520Y676864D01*
X60520Y677776D02*
X49480Y677776D01*
X49480Y678688D02*
X60520Y678688D01*
X60520Y679600D02*
X49480Y679600D01*
X49480Y680512D02*
X60520Y680512D01*
X60520Y681424D02*
X49480Y681424D01*
X49480Y682336D02*
X60520Y682336D01*
X60520Y683248D02*
X49480Y683248D01*
X49480Y684160D02*
X60520Y684160D01*
X60520Y685072D02*
X49480Y685072D01*
X49480Y685984D02*
X60520Y685984D01*
X60520Y686896D02*
X49480Y686896D01*
X49480Y687808D02*
X60520Y687808D01*
X49480Y666080D02*
X49480Y653040D01*
X49480Y666080D02*
X60520Y666080D01*
X60520Y653040D01*
X49480Y653040D01*
X49480Y653952D02*
X60520Y653952D01*
X60520Y654864D02*
X49480Y654864D01*
X49480Y655776D02*
X60520Y655776D01*
X60520Y656688D02*
X49480Y656688D01*
X49480Y657600D02*
X60520Y657600D01*
X60520Y658512D02*
X49480Y658512D01*
X49480Y659424D02*
X60520Y659424D01*
X60520Y660336D02*
X49480Y660336D01*
X49480Y661248D02*
X60520Y661248D01*
X60520Y662160D02*
X49480Y662160D01*
X49480Y663072D02*
X60520Y663072D01*
X60520Y663984D02*
X49480Y663984D01*
X49480Y664896D02*
X60520Y664896D01*
X60520Y665808D02*
X49480Y665808D01*
D13*
X113500Y697810D02*
X123500Y697810D01*
X113500Y697810D02*
X113500Y706810D01*
X123500Y706810D01*
X123500Y697810D01*
X123500Y698760D02*
X113500Y698760D01*
X113500Y699710D02*
X123500Y699710D01*
X123500Y700660D02*
X113500Y700660D01*
X113500Y701610D02*
X123500Y701610D01*
X123500Y702560D02*
X113500Y702560D01*
X113500Y703510D02*
X123500Y703510D01*
X123500Y704460D02*
X113500Y704460D01*
X113500Y705410D02*
X123500Y705410D01*
X123500Y706360D02*
X113500Y706360D01*
X130500Y697810D02*
X140500Y697810D01*
X130500Y697810D02*
X130500Y706810D01*
X140500Y706810D01*
X140500Y697810D01*
X140500Y698760D02*
X130500Y698760D01*
X130500Y699710D02*
X140500Y699710D01*
X140500Y700660D02*
X130500Y700660D01*
X130500Y701610D02*
X140500Y701610D01*
X140500Y702560D02*
X130500Y702560D01*
X130500Y703510D02*
X140500Y703510D01*
X140500Y704460D02*
X130500Y704460D01*
X130500Y705410D02*
X140500Y705410D01*
X140500Y706360D02*
X130500Y706360D01*
D14*
X190341Y603409D02*
X221139Y603409D01*
X221139Y572611D01*
X190341Y572611D01*
X190341Y603409D01*
X190341Y573516D02*
X221139Y573516D01*
X221139Y574421D02*
X190341Y574421D01*
X190341Y575326D02*
X221139Y575326D01*
X221139Y576231D02*
X190341Y576231D01*
X190341Y577136D02*
X221139Y577136D01*
X221139Y578041D02*
X190341Y578041D01*
X190341Y578946D02*
X221139Y578946D01*
X221139Y579851D02*
X190341Y579851D01*
X190341Y580756D02*
X221139Y580756D01*
X221139Y581661D02*
X190341Y581661D01*
X190341Y582566D02*
X221139Y582566D01*
X221139Y583471D02*
X190341Y583471D01*
X190341Y584376D02*
X221139Y584376D01*
X221139Y585281D02*
X190341Y585281D01*
X190341Y586186D02*
X221139Y586186D01*
X221139Y587091D02*
X190341Y587091D01*
X190341Y587996D02*
X221139Y587996D01*
X221139Y588901D02*
X190341Y588901D01*
X190341Y589806D02*
X221139Y589806D01*
X221139Y590711D02*
X190341Y590711D01*
X190341Y591616D02*
X221139Y591616D01*
X221139Y592521D02*
X190341Y592521D01*
X190341Y593426D02*
X221139Y593426D01*
X221139Y594331D02*
X190341Y594331D01*
X190341Y595236D02*
X221139Y595236D01*
X221139Y596141D02*
X190341Y596141D01*
X190341Y597046D02*
X221139Y597046D01*
X221139Y597951D02*
X190341Y597951D01*
X190341Y598856D02*
X221139Y598856D01*
X221139Y599761D02*
X190341Y599761D01*
X190341Y600666D02*
X221139Y600666D01*
X221139Y601571D02*
X190341Y601571D01*
X190341Y602476D02*
X221139Y602476D01*
X221139Y603381D02*
X190341Y603381D01*
X63659Y603409D02*
X32861Y603409D01*
X63659Y603409D02*
X63659Y572611D01*
X32861Y572611D01*
X32861Y603409D01*
X32861Y573516D02*
X63659Y573516D01*
X63659Y574421D02*
X32861Y574421D01*
X32861Y575326D02*
X63659Y575326D01*
X63659Y576231D02*
X32861Y576231D01*
X32861Y577136D02*
X63659Y577136D01*
X63659Y578041D02*
X32861Y578041D01*
X32861Y578946D02*
X63659Y578946D01*
X63659Y579851D02*
X32861Y579851D01*
X32861Y580756D02*
X63659Y580756D01*
X63659Y581661D02*
X32861Y581661D01*
X32861Y582566D02*
X63659Y582566D01*
X63659Y583471D02*
X32861Y583471D01*
X32861Y584376D02*
X63659Y584376D01*
X63659Y585281D02*
X32861Y585281D01*
X32861Y586186D02*
X63659Y586186D01*
X63659Y587091D02*
X32861Y587091D01*
X32861Y587996D02*
X63659Y587996D01*
X63659Y588901D02*
X32861Y588901D01*
X32861Y589806D02*
X63659Y589806D01*
X63659Y590711D02*
X32861Y590711D01*
X32861Y591616D02*
X63659Y591616D01*
X63659Y592521D02*
X32861Y592521D01*
X32861Y593426D02*
X63659Y593426D01*
X63659Y594331D02*
X32861Y594331D01*
X32861Y595236D02*
X63659Y595236D01*
X63659Y596141D02*
X32861Y596141D01*
X32861Y597046D02*
X63659Y597046D01*
X63659Y597951D02*
X32861Y597951D01*
X32861Y598856D02*
X63659Y598856D01*
X63659Y599761D02*
X32861Y599761D01*
X32861Y600666D02*
X63659Y600666D01*
X63659Y601571D02*
X32861Y601571D01*
X32861Y602476D02*
X63659Y602476D01*
X63659Y603381D02*
X32861Y603381D01*
D15*
X117000Y588010D02*
X117003Y588255D01*
X117012Y588501D01*
X117027Y588746D01*
X117048Y588990D01*
X117075Y589234D01*
X117108Y589477D01*
X117147Y589720D01*
X117192Y589961D01*
X117243Y590201D01*
X117300Y590440D01*
X117362Y590677D01*
X117431Y590913D01*
X117505Y591147D01*
X117585Y591379D01*
X117670Y591609D01*
X117761Y591837D01*
X117858Y592062D01*
X117960Y592286D01*
X118068Y592506D01*
X118181Y592724D01*
X118299Y592939D01*
X118423Y593151D01*
X118551Y593360D01*
X118685Y593566D01*
X118824Y593768D01*
X118968Y593967D01*
X119117Y594162D01*
X119270Y594354D01*
X119428Y594542D01*
X119590Y594726D01*
X119758Y594905D01*
X119929Y595081D01*
X120105Y595252D01*
X120284Y595420D01*
X120468Y595582D01*
X120656Y595740D01*
X120848Y595893D01*
X121043Y596042D01*
X121242Y596186D01*
X121444Y596325D01*
X121650Y596459D01*
X121859Y596587D01*
X122071Y596711D01*
X122286Y596829D01*
X122504Y596942D01*
X122724Y597050D01*
X122948Y597152D01*
X123173Y597249D01*
X123401Y597340D01*
X123631Y597425D01*
X123863Y597505D01*
X124097Y597579D01*
X124333Y597648D01*
X124570Y597710D01*
X124809Y597767D01*
X125049Y597818D01*
X125290Y597863D01*
X125533Y597902D01*
X125776Y597935D01*
X126020Y597962D01*
X126264Y597983D01*
X126509Y597998D01*
X126755Y598007D01*
X127000Y598010D01*
X127245Y598007D01*
X127491Y597998D01*
X127736Y597983D01*
X127980Y597962D01*
X128224Y597935D01*
X128467Y597902D01*
X128710Y597863D01*
X128951Y597818D01*
X129191Y597767D01*
X129430Y597710D01*
X129667Y597648D01*
X129903Y597579D01*
X130137Y597505D01*
X130369Y597425D01*
X130599Y597340D01*
X130827Y597249D01*
X131052Y597152D01*
X131276Y597050D01*
X131496Y596942D01*
X131714Y596829D01*
X131929Y596711D01*
X132141Y596587D01*
X132350Y596459D01*
X132556Y596325D01*
X132758Y596186D01*
X132957Y596042D01*
X133152Y595893D01*
X133344Y595740D01*
X133532Y595582D01*
X133716Y595420D01*
X133895Y595252D01*
X134071Y595081D01*
X134242Y594905D01*
X134410Y594726D01*
X134572Y594542D01*
X134730Y594354D01*
X134883Y594162D01*
X135032Y593967D01*
X135176Y593768D01*
X135315Y593566D01*
X135449Y593360D01*
X135577Y593151D01*
X135701Y592939D01*
X135819Y592724D01*
X135932Y592506D01*
X136040Y592286D01*
X136142Y592062D01*
X136239Y591837D01*
X136330Y591609D01*
X136415Y591379D01*
X136495Y591147D01*
X136569Y590913D01*
X136638Y590677D01*
X136700Y590440D01*
X136757Y590201D01*
X136808Y589961D01*
X136853Y589720D01*
X136892Y589477D01*
X136925Y589234D01*
X136952Y588990D01*
X136973Y588746D01*
X136988Y588501D01*
X136997Y588255D01*
X137000Y588010D01*
X136997Y587765D01*
X136988Y587519D01*
X136973Y587274D01*
X136952Y587030D01*
X136925Y586786D01*
X136892Y586543D01*
X136853Y586300D01*
X136808Y586059D01*
X136757Y585819D01*
X136700Y585580D01*
X136638Y585343D01*
X136569Y585107D01*
X136495Y584873D01*
X136415Y584641D01*
X136330Y584411D01*
X136239Y584183D01*
X136142Y583958D01*
X136040Y583734D01*
X135932Y583514D01*
X135819Y583296D01*
X135701Y583081D01*
X135577Y582869D01*
X135449Y582660D01*
X135315Y582454D01*
X135176Y582252D01*
X135032Y582053D01*
X134883Y581858D01*
X134730Y581666D01*
X134572Y581478D01*
X134410Y581294D01*
X134242Y581115D01*
X134071Y580939D01*
X133895Y580768D01*
X133716Y580600D01*
X133532Y580438D01*
X133344Y580280D01*
X133152Y580127D01*
X132957Y579978D01*
X132758Y579834D01*
X132556Y579695D01*
X132350Y579561D01*
X132141Y579433D01*
X131929Y579309D01*
X131714Y579191D01*
X131496Y579078D01*
X131276Y578970D01*
X131052Y578868D01*
X130827Y578771D01*
X130599Y578680D01*
X130369Y578595D01*
X130137Y578515D01*
X129903Y578441D01*
X129667Y578372D01*
X129430Y578310D01*
X129191Y578253D01*
X128951Y578202D01*
X128710Y578157D01*
X128467Y578118D01*
X128224Y578085D01*
X127980Y578058D01*
X127736Y578037D01*
X127491Y578022D01*
X127245Y578013D01*
X127000Y578010D01*
X126755Y578013D01*
X126509Y578022D01*
X126264Y578037D01*
X126020Y578058D01*
X125776Y578085D01*
X125533Y578118D01*
X125290Y578157D01*
X125049Y578202D01*
X124809Y578253D01*
X124570Y578310D01*
X124333Y578372D01*
X124097Y578441D01*
X123863Y578515D01*
X123631Y578595D01*
X123401Y578680D01*
X123173Y578771D01*
X122948Y578868D01*
X122724Y578970D01*
X122504Y579078D01*
X122286Y579191D01*
X122071Y579309D01*
X121859Y579433D01*
X121650Y579561D01*
X121444Y579695D01*
X121242Y579834D01*
X121043Y579978D01*
X120848Y580127D01*
X120656Y580280D01*
X120468Y580438D01*
X120284Y580600D01*
X120105Y580768D01*
X119929Y580939D01*
X119758Y581115D01*
X119590Y581294D01*
X119428Y581478D01*
X119270Y581666D01*
X119117Y581858D01*
X118968Y582053D01*
X118824Y582252D01*
X118685Y582454D01*
X118551Y582660D01*
X118423Y582869D01*
X118299Y583081D01*
X118181Y583296D01*
X118068Y583514D01*
X117960Y583734D01*
X117858Y583958D01*
X117761Y584183D01*
X117670Y584411D01*
X117585Y584641D01*
X117505Y584873D01*
X117431Y585107D01*
X117362Y585343D01*
X117300Y585580D01*
X117243Y585819D01*
X117192Y586059D01*
X117147Y586300D01*
X117108Y586543D01*
X117075Y586786D01*
X117048Y587030D01*
X117027Y587274D01*
X117012Y587519D01*
X117003Y587765D01*
X117000Y588010D01*
D13*
X77000Y706810D02*
X67000Y706810D01*
X77000Y706810D02*
X77000Y697810D01*
X67000Y697810D01*
X67000Y706810D01*
X67000Y698760D02*
X77000Y698760D01*
X77000Y699710D02*
X67000Y699710D01*
X67000Y700660D02*
X77000Y700660D01*
X77000Y701610D02*
X67000Y701610D01*
X67000Y702560D02*
X77000Y702560D01*
X77000Y703510D02*
X67000Y703510D01*
X67000Y704460D02*
X77000Y704460D01*
X77000Y705410D02*
X67000Y705410D01*
X67000Y706360D02*
X77000Y706360D01*
X60000Y706810D02*
X50000Y706810D01*
X60000Y706810D02*
X60000Y697810D01*
X50000Y697810D01*
X50000Y706810D01*
X50000Y698760D02*
X60000Y698760D01*
X60000Y699710D02*
X50000Y699710D01*
X50000Y700660D02*
X60000Y700660D01*
X60000Y701610D02*
X50000Y701610D01*
X50000Y702560D02*
X60000Y702560D01*
X60000Y703510D02*
X50000Y703510D01*
X50000Y704460D02*
X60000Y704460D01*
X60000Y705410D02*
X50000Y705410D01*
X50000Y706360D02*
X60000Y706360D01*
D10*
X171960Y694180D02*
X171960Y689200D01*
X171960Y694180D02*
X186440Y694180D01*
X186440Y689200D01*
X171960Y689200D01*
X171960Y690169D02*
X186440Y690169D01*
X186440Y691138D02*
X171960Y691138D01*
X171960Y692107D02*
X186440Y692107D01*
X186440Y693076D02*
X171960Y693076D01*
X171960Y694045D02*
X186440Y694045D01*
X171960Y684180D02*
X171960Y679200D01*
X171960Y684180D02*
X186440Y684180D01*
X186440Y679200D01*
X171960Y679200D01*
X171960Y680169D02*
X186440Y680169D01*
X186440Y681138D02*
X171960Y681138D01*
X171960Y682107D02*
X186440Y682107D01*
X186440Y683076D02*
X171960Y683076D01*
X171960Y684045D02*
X186440Y684045D01*
X171960Y674180D02*
X171960Y669200D01*
X171960Y674180D02*
X186440Y674180D01*
X186440Y669200D01*
X171960Y669200D01*
X171960Y670169D02*
X186440Y670169D01*
X186440Y671138D02*
X171960Y671138D01*
X171960Y672107D02*
X186440Y672107D01*
X186440Y673076D02*
X171960Y673076D01*
X171960Y674045D02*
X186440Y674045D01*
X171960Y664180D02*
X171960Y659200D01*
X171960Y664180D02*
X186440Y664180D01*
X186440Y659200D01*
X171960Y659200D01*
X171960Y660169D02*
X186440Y660169D01*
X186440Y661138D02*
X171960Y661138D01*
X171960Y662107D02*
X186440Y662107D01*
X186440Y663076D02*
X171960Y663076D01*
X171960Y664045D02*
X186440Y664045D01*
D12*
X193930Y699170D02*
X193930Y710210D01*
X212970Y710210D01*
X212970Y699170D01*
X193930Y699170D01*
X193930Y700082D02*
X212970Y700082D01*
X212970Y700994D02*
X193930Y700994D01*
X193930Y701906D02*
X212970Y701906D01*
X212970Y702818D02*
X193930Y702818D01*
X193930Y703730D02*
X212970Y703730D01*
X212970Y704642D02*
X193930Y704642D01*
X193930Y705554D02*
X212970Y705554D01*
X212970Y706466D02*
X193930Y706466D01*
X193930Y707378D02*
X212970Y707378D01*
X212970Y708290D02*
X193930Y708290D01*
X193930Y709202D02*
X212970Y709202D01*
X212970Y710114D02*
X193930Y710114D01*
X193930Y654210D02*
X193930Y643170D01*
X193930Y654210D02*
X212970Y654210D01*
X212970Y643170D01*
X193930Y643170D01*
X193930Y644082D02*
X212970Y644082D01*
X212970Y644994D02*
X193930Y644994D01*
X193930Y645906D02*
X212970Y645906D01*
X212970Y646818D02*
X193930Y646818D01*
X193930Y647730D02*
X212970Y647730D01*
X212970Y648642D02*
X193930Y648642D01*
X193930Y649554D02*
X212970Y649554D01*
X212970Y650466D02*
X193930Y650466D01*
X193930Y651378D02*
X212970Y651378D01*
X212970Y652290D02*
X193930Y652290D01*
X193930Y653202D02*
X212970Y653202D01*
X212970Y654114D02*
X193930Y654114D01*
D16*
X201740Y618180D02*
X201740Y611180D01*
X194740Y611180D01*
X194740Y618180D01*
X201740Y618180D01*
X201740Y614030D02*
X194740Y614030D01*
X194740Y616880D02*
X201740Y616880D01*
X219280Y618180D02*
X219280Y611180D01*
X212280Y611180D01*
X212280Y618180D01*
X219280Y618180D01*
X219280Y614030D02*
X212280Y614030D01*
X212280Y616880D02*
X219280Y616880D01*
D13*
X203510Y626690D02*
X193510Y626690D01*
X193510Y635690D01*
X203510Y635690D01*
X203510Y626690D01*
X203510Y627640D02*
X193510Y627640D01*
X193510Y628590D02*
X203510Y628590D01*
X203510Y629540D02*
X193510Y629540D01*
X193510Y630490D02*
X203510Y630490D01*
X203510Y631440D02*
X193510Y631440D01*
X193510Y632390D02*
X203510Y632390D01*
X203510Y633340D02*
X193510Y633340D01*
X193510Y634290D02*
X203510Y634290D01*
X203510Y635240D02*
X193510Y635240D01*
X210510Y626690D02*
X220510Y626690D01*
X210510Y626690D02*
X210510Y635690D01*
X220510Y635690D01*
X220510Y626690D01*
X220510Y627640D02*
X210510Y627640D01*
X210510Y628590D02*
X220510Y628590D01*
X220510Y629540D02*
X210510Y629540D01*
X210510Y630490D02*
X220510Y630490D01*
X220510Y631440D02*
X210510Y631440D01*
X210510Y632390D02*
X220510Y632390D01*
X220510Y633340D02*
X210510Y633340D01*
X210510Y634290D02*
X220510Y634290D01*
X220510Y635240D02*
X210510Y635240D01*
D10*
X371590Y688420D02*
X374070Y688420D01*
X371590Y688420D02*
X371590Y689400D01*
X374070Y689400D01*
X374070Y688420D01*
X374070Y689389D02*
X371590Y689389D01*
X371590Y684420D02*
X374070Y684420D01*
X371590Y684420D02*
X371590Y685400D01*
X374070Y685400D01*
X374070Y684420D01*
X374070Y685389D02*
X371590Y685389D01*
X371590Y680420D02*
X374070Y680420D01*
X371590Y680420D02*
X371590Y681400D01*
X374070Y681400D01*
X374070Y680420D01*
X374070Y681389D02*
X371590Y681389D01*
X371590Y676420D02*
X374070Y676420D01*
X371590Y676420D02*
X371590Y677400D01*
X374070Y677400D01*
X374070Y676420D01*
X374070Y677389D02*
X371590Y677389D01*
X371590Y672420D02*
X374070Y672420D01*
X371590Y672420D02*
X371590Y673400D01*
X374070Y673400D01*
X374070Y672420D01*
X374070Y673389D02*
X371590Y673389D01*
X371590Y668420D02*
X374070Y668420D01*
X371590Y668420D02*
X371590Y669400D01*
X374070Y669400D01*
X374070Y668420D01*
X374070Y669389D02*
X371590Y669389D01*
X371590Y664420D02*
X374070Y664420D01*
X371590Y664420D02*
X371590Y665400D01*
X374070Y665400D01*
X374070Y664420D01*
X374070Y665389D02*
X371590Y665389D01*
X384070Y664900D02*
X384070Y662420D01*
X383090Y662420D01*
X383090Y664900D01*
X384070Y664900D01*
X384070Y663389D02*
X383090Y663389D01*
X383090Y664358D02*
X384070Y664358D01*
X389070Y664900D02*
X389070Y662420D01*
X388090Y662420D01*
X388090Y664900D01*
X389070Y664900D01*
X389070Y663389D02*
X388090Y663389D01*
X388090Y664358D02*
X389070Y664358D01*
X398090Y665400D02*
X400570Y665400D01*
X400570Y664420D01*
X398090Y664420D01*
X398090Y665400D01*
X398090Y665389D02*
X400570Y665389D01*
X400570Y669400D02*
X398090Y669400D01*
X400570Y669400D02*
X400570Y668420D01*
X398090Y668420D01*
X398090Y669400D01*
X398090Y669389D02*
X400570Y669389D01*
X400570Y673400D02*
X398090Y673400D01*
X400570Y673400D02*
X400570Y672420D01*
X398090Y672420D01*
X398090Y673400D01*
X398090Y673389D02*
X400570Y673389D01*
X400570Y677400D02*
X398090Y677400D01*
X400570Y677400D02*
X400570Y676420D01*
X398090Y676420D01*
X398090Y677400D01*
X398090Y677389D02*
X400570Y677389D01*
X400570Y681400D02*
X398090Y681400D01*
X400570Y681400D02*
X400570Y680420D01*
X398090Y680420D01*
X398090Y681400D01*
X398090Y681389D02*
X400570Y681389D01*
X400570Y685400D02*
X398090Y685400D01*
X400570Y685400D02*
X400570Y684420D01*
X398090Y684420D01*
X398090Y685400D01*
X398090Y685389D02*
X400570Y685389D01*
X400570Y689400D02*
X398090Y689400D01*
X400570Y689400D02*
X400570Y688420D01*
X398090Y688420D01*
X398090Y689400D01*
X398090Y689389D02*
X400570Y689389D01*
X388090Y688920D02*
X388090Y691400D01*
X389070Y691400D01*
X389070Y688920D01*
X388090Y688920D01*
X388090Y689889D02*
X389070Y689889D01*
X389070Y690858D02*
X388090Y690858D01*
X383090Y691400D02*
X383090Y688920D01*
X383090Y691400D02*
X384070Y691400D01*
X384070Y688920D01*
X383090Y688920D01*
X383090Y689889D02*
X384070Y689889D01*
X384070Y690858D02*
X383090Y690858D01*
D11*
X381080Y682410D03*
X391080Y682410D03*
X391080Y671410D03*
X381080Y671410D03*
D12*
X325560Y666080D02*
X325560Y653040D01*
X325560Y666080D02*
X336600Y666080D01*
X336600Y653040D01*
X325560Y653040D01*
X325560Y653952D02*
X336600Y653952D01*
X336600Y654864D02*
X325560Y654864D01*
X325560Y655776D02*
X336600Y655776D01*
X336600Y656688D02*
X325560Y656688D01*
X325560Y657600D02*
X336600Y657600D01*
X336600Y658512D02*
X325560Y658512D01*
X325560Y659424D02*
X336600Y659424D01*
X336600Y660336D02*
X325560Y660336D01*
X325560Y661248D02*
X336600Y661248D01*
X336600Y662160D02*
X325560Y662160D01*
X325560Y663072D02*
X336600Y663072D01*
X336600Y663984D02*
X325560Y663984D01*
X325560Y664896D02*
X336600Y664896D01*
X336600Y665808D02*
X325560Y665808D01*
X336600Y675040D02*
X336600Y688080D01*
X336600Y675040D02*
X325560Y675040D01*
X325560Y688080D01*
X336600Y688080D01*
X336600Y675952D02*
X325560Y675952D01*
X325560Y676864D02*
X336600Y676864D01*
X336600Y677776D02*
X325560Y677776D01*
X325560Y678688D02*
X336600Y678688D01*
X336600Y679600D02*
X325560Y679600D01*
X325560Y680512D02*
X336600Y680512D01*
X336600Y681424D02*
X325560Y681424D01*
X325560Y682336D02*
X336600Y682336D01*
X336600Y683248D02*
X325560Y683248D01*
X325560Y684160D02*
X336600Y684160D01*
X336600Y685072D02*
X325560Y685072D01*
X325560Y685984D02*
X336600Y685984D01*
X336600Y686896D02*
X325560Y686896D01*
X325560Y687808D02*
X336600Y687808D01*
X319600Y688080D02*
X319600Y675040D01*
X308560Y675040D01*
X308560Y688080D01*
X319600Y688080D01*
X319600Y675952D02*
X308560Y675952D01*
X308560Y676864D02*
X319600Y676864D01*
X319600Y677776D02*
X308560Y677776D01*
X308560Y678688D02*
X319600Y678688D01*
X319600Y679600D02*
X308560Y679600D01*
X308560Y680512D02*
X319600Y680512D01*
X319600Y681424D02*
X308560Y681424D01*
X308560Y682336D02*
X319600Y682336D01*
X319600Y683248D02*
X308560Y683248D01*
X308560Y684160D02*
X319600Y684160D01*
X319600Y685072D02*
X308560Y685072D01*
X308560Y685984D02*
X319600Y685984D01*
X319600Y686896D02*
X308560Y686896D01*
X308560Y687808D02*
X319600Y687808D01*
X308560Y666080D02*
X308560Y653040D01*
X308560Y666080D02*
X319600Y666080D01*
X319600Y653040D01*
X308560Y653040D01*
X308560Y653952D02*
X319600Y653952D01*
X319600Y654864D02*
X308560Y654864D01*
X308560Y655776D02*
X319600Y655776D01*
X319600Y656688D02*
X308560Y656688D01*
X308560Y657600D02*
X319600Y657600D01*
X319600Y658512D02*
X308560Y658512D01*
X308560Y659424D02*
X319600Y659424D01*
X319600Y660336D02*
X308560Y660336D01*
X308560Y661248D02*
X319600Y661248D01*
X319600Y662160D02*
X308560Y662160D01*
X308560Y663072D02*
X319600Y663072D01*
X319600Y663984D02*
X308560Y663984D01*
X308560Y664896D02*
X319600Y664896D01*
X319600Y665808D02*
X308560Y665808D01*
D13*
X372580Y697810D02*
X382580Y697810D01*
X372580Y697810D02*
X372580Y706810D01*
X382580Y706810D01*
X382580Y697810D01*
X382580Y698760D02*
X372580Y698760D01*
X372580Y699710D02*
X382580Y699710D01*
X382580Y700660D02*
X372580Y700660D01*
X372580Y701610D02*
X382580Y701610D01*
X382580Y702560D02*
X372580Y702560D01*
X372580Y703510D02*
X382580Y703510D01*
X382580Y704460D02*
X372580Y704460D01*
X372580Y705410D02*
X382580Y705410D01*
X382580Y706360D02*
X372580Y706360D01*
X389580Y697810D02*
X399580Y697810D01*
X389580Y697810D02*
X389580Y706810D01*
X399580Y706810D01*
X399580Y697810D01*
X399580Y698760D02*
X389580Y698760D01*
X389580Y699710D02*
X399580Y699710D01*
X399580Y700660D02*
X389580Y700660D01*
X389580Y701610D02*
X399580Y701610D01*
X399580Y702560D02*
X389580Y702560D01*
X389580Y703510D02*
X399580Y703510D01*
X399580Y704460D02*
X389580Y704460D01*
X389580Y705410D02*
X399580Y705410D01*
X399580Y706360D02*
X389580Y706360D01*
D14*
X449421Y603409D02*
X480219Y603409D01*
X480219Y572611D01*
X449421Y572611D01*
X449421Y603409D01*
X449421Y573516D02*
X480219Y573516D01*
X480219Y574421D02*
X449421Y574421D01*
X449421Y575326D02*
X480219Y575326D01*
X480219Y576231D02*
X449421Y576231D01*
X449421Y577136D02*
X480219Y577136D01*
X480219Y578041D02*
X449421Y578041D01*
X449421Y578946D02*
X480219Y578946D01*
X480219Y579851D02*
X449421Y579851D01*
X449421Y580756D02*
X480219Y580756D01*
X480219Y581661D02*
X449421Y581661D01*
X449421Y582566D02*
X480219Y582566D01*
X480219Y583471D02*
X449421Y583471D01*
X449421Y584376D02*
X480219Y584376D01*
X480219Y585281D02*
X449421Y585281D01*
X449421Y586186D02*
X480219Y586186D01*
X480219Y587091D02*
X449421Y587091D01*
X449421Y587996D02*
X480219Y587996D01*
X480219Y588901D02*
X449421Y588901D01*
X449421Y589806D02*
X480219Y589806D01*
X480219Y590711D02*
X449421Y590711D01*
X449421Y591616D02*
X480219Y591616D01*
X480219Y592521D02*
X449421Y592521D01*
X449421Y593426D02*
X480219Y593426D01*
X480219Y594331D02*
X449421Y594331D01*
X449421Y595236D02*
X480219Y595236D01*
X480219Y596141D02*
X449421Y596141D01*
X449421Y597046D02*
X480219Y597046D01*
X480219Y597951D02*
X449421Y597951D01*
X449421Y598856D02*
X480219Y598856D01*
X480219Y599761D02*
X449421Y599761D01*
X449421Y600666D02*
X480219Y600666D01*
X480219Y601571D02*
X449421Y601571D01*
X449421Y602476D02*
X480219Y602476D01*
X480219Y603381D02*
X449421Y603381D01*
X322739Y603409D02*
X291941Y603409D01*
X322739Y603409D02*
X322739Y572611D01*
X291941Y572611D01*
X291941Y603409D01*
X291941Y573516D02*
X322739Y573516D01*
X322739Y574421D02*
X291941Y574421D01*
X291941Y575326D02*
X322739Y575326D01*
X322739Y576231D02*
X291941Y576231D01*
X291941Y577136D02*
X322739Y577136D01*
X322739Y578041D02*
X291941Y578041D01*
X291941Y578946D02*
X322739Y578946D01*
X322739Y579851D02*
X291941Y579851D01*
X291941Y580756D02*
X322739Y580756D01*
X322739Y581661D02*
X291941Y581661D01*
X291941Y582566D02*
X322739Y582566D01*
X322739Y583471D02*
X291941Y583471D01*
X291941Y584376D02*
X322739Y584376D01*
X322739Y585281D02*
X291941Y585281D01*
X291941Y586186D02*
X322739Y586186D01*
X322739Y587091D02*
X291941Y587091D01*
X291941Y587996D02*
X322739Y587996D01*
X322739Y588901D02*
X291941Y588901D01*
X291941Y589806D02*
X322739Y589806D01*
X322739Y590711D02*
X291941Y590711D01*
X291941Y591616D02*
X322739Y591616D01*
X322739Y592521D02*
X291941Y592521D01*
X291941Y593426D02*
X322739Y593426D01*
X322739Y594331D02*
X291941Y594331D01*
X291941Y595236D02*
X322739Y595236D01*
X322739Y596141D02*
X291941Y596141D01*
X291941Y597046D02*
X322739Y597046D01*
X322739Y597951D02*
X291941Y597951D01*
X291941Y598856D02*
X322739Y598856D01*
X322739Y599761D02*
X291941Y599761D01*
X291941Y600666D02*
X322739Y600666D01*
X322739Y601571D02*
X291941Y601571D01*
X291941Y602476D02*
X322739Y602476D01*
X322739Y603381D02*
X291941Y603381D01*
D15*
X376080Y588010D02*
X376083Y588255D01*
X376092Y588501D01*
X376107Y588746D01*
X376128Y588990D01*
X376155Y589234D01*
X376188Y589477D01*
X376227Y589720D01*
X376272Y589961D01*
X376323Y590201D01*
X376380Y590440D01*
X376442Y590677D01*
X376511Y590913D01*
X376585Y591147D01*
X376665Y591379D01*
X376750Y591609D01*
X376841Y591837D01*
X376938Y592062D01*
X377040Y592286D01*
X377148Y592506D01*
X377261Y592724D01*
X377379Y592939D01*
X377503Y593151D01*
X377631Y593360D01*
X377765Y593566D01*
X377904Y593768D01*
X378048Y593967D01*
X378197Y594162D01*
X378350Y594354D01*
X378508Y594542D01*
X378670Y594726D01*
X378838Y594905D01*
X379009Y595081D01*
X379185Y595252D01*
X379364Y595420D01*
X379548Y595582D01*
X379736Y595740D01*
X379928Y595893D01*
X380123Y596042D01*
X380322Y596186D01*
X380524Y596325D01*
X380730Y596459D01*
X380939Y596587D01*
X381151Y596711D01*
X381366Y596829D01*
X381584Y596942D01*
X381804Y597050D01*
X382028Y597152D01*
X382253Y597249D01*
X382481Y597340D01*
X382711Y597425D01*
X382943Y597505D01*
X383177Y597579D01*
X383413Y597648D01*
X383650Y597710D01*
X383889Y597767D01*
X384129Y597818D01*
X384370Y597863D01*
X384613Y597902D01*
X384856Y597935D01*
X385100Y597962D01*
X385344Y597983D01*
X385589Y597998D01*
X385835Y598007D01*
X386080Y598010D01*
X386325Y598007D01*
X386571Y597998D01*
X386816Y597983D01*
X387060Y597962D01*
X387304Y597935D01*
X387547Y597902D01*
X387790Y597863D01*
X388031Y597818D01*
X388271Y597767D01*
X388510Y597710D01*
X388747Y597648D01*
X388983Y597579D01*
X389217Y597505D01*
X389449Y597425D01*
X389679Y597340D01*
X389907Y597249D01*
X390132Y597152D01*
X390356Y597050D01*
X390576Y596942D01*
X390794Y596829D01*
X391009Y596711D01*
X391221Y596587D01*
X391430Y596459D01*
X391636Y596325D01*
X391838Y596186D01*
X392037Y596042D01*
X392232Y595893D01*
X392424Y595740D01*
X392612Y595582D01*
X392796Y595420D01*
X392975Y595252D01*
X393151Y595081D01*
X393322Y594905D01*
X393490Y594726D01*
X393652Y594542D01*
X393810Y594354D01*
X393963Y594162D01*
X394112Y593967D01*
X394256Y593768D01*
X394395Y593566D01*
X394529Y593360D01*
X394657Y593151D01*
X394781Y592939D01*
X394899Y592724D01*
X395012Y592506D01*
X395120Y592286D01*
X395222Y592062D01*
X395319Y591837D01*
X395410Y591609D01*
X395495Y591379D01*
X395575Y591147D01*
X395649Y590913D01*
X395718Y590677D01*
X395780Y590440D01*
X395837Y590201D01*
X395888Y589961D01*
X395933Y589720D01*
X395972Y589477D01*
X396005Y589234D01*
X396032Y588990D01*
X396053Y588746D01*
X396068Y588501D01*
X396077Y588255D01*
X396080Y588010D01*
X396077Y587765D01*
X396068Y587519D01*
X396053Y587274D01*
X396032Y587030D01*
X396005Y586786D01*
X395972Y586543D01*
X395933Y586300D01*
X395888Y586059D01*
X395837Y585819D01*
X395780Y585580D01*
X395718Y585343D01*
X395649Y585107D01*
X395575Y584873D01*
X395495Y584641D01*
X395410Y584411D01*
X395319Y584183D01*
X395222Y583958D01*
X395120Y583734D01*
X395012Y583514D01*
X394899Y583296D01*
X394781Y583081D01*
X394657Y582869D01*
X394529Y582660D01*
X394395Y582454D01*
X394256Y582252D01*
X394112Y582053D01*
X393963Y581858D01*
X393810Y581666D01*
X393652Y581478D01*
X393490Y581294D01*
X393322Y581115D01*
X393151Y580939D01*
X392975Y580768D01*
X392796Y580600D01*
X392612Y580438D01*
X392424Y580280D01*
X392232Y580127D01*
X392037Y579978D01*
X391838Y579834D01*
X391636Y579695D01*
X391430Y579561D01*
X391221Y579433D01*
X391009Y579309D01*
X390794Y579191D01*
X390576Y579078D01*
X390356Y578970D01*
X390132Y578868D01*
X389907Y578771D01*
X389679Y578680D01*
X389449Y578595D01*
X389217Y578515D01*
X388983Y578441D01*
X388747Y578372D01*
X388510Y578310D01*
X388271Y578253D01*
X388031Y578202D01*
X387790Y578157D01*
X387547Y578118D01*
X387304Y578085D01*
X387060Y578058D01*
X386816Y578037D01*
X386571Y578022D01*
X386325Y578013D01*
X386080Y578010D01*
X385835Y578013D01*
X385589Y578022D01*
X385344Y578037D01*
X385100Y578058D01*
X384856Y578085D01*
X384613Y578118D01*
X384370Y578157D01*
X384129Y578202D01*
X383889Y578253D01*
X383650Y578310D01*
X383413Y578372D01*
X383177Y578441D01*
X382943Y578515D01*
X382711Y578595D01*
X382481Y578680D01*
X382253Y578771D01*
X382028Y578868D01*
X381804Y578970D01*
X381584Y579078D01*
X381366Y579191D01*
X381151Y579309D01*
X380939Y579433D01*
X380730Y579561D01*
X380524Y579695D01*
X380322Y579834D01*
X380123Y579978D01*
X379928Y580127D01*
X379736Y580280D01*
X379548Y580438D01*
X379364Y580600D01*
X379185Y580768D01*
X379009Y580939D01*
X378838Y581115D01*
X378670Y581294D01*
X378508Y581478D01*
X378350Y581666D01*
X378197Y581858D01*
X378048Y582053D01*
X377904Y582252D01*
X377765Y582454D01*
X377631Y582660D01*
X377503Y582869D01*
X377379Y583081D01*
X377261Y583296D01*
X377148Y583514D01*
X377040Y583734D01*
X376938Y583958D01*
X376841Y584183D01*
X376750Y584411D01*
X376665Y584641D01*
X376585Y584873D01*
X376511Y585107D01*
X376442Y585343D01*
X376380Y585580D01*
X376323Y585819D01*
X376272Y586059D01*
X376227Y586300D01*
X376188Y586543D01*
X376155Y586786D01*
X376128Y587030D01*
X376107Y587274D01*
X376092Y587519D01*
X376083Y587765D01*
X376080Y588010D01*
D13*
X336080Y706810D02*
X326080Y706810D01*
X336080Y706810D02*
X336080Y697810D01*
X326080Y697810D01*
X326080Y706810D01*
X326080Y698760D02*
X336080Y698760D01*
X336080Y699710D02*
X326080Y699710D01*
X326080Y700660D02*
X336080Y700660D01*
X336080Y701610D02*
X326080Y701610D01*
X326080Y702560D02*
X336080Y702560D01*
X336080Y703510D02*
X326080Y703510D01*
X326080Y704460D02*
X336080Y704460D01*
X336080Y705410D02*
X326080Y705410D01*
X326080Y706360D02*
X336080Y706360D01*
X319080Y706810D02*
X309080Y706810D01*
X319080Y706810D02*
X319080Y697810D01*
X309080Y697810D01*
X309080Y706810D01*
X309080Y698760D02*
X319080Y698760D01*
X319080Y699710D02*
X309080Y699710D01*
X309080Y700660D02*
X319080Y700660D01*
X319080Y701610D02*
X309080Y701610D01*
X309080Y702560D02*
X319080Y702560D01*
X319080Y703510D02*
X309080Y703510D01*
X309080Y704460D02*
X319080Y704460D01*
X319080Y705410D02*
X309080Y705410D01*
X309080Y706360D02*
X319080Y706360D01*
D10*
X431040Y694180D02*
X431040Y689200D01*
X431040Y694180D02*
X445520Y694180D01*
X445520Y689200D01*
X431040Y689200D01*
X431040Y690169D02*
X445520Y690169D01*
X445520Y691138D02*
X431040Y691138D01*
X431040Y692107D02*
X445520Y692107D01*
X445520Y693076D02*
X431040Y693076D01*
X431040Y694045D02*
X445520Y694045D01*
X431040Y684180D02*
X431040Y679200D01*
X431040Y684180D02*
X445520Y684180D01*
X445520Y679200D01*
X431040Y679200D01*
X431040Y680169D02*
X445520Y680169D01*
X445520Y681138D02*
X431040Y681138D01*
X431040Y682107D02*
X445520Y682107D01*
X445520Y683076D02*
X431040Y683076D01*
X431040Y684045D02*
X445520Y684045D01*
X431040Y674180D02*
X431040Y669200D01*
X431040Y674180D02*
X445520Y674180D01*
X445520Y669200D01*
X431040Y669200D01*
X431040Y670169D02*
X445520Y670169D01*
X445520Y671138D02*
X431040Y671138D01*
X431040Y672107D02*
X445520Y672107D01*
X445520Y673076D02*
X431040Y673076D01*
X431040Y674045D02*
X445520Y674045D01*
X431040Y664180D02*
X431040Y659200D01*
X431040Y664180D02*
X445520Y664180D01*
X445520Y659200D01*
X431040Y659200D01*
X431040Y660169D02*
X445520Y660169D01*
X445520Y661138D02*
X431040Y661138D01*
X431040Y662107D02*
X445520Y662107D01*
X445520Y663076D02*
X431040Y663076D01*
X431040Y664045D02*
X445520Y664045D01*
D12*
X453010Y699170D02*
X453010Y710210D01*
X472050Y710210D01*
X472050Y699170D01*
X453010Y699170D01*
X453010Y700082D02*
X472050Y700082D01*
X472050Y700994D02*
X453010Y700994D01*
X453010Y701906D02*
X472050Y701906D01*
X472050Y702818D02*
X453010Y702818D01*
X453010Y703730D02*
X472050Y703730D01*
X472050Y704642D02*
X453010Y704642D01*
X453010Y705554D02*
X472050Y705554D01*
X472050Y706466D02*
X453010Y706466D01*
X453010Y707378D02*
X472050Y707378D01*
X472050Y708290D02*
X453010Y708290D01*
X453010Y709202D02*
X472050Y709202D01*
X472050Y710114D02*
X453010Y710114D01*
X453010Y654210D02*
X453010Y643170D01*
X453010Y654210D02*
X472050Y654210D01*
X472050Y643170D01*
X453010Y643170D01*
X453010Y644082D02*
X472050Y644082D01*
X472050Y644994D02*
X453010Y644994D01*
X453010Y645906D02*
X472050Y645906D01*
X472050Y646818D02*
X453010Y646818D01*
X453010Y647730D02*
X472050Y647730D01*
X472050Y648642D02*
X453010Y648642D01*
X453010Y649554D02*
X472050Y649554D01*
X472050Y650466D02*
X453010Y650466D01*
X453010Y651378D02*
X472050Y651378D01*
X472050Y652290D02*
X453010Y652290D01*
X453010Y653202D02*
X472050Y653202D01*
X472050Y654114D02*
X453010Y654114D01*
D16*
X460820Y618180D02*
X460820Y611180D01*
X453820Y611180D01*
X453820Y618180D01*
X460820Y618180D01*
X460820Y614030D02*
X453820Y614030D01*
X453820Y616880D02*
X460820Y616880D01*
X478360Y618180D02*
X478360Y611180D01*
X471360Y611180D01*
X471360Y618180D01*
X478360Y618180D01*
X478360Y614030D02*
X471360Y614030D01*
X471360Y616880D02*
X478360Y616880D01*
D13*
X462590Y626690D02*
X452590Y626690D01*
X452590Y635690D01*
X462590Y635690D01*
X462590Y626690D01*
X462590Y627640D02*
X452590Y627640D01*
X452590Y628590D02*
X462590Y628590D01*
X462590Y629540D02*
X452590Y629540D01*
X452590Y630490D02*
X462590Y630490D01*
X462590Y631440D02*
X452590Y631440D01*
X452590Y632390D02*
X462590Y632390D01*
X462590Y633340D02*
X452590Y633340D01*
X452590Y634290D02*
X462590Y634290D01*
X462590Y635240D02*
X452590Y635240D01*
X469590Y626690D02*
X479590Y626690D01*
X469590Y626690D02*
X469590Y635690D01*
X479590Y635690D01*
X479590Y626690D01*
X479590Y627640D02*
X469590Y627640D01*
X469590Y628590D02*
X479590Y628590D01*
X479590Y629540D02*
X469590Y629540D01*
X469590Y630490D02*
X479590Y630490D01*
X479590Y631440D02*
X469590Y631440D01*
X469590Y632390D02*
X479590Y632390D01*
X479590Y633340D02*
X469590Y633340D01*
X469590Y634290D02*
X479590Y634290D01*
X479590Y635240D02*
X469590Y635240D01*
D10*
X630670Y688420D02*
X633150Y688420D01*
X630670Y688420D02*
X630670Y689400D01*
X633150Y689400D01*
X633150Y688420D01*
X633150Y689389D02*
X630670Y689389D01*
X630670Y684420D02*
X633150Y684420D01*
X630670Y684420D02*
X630670Y685400D01*
X633150Y685400D01*
X633150Y684420D01*
X633150Y685389D02*
X630670Y685389D01*
X630670Y680420D02*
X633150Y680420D01*
X630670Y680420D02*
X630670Y681400D01*
X633150Y681400D01*
X633150Y680420D01*
X633150Y681389D02*
X630670Y681389D01*
X630670Y676420D02*
X633150Y676420D01*
X630670Y676420D02*
X630670Y677400D01*
X633150Y677400D01*
X633150Y676420D01*
X633150Y677389D02*
X630670Y677389D01*
X630670Y672420D02*
X633150Y672420D01*
X630670Y672420D02*
X630670Y673400D01*
X633150Y673400D01*
X633150Y672420D01*
X633150Y673389D02*
X630670Y673389D01*
X630670Y668420D02*
X633150Y668420D01*
X630670Y668420D02*
X630670Y669400D01*
X633150Y669400D01*
X633150Y668420D01*
X633150Y669389D02*
X630670Y669389D01*
X630670Y664420D02*
X633150Y664420D01*
X630670Y664420D02*
X630670Y665400D01*
X633150Y665400D01*
X633150Y664420D01*
X633150Y665389D02*
X630670Y665389D01*
X643150Y664900D02*
X643150Y662420D01*
X642170Y662420D01*
X642170Y664900D01*
X643150Y664900D01*
X643150Y663389D02*
X642170Y663389D01*
X642170Y664358D02*
X643150Y664358D01*
X648150Y664900D02*
X648150Y662420D01*
X647170Y662420D01*
X647170Y664900D01*
X648150Y664900D01*
X648150Y663389D02*
X647170Y663389D01*
X647170Y664358D02*
X648150Y664358D01*
X657170Y665400D02*
X659650Y665400D01*
X659650Y664420D01*
X657170Y664420D01*
X657170Y665400D01*
X657170Y665389D02*
X659650Y665389D01*
X659650Y669400D02*
X657170Y669400D01*
X659650Y669400D02*
X659650Y668420D01*
X657170Y668420D01*
X657170Y669400D01*
X657170Y669389D02*
X659650Y669389D01*
X659650Y673400D02*
X657170Y673400D01*
X659650Y673400D02*
X659650Y672420D01*
X657170Y672420D01*
X657170Y673400D01*
X657170Y673389D02*
X659650Y673389D01*
X659650Y677400D02*
X657170Y677400D01*
X659650Y677400D02*
X659650Y676420D01*
X657170Y676420D01*
X657170Y677400D01*
X657170Y677389D02*
X659650Y677389D01*
X659650Y681400D02*
X657170Y681400D01*
X659650Y681400D02*
X659650Y680420D01*
X657170Y680420D01*
X657170Y681400D01*
X657170Y681389D02*
X659650Y681389D01*
X659650Y685400D02*
X657170Y685400D01*
X659650Y685400D02*
X659650Y684420D01*
X657170Y684420D01*
X657170Y685400D01*
X657170Y685389D02*
X659650Y685389D01*
X659650Y689400D02*
X657170Y689400D01*
X659650Y689400D02*
X659650Y688420D01*
X657170Y688420D01*
X657170Y689400D01*
X657170Y689389D02*
X659650Y689389D01*
X647170Y688920D02*
X647170Y691400D01*
X648150Y691400D01*
X648150Y688920D01*
X647170Y688920D01*
X647170Y689889D02*
X648150Y689889D01*
X648150Y690858D02*
X647170Y690858D01*
X642170Y691400D02*
X642170Y688920D01*
X642170Y691400D02*
X643150Y691400D01*
X643150Y688920D01*
X642170Y688920D01*
X642170Y689889D02*
X643150Y689889D01*
X643150Y690858D02*
X642170Y690858D01*
D11*
X640160Y682410D03*
X650160Y682410D03*
X650160Y671410D03*
X640160Y671410D03*
D12*
X584640Y666080D02*
X584640Y653040D01*
X584640Y666080D02*
X595680Y666080D01*
X595680Y653040D01*
X584640Y653040D01*
X584640Y653952D02*
X595680Y653952D01*
X595680Y654864D02*
X584640Y654864D01*
X584640Y655776D02*
X595680Y655776D01*
X595680Y656688D02*
X584640Y656688D01*
X584640Y657600D02*
X595680Y657600D01*
X595680Y658512D02*
X584640Y658512D01*
X584640Y659424D02*
X595680Y659424D01*
X595680Y660336D02*
X584640Y660336D01*
X584640Y661248D02*
X595680Y661248D01*
X595680Y662160D02*
X584640Y662160D01*
X584640Y663072D02*
X595680Y663072D01*
X595680Y663984D02*
X584640Y663984D01*
X584640Y664896D02*
X595680Y664896D01*
X595680Y665808D02*
X584640Y665808D01*
X595680Y675040D02*
X595680Y688080D01*
X595680Y675040D02*
X584640Y675040D01*
X584640Y688080D01*
X595680Y688080D01*
X595680Y675952D02*
X584640Y675952D01*
X584640Y676864D02*
X595680Y676864D01*
X595680Y677776D02*
X584640Y677776D01*
X584640Y678688D02*
X595680Y678688D01*
X595680Y679600D02*
X584640Y679600D01*
X584640Y680512D02*
X595680Y680512D01*
X595680Y681424D02*
X584640Y681424D01*
X584640Y682336D02*
X595680Y682336D01*
X595680Y683248D02*
X584640Y683248D01*
X584640Y684160D02*
X595680Y684160D01*
X595680Y685072D02*
X584640Y685072D01*
X584640Y685984D02*
X595680Y685984D01*
X595680Y686896D02*
X584640Y686896D01*
X584640Y687808D02*
X595680Y687808D01*
X578680Y688080D02*
X578680Y675040D01*
X567640Y675040D01*
X567640Y688080D01*
X578680Y688080D01*
X578680Y675952D02*
X567640Y675952D01*
X567640Y676864D02*
X578680Y676864D01*
X578680Y677776D02*
X567640Y677776D01*
X567640Y678688D02*
X578680Y678688D01*
X578680Y679600D02*
X567640Y679600D01*
X567640Y680512D02*
X578680Y680512D01*
X578680Y681424D02*
X567640Y681424D01*
X567640Y682336D02*
X578680Y682336D01*
X578680Y683248D02*
X567640Y683248D01*
X567640Y684160D02*
X578680Y684160D01*
X578680Y685072D02*
X567640Y685072D01*
X567640Y685984D02*
X578680Y685984D01*
X578680Y686896D02*
X567640Y686896D01*
X567640Y687808D02*
X578680Y687808D01*
X567640Y666080D02*
X567640Y653040D01*
X567640Y666080D02*
X578680Y666080D01*
X578680Y653040D01*
X567640Y653040D01*
X567640Y653952D02*
X578680Y653952D01*
X578680Y654864D02*
X567640Y654864D01*
X567640Y655776D02*
X578680Y655776D01*
X578680Y656688D02*
X567640Y656688D01*
X567640Y657600D02*
X578680Y657600D01*
X578680Y658512D02*
X567640Y658512D01*
X567640Y659424D02*
X578680Y659424D01*
X578680Y660336D02*
X567640Y660336D01*
X567640Y661248D02*
X578680Y661248D01*
X578680Y662160D02*
X567640Y662160D01*
X567640Y663072D02*
X578680Y663072D01*
X578680Y663984D02*
X567640Y663984D01*
X567640Y664896D02*
X578680Y664896D01*
X578680Y665808D02*
X567640Y665808D01*
D13*
X631660Y697810D02*
X641660Y697810D01*
X631660Y697810D02*
X631660Y706810D01*
X641660Y706810D01*
X641660Y697810D01*
X641660Y698760D02*
X631660Y698760D01*
X631660Y699710D02*
X641660Y699710D01*
X641660Y700660D02*
X631660Y700660D01*
X631660Y701610D02*
X641660Y701610D01*
X641660Y702560D02*
X631660Y702560D01*
X631660Y703510D02*
X641660Y703510D01*
X641660Y704460D02*
X631660Y704460D01*
X631660Y705410D02*
X641660Y705410D01*
X641660Y706360D02*
X631660Y706360D01*
X648660Y697810D02*
X658660Y697810D01*
X648660Y697810D02*
X648660Y706810D01*
X658660Y706810D01*
X658660Y697810D01*
X658660Y698760D02*
X648660Y698760D01*
X648660Y699710D02*
X658660Y699710D01*
X658660Y700660D02*
X648660Y700660D01*
X648660Y701610D02*
X658660Y701610D01*
X658660Y702560D02*
X648660Y702560D01*
X648660Y703510D02*
X658660Y703510D01*
X658660Y704460D02*
X648660Y704460D01*
X648660Y705410D02*
X658660Y705410D01*
X658660Y706360D02*
X648660Y706360D01*
D14*
X708501Y603409D02*
X739299Y603409D01*
X739299Y572611D01*
X708501Y572611D01*
X708501Y603409D01*
X708501Y573516D02*
X739299Y573516D01*
X739299Y574421D02*
X708501Y574421D01*
X708501Y575326D02*
X739299Y575326D01*
X739299Y576231D02*
X708501Y576231D01*
X708501Y577136D02*
X739299Y577136D01*
X739299Y578041D02*
X708501Y578041D01*
X708501Y578946D02*
X739299Y578946D01*
X739299Y579851D02*
X708501Y579851D01*
X708501Y580756D02*
X739299Y580756D01*
X739299Y581661D02*
X708501Y581661D01*
X708501Y582566D02*
X739299Y582566D01*
X739299Y583471D02*
X708501Y583471D01*
X708501Y584376D02*
X739299Y584376D01*
X739299Y585281D02*
X708501Y585281D01*
X708501Y586186D02*
X739299Y586186D01*
X739299Y587091D02*
X708501Y587091D01*
X708501Y587996D02*
X739299Y587996D01*
X739299Y588901D02*
X708501Y588901D01*
X708501Y589806D02*
X739299Y589806D01*
X739299Y590711D02*
X708501Y590711D01*
X708501Y591616D02*
X739299Y591616D01*
X739299Y592521D02*
X708501Y592521D01*
X708501Y593426D02*
X739299Y593426D01*
X739299Y594331D02*
X708501Y594331D01*
X708501Y595236D02*
X739299Y595236D01*
X739299Y596141D02*
X708501Y596141D01*
X708501Y597046D02*
X739299Y597046D01*
X739299Y597951D02*
X708501Y597951D01*
X708501Y598856D02*
X739299Y598856D01*
X739299Y599761D02*
X708501Y599761D01*
X708501Y600666D02*
X739299Y600666D01*
X739299Y601571D02*
X708501Y601571D01*
X708501Y602476D02*
X739299Y602476D01*
X739299Y603381D02*
X708501Y603381D01*
X581819Y603409D02*
X551021Y603409D01*
X581819Y603409D02*
X581819Y572611D01*
X551021Y572611D01*
X551021Y603409D01*
X551021Y573516D02*
X581819Y573516D01*
X581819Y574421D02*
X551021Y574421D01*
X551021Y575326D02*
X581819Y575326D01*
X581819Y576231D02*
X551021Y576231D01*
X551021Y577136D02*
X581819Y577136D01*
X581819Y578041D02*
X551021Y578041D01*
X551021Y578946D02*
X581819Y578946D01*
X581819Y579851D02*
X551021Y579851D01*
X551021Y580756D02*
X581819Y580756D01*
X581819Y581661D02*
X551021Y581661D01*
X551021Y582566D02*
X581819Y582566D01*
X581819Y583471D02*
X551021Y583471D01*
X551021Y584376D02*
X581819Y584376D01*
X581819Y585281D02*
X551021Y585281D01*
X551021Y586186D02*
X581819Y586186D01*
X581819Y587091D02*
X551021Y587091D01*
X551021Y587996D02*
X581819Y587996D01*
X581819Y588901D02*
X551021Y588901D01*
X551021Y589806D02*
X581819Y589806D01*
X581819Y590711D02*
X551021Y590711D01*
X551021Y591616D02*
X581819Y591616D01*
X581819Y592521D02*
X551021Y592521D01*
X551021Y593426D02*
X581819Y593426D01*
X581819Y594331D02*
X551021Y594331D01*
X551021Y595236D02*
X581819Y595236D01*
X581819Y596141D02*
X551021Y596141D01*
X551021Y597046D02*
X581819Y597046D01*
X581819Y597951D02*
X551021Y597951D01*
X551021Y598856D02*
X581819Y598856D01*
X581819Y599761D02*
X551021Y599761D01*
X551021Y600666D02*
X581819Y600666D01*
X581819Y601571D02*
X551021Y601571D01*
X551021Y602476D02*
X581819Y602476D01*
X581819Y603381D02*
X551021Y603381D01*
D15*
X635160Y588010D02*
X635163Y588255D01*
X635172Y588501D01*
X635187Y588746D01*
X635208Y588990D01*
X635235Y589234D01*
X635268Y589477D01*
X635307Y589720D01*
X635352Y589961D01*
X635403Y590201D01*
X635460Y590440D01*
X635522Y590677D01*
X635591Y590913D01*
X635665Y591147D01*
X635745Y591379D01*
X635830Y591609D01*
X635921Y591837D01*
X636018Y592062D01*
X636120Y592286D01*
X636228Y592506D01*
X636341Y592724D01*
X636459Y592939D01*
X636583Y593151D01*
X636711Y593360D01*
X636845Y593566D01*
X636984Y593768D01*
X637128Y593967D01*
X637277Y594162D01*
X637430Y594354D01*
X637588Y594542D01*
X637750Y594726D01*
X637918Y594905D01*
X638089Y595081D01*
X638265Y595252D01*
X638444Y595420D01*
X638628Y595582D01*
X638816Y595740D01*
X639008Y595893D01*
X639203Y596042D01*
X639402Y596186D01*
X639604Y596325D01*
X639810Y596459D01*
X640019Y596587D01*
X640231Y596711D01*
X640446Y596829D01*
X640664Y596942D01*
X640884Y597050D01*
X641108Y597152D01*
X641333Y597249D01*
X641561Y597340D01*
X641791Y597425D01*
X642023Y597505D01*
X642257Y597579D01*
X642493Y597648D01*
X642730Y597710D01*
X642969Y597767D01*
X643209Y597818D01*
X643450Y597863D01*
X643693Y597902D01*
X643936Y597935D01*
X644180Y597962D01*
X644424Y597983D01*
X644669Y597998D01*
X644915Y598007D01*
X645160Y598010D01*
X645405Y598007D01*
X645651Y597998D01*
X645896Y597983D01*
X646140Y597962D01*
X646384Y597935D01*
X646627Y597902D01*
X646870Y597863D01*
X647111Y597818D01*
X647351Y597767D01*
X647590Y597710D01*
X647827Y597648D01*
X648063Y597579D01*
X648297Y597505D01*
X648529Y597425D01*
X648759Y597340D01*
X648987Y597249D01*
X649212Y597152D01*
X649436Y597050D01*
X649656Y596942D01*
X649874Y596829D01*
X650089Y596711D01*
X650301Y596587D01*
X650510Y596459D01*
X650716Y596325D01*
X650918Y596186D01*
X651117Y596042D01*
X651312Y595893D01*
X651504Y595740D01*
X651692Y595582D01*
X651876Y595420D01*
X652055Y595252D01*
X652231Y595081D01*
X652402Y594905D01*
X652570Y594726D01*
X652732Y594542D01*
X652890Y594354D01*
X653043Y594162D01*
X653192Y593967D01*
X653336Y593768D01*
X653475Y593566D01*
X653609Y593360D01*
X653737Y593151D01*
X653861Y592939D01*
X653979Y592724D01*
X654092Y592506D01*
X654200Y592286D01*
X654302Y592062D01*
X654399Y591837D01*
X654490Y591609D01*
X654575Y591379D01*
X654655Y591147D01*
X654729Y590913D01*
X654798Y590677D01*
X654860Y590440D01*
X654917Y590201D01*
X654968Y589961D01*
X655013Y589720D01*
X655052Y589477D01*
X655085Y589234D01*
X655112Y588990D01*
X655133Y588746D01*
X655148Y588501D01*
X655157Y588255D01*
X655160Y588010D01*
X655157Y587765D01*
X655148Y587519D01*
X655133Y587274D01*
X655112Y587030D01*
X655085Y586786D01*
X655052Y586543D01*
X655013Y586300D01*
X654968Y586059D01*
X654917Y585819D01*
X654860Y585580D01*
X654798Y585343D01*
X654729Y585107D01*
X654655Y584873D01*
X654575Y584641D01*
X654490Y584411D01*
X654399Y584183D01*
X654302Y583958D01*
X654200Y583734D01*
X654092Y583514D01*
X653979Y583296D01*
X653861Y583081D01*
X653737Y582869D01*
X653609Y582660D01*
X653475Y582454D01*
X653336Y582252D01*
X653192Y582053D01*
X653043Y581858D01*
X652890Y581666D01*
X652732Y581478D01*
X652570Y581294D01*
X652402Y581115D01*
X652231Y580939D01*
X652055Y580768D01*
X651876Y580600D01*
X651692Y580438D01*
X651504Y580280D01*
X651312Y580127D01*
X651117Y579978D01*
X650918Y579834D01*
X650716Y579695D01*
X650510Y579561D01*
X650301Y579433D01*
X650089Y579309D01*
X649874Y579191D01*
X649656Y579078D01*
X649436Y578970D01*
X649212Y578868D01*
X648987Y578771D01*
X648759Y578680D01*
X648529Y578595D01*
X648297Y578515D01*
X648063Y578441D01*
X647827Y578372D01*
X647590Y578310D01*
X647351Y578253D01*
X647111Y578202D01*
X646870Y578157D01*
X646627Y578118D01*
X646384Y578085D01*
X646140Y578058D01*
X645896Y578037D01*
X645651Y578022D01*
X645405Y578013D01*
X645160Y578010D01*
X644915Y578013D01*
X644669Y578022D01*
X644424Y578037D01*
X644180Y578058D01*
X643936Y578085D01*
X643693Y578118D01*
X643450Y578157D01*
X643209Y578202D01*
X642969Y578253D01*
X642730Y578310D01*
X642493Y578372D01*
X642257Y578441D01*
X642023Y578515D01*
X641791Y578595D01*
X641561Y578680D01*
X641333Y578771D01*
X641108Y578868D01*
X640884Y578970D01*
X640664Y579078D01*
X640446Y579191D01*
X640231Y579309D01*
X640019Y579433D01*
X639810Y579561D01*
X639604Y579695D01*
X639402Y579834D01*
X639203Y579978D01*
X639008Y580127D01*
X638816Y580280D01*
X638628Y580438D01*
X638444Y580600D01*
X638265Y580768D01*
X638089Y580939D01*
X637918Y581115D01*
X637750Y581294D01*
X637588Y581478D01*
X637430Y581666D01*
X637277Y581858D01*
X637128Y582053D01*
X636984Y582252D01*
X636845Y582454D01*
X636711Y582660D01*
X636583Y582869D01*
X636459Y583081D01*
X636341Y583296D01*
X636228Y583514D01*
X636120Y583734D01*
X636018Y583958D01*
X635921Y584183D01*
X635830Y584411D01*
X635745Y584641D01*
X635665Y584873D01*
X635591Y585107D01*
X635522Y585343D01*
X635460Y585580D01*
X635403Y585819D01*
X635352Y586059D01*
X635307Y586300D01*
X635268Y586543D01*
X635235Y586786D01*
X635208Y587030D01*
X635187Y587274D01*
X635172Y587519D01*
X635163Y587765D01*
X635160Y588010D01*
D13*
X595160Y706810D02*
X585160Y706810D01*
X595160Y706810D02*
X595160Y697810D01*
X585160Y697810D01*
X585160Y706810D01*
X585160Y698760D02*
X595160Y698760D01*
X595160Y699710D02*
X585160Y699710D01*
X585160Y700660D02*
X595160Y700660D01*
X595160Y701610D02*
X585160Y701610D01*
X585160Y702560D02*
X595160Y702560D01*
X595160Y703510D02*
X585160Y703510D01*
X585160Y704460D02*
X595160Y704460D01*
X595160Y705410D02*
X585160Y705410D01*
X585160Y706360D02*
X595160Y706360D01*
X578160Y706810D02*
X568160Y706810D01*
X578160Y706810D02*
X578160Y697810D01*
X568160Y697810D01*
X568160Y706810D01*
X568160Y698760D02*
X578160Y698760D01*
X578160Y699710D02*
X568160Y699710D01*
X568160Y700660D02*
X578160Y700660D01*
X578160Y701610D02*
X568160Y701610D01*
X568160Y702560D02*
X578160Y702560D01*
X578160Y703510D02*
X568160Y703510D01*
X568160Y704460D02*
X578160Y704460D01*
X578160Y705410D02*
X568160Y705410D01*
X568160Y706360D02*
X578160Y706360D01*
D10*
X690120Y694180D02*
X690120Y689200D01*
X690120Y694180D02*
X704600Y694180D01*
X704600Y689200D01*
X690120Y689200D01*
X690120Y690169D02*
X704600Y690169D01*
X704600Y691138D02*
X690120Y691138D01*
X690120Y692107D02*
X704600Y692107D01*
X704600Y693076D02*
X690120Y693076D01*
X690120Y694045D02*
X704600Y694045D01*
X690120Y684180D02*
X690120Y679200D01*
X690120Y684180D02*
X704600Y684180D01*
X704600Y679200D01*
X690120Y679200D01*
X690120Y680169D02*
X704600Y680169D01*
X704600Y681138D02*
X690120Y681138D01*
X690120Y682107D02*
X704600Y682107D01*
X704600Y683076D02*
X690120Y683076D01*
X690120Y684045D02*
X704600Y684045D01*
X690120Y674180D02*
X690120Y669200D01*
X690120Y674180D02*
X704600Y674180D01*
X704600Y669200D01*
X690120Y669200D01*
X690120Y670169D02*
X704600Y670169D01*
X704600Y671138D02*
X690120Y671138D01*
X690120Y672107D02*
X704600Y672107D01*
X704600Y673076D02*
X690120Y673076D01*
X690120Y674045D02*
X704600Y674045D01*
X690120Y664180D02*
X690120Y659200D01*
X690120Y664180D02*
X704600Y664180D01*
X704600Y659200D01*
X690120Y659200D01*
X690120Y660169D02*
X704600Y660169D01*
X704600Y661138D02*
X690120Y661138D01*
X690120Y662107D02*
X704600Y662107D01*
X704600Y663076D02*
X690120Y663076D01*
X690120Y664045D02*
X704600Y664045D01*
D12*
X712090Y699170D02*
X712090Y710210D01*
X731130Y710210D01*
X731130Y699170D01*
X712090Y699170D01*
X712090Y700082D02*
X731130Y700082D01*
X731130Y700994D02*
X712090Y700994D01*
X712090Y701906D02*
X731130Y701906D01*
X731130Y702818D02*
X712090Y702818D01*
X712090Y703730D02*
X731130Y703730D01*
X731130Y704642D02*
X712090Y704642D01*
X712090Y705554D02*
X731130Y705554D01*
X731130Y706466D02*
X712090Y706466D01*
X712090Y707378D02*
X731130Y707378D01*
X731130Y708290D02*
X712090Y708290D01*
X712090Y709202D02*
X731130Y709202D01*
X731130Y710114D02*
X712090Y710114D01*
X712090Y654210D02*
X712090Y643170D01*
X712090Y654210D02*
X731130Y654210D01*
X731130Y643170D01*
X712090Y643170D01*
X712090Y644082D02*
X731130Y644082D01*
X731130Y644994D02*
X712090Y644994D01*
X712090Y645906D02*
X731130Y645906D01*
X731130Y646818D02*
X712090Y646818D01*
X712090Y647730D02*
X731130Y647730D01*
X731130Y648642D02*
X712090Y648642D01*
X712090Y649554D02*
X731130Y649554D01*
X731130Y650466D02*
X712090Y650466D01*
X712090Y651378D02*
X731130Y651378D01*
X731130Y652290D02*
X712090Y652290D01*
X712090Y653202D02*
X731130Y653202D01*
X731130Y654114D02*
X712090Y654114D01*
D16*
X719900Y618180D02*
X719900Y611180D01*
X712900Y611180D01*
X712900Y618180D01*
X719900Y618180D01*
X719900Y614030D02*
X712900Y614030D01*
X712900Y616880D02*
X719900Y616880D01*
X737440Y618180D02*
X737440Y611180D01*
X730440Y611180D01*
X730440Y618180D01*
X737440Y618180D01*
X737440Y614030D02*
X730440Y614030D01*
X730440Y616880D02*
X737440Y616880D01*
D13*
X721670Y626690D02*
X711670Y626690D01*
X711670Y635690D01*
X721670Y635690D01*
X721670Y626690D01*
X721670Y627640D02*
X711670Y627640D01*
X711670Y628590D02*
X721670Y628590D01*
X721670Y629540D02*
X711670Y629540D01*
X711670Y630490D02*
X721670Y630490D01*
X721670Y631440D02*
X711670Y631440D01*
X711670Y632390D02*
X721670Y632390D01*
X721670Y633340D02*
X711670Y633340D01*
X711670Y634290D02*
X721670Y634290D01*
X721670Y635240D02*
X711670Y635240D01*
X728670Y626690D02*
X738670Y626690D01*
X728670Y626690D02*
X728670Y635690D01*
X738670Y635690D01*
X738670Y626690D01*
X738670Y627640D02*
X728670Y627640D01*
X728670Y628590D02*
X738670Y628590D01*
X738670Y629540D02*
X728670Y629540D01*
X728670Y630490D02*
X738670Y630490D01*
X738670Y631440D02*
X728670Y631440D01*
X728670Y632390D02*
X738670Y632390D01*
X738670Y633340D02*
X728670Y633340D01*
X728670Y634290D02*
X738670Y634290D01*
X738670Y635240D02*
X728670Y635240D01*
M02*
